SplineFontDB: 3.0
FontName: Orbitron-Black
FullName: Orbitron Black
FamilyName: Orbitron
Weight: Black
Copyright: Copyright (c) 2009, Matt McInerney <matt@pixelspread.com>
Version: 001.001
ItalicAngle: 0
UnderlinePosition: -50
UnderlineWidth: 50
Ascent: 750
Descent: 250
sfntRevision: 0x00010000
LayerCount: 2
Layer: 0 1 "Back"  1
Layer: 1 1 "Fore"  0
XUID: [1021 496 529952750 6008621]
FSType: 4
OS2Version: 2
OS2_WeightWidthSlopeOnly: 0
OS2_UseTypoMetrics: 1
CreationTime: 1259834366
ModificationTime: 1291728488
PfmFamily: 17
TTFWeight: 900
TTFWidth: 5
LineGap: 0
VLineGap: 0
Panose: 2 0 0 0 0 0 0 0 0 0
OS2TypoAscent: 0
OS2TypoAOffset: 1
OS2TypoDescent: 0
OS2TypoDOffset: 1
OS2TypoLinegap: 0
OS2WinAscent: 0
OS2WinAOffset: 1
OS2WinDescent: 0
OS2WinDOffset: 1
HheadAscent: -223
HheadAOffset: 1
HheadDescent: -20
HheadDOffset: 1
OS2SubXSize: 700
OS2SubYSize: 650
OS2SubXOff: 0
OS2SubYOff: 140
OS2SupXSize: 700
OS2SupYSize: 650
OS2SupXOff: 0
OS2SupYOff: 477
OS2StrikeYSize: 50
OS2StrikeYPos: 250
OS2Vendor: 'pyrs'
OS2CodePages: 00000001.00000000
OS2UnicodeRanges: 80000027.10000042.00000000.00000000
Lookup: 1 0 0 "'aalt' Access All Alternates in Latin lookup 0"  {"'aalt' Access All Alternates in Latin lookup 0 subtable"  } ['aalt' ('latn' <'dflt' > ) ]
Lookup: 3 0 0 "'aalt' Access All Alternates in Latin lookup 1"  {"'aalt' Access All Alternates in Latin lookup 1 subtable"  } ['aalt' ('latn' <'dflt' > ) ]
Lookup: 1 0 0 "'salt' Stylistic Alternatives in Latin lookup 2"  {"'salt' Stylistic Alternatives in Latin lookup 2 subtable"  } ['salt' ('latn' <'dflt' > ) ]
Lookup: 1 0 0 "'smcp' Lowercase to Small Capitals in Latin lookup 3"  {"'smcp' Lowercase to Small Capitals in Latin lookup 3 subtable"  } ['smcp' ('latn' <'dflt' > ) ]
Lookup: 1 0 0 "'ss01' Style Set 1 in Latin lookup 4"  {"'ss01' Style Set 1 in Latin lookup 4 subtable"  } ['ss01' ('latn' <'dflt' > ) ]

StartChar: A.alt3
Encoding: 65539 -1 4
Width: 827
Flags: MW
HStem: 0 21G<-28 150 -28 -28 698 876 698 698> 161 156<330 519 330 606 244 519> 700 20G<358 491 491 491>
LayerCount: 2
Fore
SplineSet
876 0 m 1,0,-1
 698 0 l 1,1,-1
 606 161 l 1,2,-1
 244 161 l 1,3,-1
 150 0 l 1,4,-1
 -28 0 l 1,5,-1
 358 720 l 1,6,-1
 491 720 l 1,7,-1
 876 0 l 1,0,-1
424 512 m 1,8,-1
 330 317 l 1,9,-1
 519 317 l 1,10,11
 439 479 439 479 424 512 c 1,8,-1
EndSplineSet
EndChar

StartChar: AE
Encoding: 198 198 5
Width: 1375
Flags: MW
HStem: 0 156<774 1283 774 1283 619 1283> 232 156<211 619 211 619> 282 156<774 1183 774 1183> 564 156<211 619 211 211 774 774 774 1283>
VStem: 54 157<0 232 0 388 388 564> 619 155<156 232 232 232 438 564>
LayerCount: 2
Fore
SplineSet
774 564 m 1,0,-1
 774 438 l 1,1,-1
 1183 438 l 1,2,-1
 1183 282 l 1,3,-1
 774 282 l 1,4,-1
 774 156 l 1,5,-1
 1283 156 l 1,6,-1
 1283 0 l 1,7,-1
 619 0 l 1,8,-1
 619 232 l 1,9,-1
 211 232 l 1,10,-1
 211 0 l 1,11,-1
 54 0 l 1,12,-1
 54 572 l 2,13,14
 54 633 54 633 97.5 676.5 c 128,-1,15
 141 720 141 720 202 720 c 2,16,-1
 1283 720 l 1,17,-1
 1283 564 l 1,18,-1
 774 564 l 1,0,-1
619 388 m 1,19,-1
 619 564 l 1,20,-1
 211 564 l 1,21,-1
 211 388 l 1,22,-1
 619 388 l 1,19,-1
EndSplineSet
EndChar

StartChar: Aacute
Encoding: 193 193 6
Width: 836
Flags: MW
HStem: 0 21G<58 213 58 58 621 778 621 621> 232 156<213 621 213 621> 564 156<213 621 213 213> 769 203<334 542 385 491>
VStem: 58 155<0 232 388 564> 621 157<0 232 232 232 388 564 564 564>
LayerCount: 2
Fore
SplineSet
206 720 m 2,0,-1
 629 720 l 2,1,2
 691 720 691 720 734.5 676.5 c 128,-1,3
 778 633 778 633 778 572 c 2,4,-1
 778 0 l 1,5,-1
 621 0 l 1,6,-1
 621 232 l 1,7,-1
 213 232 l 1,8,-1
 213 0 l 1,9,-1
 58 0 l 1,10,-1
 58 572 l 2,11,12
 58 634 58 634 101 677 c 128,-1,13
 144 720 144 720 206 720 c 2,0,-1
213 388 m 1,14,-1
 621 388 l 1,15,-1
 621 564 l 1,16,-1
 213 564 l 1,17,-1
 213 388 l 1,14,-1
334 769 m 1,18,-1
 385 972 l 1,19,-1
 542 972 l 1,20,-1
 491 769 l 1,21,-1
 334 769 l 1,18,-1
EndSplineSet
EndChar

StartChar: Acircumflex
Encoding: 194 194 7
Width: 836
Flags: MW
HStem: 0 21G<58 213 58 58 621 778 621 621> 232 156<213 621 213 621> 564 156<213 621 213 213> 769 184<376 399 266 476 452 452 452 476 376 586>
VStem: 58 155<0 232 388 564> 621 157<0 232 232 232 388 564 564 564>
LayerCount: 2
Fore
SplineSet
206 720 m 2,0,-1
 629 720 l 2,1,2
 691 720 691 720 734.5 676.5 c 128,-1,3
 778 633 778 633 778 572 c 2,4,-1
 778 0 l 1,5,-1
 621 0 l 1,6,-1
 621 232 l 1,7,-1
 213 232 l 1,8,-1
 213 0 l 1,9,-1
 58 0 l 1,10,-1
 58 572 l 2,11,12
 58 634 58 634 101 677 c 128,-1,13
 144 720 144 720 206 720 c 2,0,-1
213 388 m 1,14,-1
 621 388 l 1,15,-1
 621 564 l 1,16,-1
 213 564 l 1,17,-1
 213 388 l 1,14,-1
399 769 m 1,18,-1
 266 769 l 1,19,-1
 376 953 l 1,20,-1
 476 953 l 1,21,-1
 586 769 l 1,22,-1
 452 769 l 1,23,-1
 424 813 l 1,24,-1
 399 769 l 1,18,-1
EndSplineSet
EndChar

StartChar: Adieresis
Encoding: 196 196 8
Width: 836
Flags: MW
HStem: 0 21G<58 213 58 58 621 778 621 621> 232 156<213 621 213 621> 564 156<213 621 213 213> 770 154<239 392 239 392 452 606 239 452>
VStem: 58 155<0 232 388 564> 239 153<770 924 770 924> 452 154<770 924 770 924> 621 157<0 232 232 232 388 564 564 564>
LayerCount: 2
Fore
SplineSet
206 720 m 2,0,-1
 629 720 l 2,1,2
 691 720 691 720 734.5 676.5 c 128,-1,3
 778 633 778 633 778 572 c 2,4,-1
 778 0 l 1,5,-1
 621 0 l 1,6,-1
 621 232 l 1,7,-1
 213 232 l 1,8,-1
 213 0 l 1,9,-1
 58 0 l 1,10,-1
 58 572 l 2,11,12
 58 634 58 634 101 677 c 128,-1,13
 144 720 144 720 206 720 c 2,0,-1
213 388 m 1,14,-1
 621 388 l 1,15,-1
 621 564 l 1,16,-1
 213 564 l 1,17,-1
 213 388 l 1,14,-1
606 924 m 1,18,-1
 606 770 l 1,19,-1
 452 770 l 1,20,-1
 452 924 l 1,21,-1
 606 924 l 1,18,-1
392 924 m 1,22,-1
 392 770 l 1,23,-1
 239 770 l 1,24,-1
 239 924 l 1,25,-1
 392 924 l 1,22,-1
EndSplineSet
EndChar

StartChar: Agrave
Encoding: 192 192 9
Width: 836
Flags: MW
HStem: 0 21G<58 213 58 58 621 778 621 621> 232 156<213 621 213 621> 564 156<213 621 213 213> 770 203<345 451 294 502 345 345>
VStem: 58 155<0 232 388 564> 621 157<0 232 232 232 388 564 564 564>
LayerCount: 2
Fore
SplineSet
206 720 m 2,0,-1
 629 720 l 2,1,2
 691 720 691 720 734.5 676.5 c 128,-1,3
 778 633 778 633 778 572 c 2,4,-1
 778 0 l 1,5,-1
 621 0 l 1,6,-1
 621 232 l 1,7,-1
 213 232 l 1,8,-1
 213 0 l 1,9,-1
 58 0 l 1,10,-1
 58 572 l 2,11,12
 58 634 58 634 101 677 c 128,-1,13
 144 720 144 720 206 720 c 2,0,-1
213 388 m 1,14,-1
 621 388 l 1,15,-1
 621 564 l 1,16,-1
 213 564 l 1,17,-1
 213 388 l 1,14,-1
451 973 m 1,18,-1
 502 770 l 1,19,-1
 345 770 l 1,20,-1
 294 973 l 1,21,-1
 451 973 l 1,18,-1
EndSplineSet
EndChar

StartChar: Aring
Encoding: 197 197 10
Width: 836
Flags: MW
HStem: 0 21G<58 213 58 58 621 778 621 621> 232 156<213 621 213 621> 564 156<213 621 213 213> 771 201<356 428 377 428>
VStem: 58 155<0 232 388 564> 300 204<847 896 826.5 916.5> 621 157<0 232 232 232 388 564 564 564>
LayerCount: 2
Fore
SplineSet
206 720 m 2,0,-1
 629 720 l 2,1,2
 691 720 691 720 734.5 676.5 c 128,-1,3
 778 633 778 633 778 572 c 2,4,-1
 778 0 l 1,5,-1
 621 0 l 1,6,-1
 621 232 l 1,7,-1
 213 232 l 1,8,-1
 213 0 l 1,9,-1
 58 0 l 1,10,-1
 58 572 l 2,11,12
 58 634 58 634 101 677 c 128,-1,13
 144 720 144 720 206 720 c 2,0,-1
213 388 m 1,14,-1
 621 388 l 1,15,-1
 621 564 l 1,16,-1
 213 564 l 1,17,-1
 213 388 l 1,14,-1
377 972 m 2,18,-1
 428 972 l 2,19,20
 459 972 459 972 481.5 949.5 c 128,-1,21
 504 927 504 927 504 896 c 2,22,-1
 504 847 l 2,23,24
 504 816 504 816 481.5 793.5 c 128,-1,25
 459 771 459 771 428 771 c 2,26,-1
 377 771 l 2,27,28
 346 771 346 771 323 793.5 c 128,-1,29
 300 816 300 816 300 847 c 2,30,-1
 300 896 l 2,31,32
 300 927 300 927 323 949.5 c 128,-1,33
 346 972 346 972 377 972 c 2,18,-1
377 894 m 1,34,-1
 377 840 l 1,35,-1
 428 840 l 1,36,-1
 428 894 l 1,37,-1
 377 894 l 1,34,-1
EndSplineSet
EndChar

StartChar: Atilde
Encoding: 195 195 11
Width: 836
Flags: MW
HStem: 0 21G<58 213 58 58 621 778 621 621> 232 156<213 621 213 621> 564 156<213 621 213 213> 774 177<282 495> 836 115<282 286 286 297>
VStem: 58 155<0 232 388 564> 621 157<0 232 232 232 388 564 564 564>
LayerCount: 2
Fore
SplineSet
206 720 m 2,0,-1
 629 720 l 2,1,2
 691 720 691 720 734.5 676.5 c 128,-1,3
 778 633 778 633 778 572 c 2,4,-1
 778 0 l 1,5,-1
 621 0 l 1,6,-1
 621 232 l 1,7,-1
 213 232 l 1,8,-1
 213 0 l 1,9,-1
 58 0 l 1,10,-1
 58 572 l 2,11,12
 58 634 58 634 101 677 c 128,-1,13
 144 720 144 720 206 720 c 2,0,-1
213 388 m 1,14,-1
 621 388 l 1,15,-1
 621 564 l 1,16,-1
 213 564 l 1,17,-1
 213 388 l 1,14,-1
481 889 m 1,18,19
 520 889 520 889 577 926 c 1,20,-1
 577 800 l 1,21,22
 515 774 515 774 478 774 c 128,-1,23
 441 774 441 774 383.5 805 c 128,-1,24
 326 836 326 836 297 836 c 2,25,-1
 286 836 l 2,26,27
 244 836 244 836 202 800 c 1,28,-1
 202 924 l 1,29,30
 270 951 270 951 297 951 c 0,31,32
 334 951 334 951 392 922 c 128,-1,33
 450 893 450 893 481 889 c 1,18,19
EndSplineSet
EndChar

StartChar: B
Encoding: 66 66 12
Width: 832
Flags: MW
HStem: 0 156<214 622 214 630 59 622> 288 156<214 594 214 594 214 622> 564 156<214 214 214 594>
VStem: 59 155<156 288 444 564> 594 157<444 564 564 564> 622 157<156 288 288 288>
LayerCount: 2
Fore
SplineSet
751 572 m 2,0,-1
 751 437 l 2,1,2
 751 409 751 409 744 391 c 1,3,4
 779 347 779 347 779 297 c 2,5,-1
 779 148 l 2,6,7
 779 87 779 87 735.5 43.5 c 128,-1,8
 692 0 692 0 630 0 c 2,9,-1
 59 0 l 1,10,-1
 59 720 l 1,11,-1
 603 720 l 2,12,13
 664 720 664 720 707.5 676.5 c 128,-1,14
 751 633 751 633 751 572 c 2,0,-1
214 288 m 1,15,-1
 214 156 l 1,16,-1
 622 156 l 1,17,-1
 622 288 l 1,18,-1
 214 288 l 1,15,-1
214 564 m 1,19,-1
 214 444 l 1,20,-1
 594 444 l 1,21,-1
 594 564 l 1,22,-1
 214 564 l 1,19,-1
EndSplineSet
EndChar

StartChar: C
Encoding: 67 67 13
Width: 822
Flags: MW
HStem: 0 156<163 774 211 774 211 774> 564 156<211 774 211 211>
VStem: 56 155<156 564 156 572 156 613>
LayerCount: 2
Fore
SplineSet
774 564 m 1,0,-1
 211 564 l 1,1,-1
 211 156 l 1,2,-1
 774 156 l 1,3,-1
 774 0 l 1,4,-1
 204 0 l 2,5,6
 142 0 142 0 99 43 c 128,-1,7
 56 86 56 86 56 148 c 2,8,-1
 56 572 l 2,9,10
 56 634 56 634 99 677 c 128,-1,11
 142 720 142 720 204 720 c 2,12,-1
 774 720 l 1,13,-1
 774 564 l 1,0,-1
EndSplineSet
Substitution2: "'salt' Stylistic Alternatives in Latin lookup 2 subtable" C.alt
Substitution2: "'aalt' Access All Alternates in Latin lookup 0 subtable" C.alt
EndChar

StartChar: C.alt
Encoding: 65540 -1 14
Width: 822
Flags: MW
HStem: 0 156<159 616 207 616 207 624> 564 156<207 616 207 207>
VStem: 52 155<156 564 156 572 156 613> 616 157<465 564 564 564>
LayerCount: 2
Fore
SplineSet
773 599 m 1,0,-1
 773 465 l 1,1,-1
 616 465 l 1,2,-1
 616 564 l 1,3,-1
 207 564 l 1,4,-1
 207 156 l 1,5,-1
 616 156 l 1,6,-1
 616 255 l 1,7,-1
 770 255 l 1,8,-1
 770 122 l 1,9,10
 761 70 761 70 719.5 35 c 128,-1,11
 678 0 678 0 624 0 c 2,12,-1
 200 0 l 2,13,14
 138 0 138 0 95 43 c 128,-1,15
 52 86 52 86 52 148 c 2,16,-1
 52 572 l 2,17,18
 52 634 52 634 95 677 c 128,-1,19
 138 720 138 720 200 720 c 2,20,-1
 624 720 l 2,21,22
 677 720 677 720 718.5 685.5 c 128,-1,23
 760 651 760 651 773 599 c 1,0,-1
EndSplineSet
EndChar

StartChar: A.alt
Encoding: 57355 57355 15
Width: 774
Flags: MW
HStem: 0 21G<0 0 0 156 552 552 552 706> 174 153<430 552 430 552 302 552> 700 20G<549 706 706 706>
VStem: 552 154<0 174 174 174 327 471 471 471>
LayerCount: 2
Fore
SplineSet
0 0 m 1,0,-1
 0 50 l 1,1,-1
 549 720 l 1,2,-1
 706 720 l 1,3,-1
 706 0 l 1,4,-1
 552 0 l 1,5,-1
 552 174 l 1,6,-1
 302 174 l 1,7,-1
 156 0 l 1,8,-1
 0 0 l 1,0,-1
552 471 m 1,9,-1
 430 327 l 1,10,-1
 552 327 l 1,11,-1
 552 471 l 1,9,-1
EndSplineSet
EndChar

StartChar: Ccedilla
Encoding: 199 199 16
Width: 822
Flags: MW
HStem: -156 21G<327 484 327 327> 0 156<163 774 211 374 531 774 531 531> 564 156<211 774 211 211>
VStem: 56 155<156 564 156 572 156 613>
LayerCount: 2
Fore
SplineSet
774 564 m 1,0,-1
 211 564 l 1,1,-1
 211 156 l 1,2,-1
 774 156 l 1,3,-1
 774 0 l 1,4,-1
 531 0 l 1,5,-1
 484 -156 l 1,6,-1
 327 -156 l 1,7,-1
 374 0 l 1,8,-1
 204 0 l 2,9,10
 142 0 142 0 99 43 c 128,-1,11
 56 86 56 86 56 148 c 2,12,-1
 56 572 l 2,13,14
 56 634 56 634 99 677 c 128,-1,15
 142 720 142 720 204 720 c 2,16,-1
 774 720 l 1,17,-1
 774 564 l 1,0,-1
EndSplineSet
EndChar

StartChar: D
Encoding: 68 68 17
Width: 834
Flags: MW
HStem: 0 156<213 621 213 629 58 621> 564 156<213 213 213 621>
VStem: 58 155<156 564 156 720> 621 157<156 564 564 564>
LayerCount: 2
Fore
SplineSet
58 720 m 1,0,-1
 629 720 l 2,1,2
 691 720 691 720 734.5 676.5 c 128,-1,3
 778 633 778 633 778 572 c 2,4,-1
 778 148 l 2,5,6
 778 87 778 87 734.5 43.5 c 128,-1,7
 691 0 691 0 629 0 c 2,8,-1
 58 0 l 1,9,-1
 58 720 l 1,0,-1
213 564 m 1,10,-1
 213 156 l 1,11,-1
 621 156 l 1,12,-1
 621 564 l 1,13,-1
 213 564 l 1,10,-1
EndSplineSet
EndChar

StartChar: E
Encoding: 69 69 18
Width: 766
Flags: MW
HStem: 0 156<215 723 215 723> 282 156<215 624 215 624> 564 156<215 723 215 215>
VStem: 58 157<156 282 438 564>
CounterMasks: 1 e0
LayerCount: 2
Fore
SplineSet
723 720 m 1,0,-1
 723 564 l 1,1,-1
 215 564 l 1,2,-1
 215 438 l 1,3,-1
 624 438 l 1,4,-1
 624 282 l 1,5,-1
 215 282 l 1,6,-1
 215 156 l 1,7,-1
 723 156 l 1,8,-1
 723 0 l 1,9,-1
 58 0 l 1,10,-1
 58 720 l 1,11,-1
 723 720 l 1,0,-1
EndSplineSet
EndChar

StartChar: Eacute
Encoding: 201 201 19
Width: 766
Flags: MW
HStem: 0 156<215 723 215 723> 282 156<215 624 215 624> 564 156<215 723 215 215> 770 203<309 517 360 466>
VStem: 58 157<156 282 438 564>
LayerCount: 2
Fore
SplineSet
723 720 m 1,0,-1
 723 564 l 1,1,-1
 215 564 l 1,2,-1
 215 438 l 1,3,-1
 624 438 l 1,4,-1
 624 282 l 1,5,-1
 215 282 l 1,6,-1
 215 156 l 1,7,-1
 723 156 l 1,8,-1
 723 0 l 1,9,-1
 58 0 l 1,10,-1
 58 720 l 1,11,-1
 723 720 l 1,0,-1
309 770 m 1,12,-1
 360 973 l 1,13,-1
 517 973 l 1,14,-1
 466 770 l 1,15,-1
 309 770 l 1,12,-1
EndSplineSet
EndChar

StartChar: Ecircumflex
Encoding: 202 202 20
Width: 766
Flags: MW
HStem: 0 156<215 723 215 723> 282 156<215 624 215 624> 564 156<215 723 215 215> 769 184<341 364 231 441 417 417 417 441 341 551>
VStem: 58 157<156 282 438 564>
LayerCount: 2
Fore
SplineSet
723 720 m 1,0,-1
 723 564 l 1,1,-1
 215 564 l 1,2,-1
 215 438 l 1,3,-1
 624 438 l 1,4,-1
 624 282 l 1,5,-1
 215 282 l 1,6,-1
 215 156 l 1,7,-1
 723 156 l 1,8,-1
 723 0 l 1,9,-1
 58 0 l 1,10,-1
 58 720 l 1,11,-1
 723 720 l 1,0,-1
364 769 m 1,12,-1
 231 769 l 1,13,-1
 341 953 l 1,14,-1
 441 953 l 1,15,-1
 551 769 l 1,16,-1
 417 769 l 1,17,-1
 389 813 l 1,18,-1
 364 769 l 1,12,-1
EndSplineSet
EndChar

StartChar: Edieresis
Encoding: 203 203 21
Width: 766
Flags: MW
HStem: 0 156<215 723 215 723> 282 156<215 624 215 624> 564 156<215 723 215 215> 770 154<214 367 214 367 427 581 214 427>
VStem: 58 157<156 282 438 564> 214 153<770 924 770 924> 427 154<770 924 770 924>
LayerCount: 2
Fore
SplineSet
723 720 m 1,0,-1
 723 564 l 1,1,-1
 215 564 l 1,2,-1
 215 438 l 1,3,-1
 624 438 l 1,4,-1
 624 282 l 1,5,-1
 215 282 l 1,6,-1
 215 156 l 1,7,-1
 723 156 l 1,8,-1
 723 0 l 1,9,-1
 58 0 l 1,10,-1
 58 720 l 1,11,-1
 723 720 l 1,0,-1
581 924 m 1,12,-1
 581 770 l 1,13,-1
 427 770 l 1,14,-1
 427 924 l 1,15,-1
 581 924 l 1,12,-1
367 924 m 1,16,-1
 367 770 l 1,17,-1
 214 770 l 1,18,-1
 214 924 l 1,19,-1
 367 924 l 1,16,-1
EndSplineSet
EndChar

StartChar: Egrave
Encoding: 200 200 22
Width: 766
Flags: MW
HStem: 0 156<215 723 215 723> 282 156<215 624 215 624> 564 156<215 723 215 215> 770 203<330 436 279 487 330 330>
VStem: 58 157<156 282 438 564>
LayerCount: 2
Fore
SplineSet
723 720 m 1,0,-1
 723 564 l 1,1,-1
 215 564 l 1,2,-1
 215 438 l 1,3,-1
 624 438 l 1,4,-1
 624 282 l 1,5,-1
 215 282 l 1,6,-1
 215 156 l 1,7,-1
 723 156 l 1,8,-1
 723 0 l 1,9,-1
 58 0 l 1,10,-1
 58 720 l 1,11,-1
 723 720 l 1,0,-1
436 973 m 1,12,-1
 487 770 l 1,13,-1
 330 770 l 1,14,-1
 279 973 l 1,15,-1
 436 973 l 1,12,-1
EndSplineSet
EndChar

StartChar: Euro
Encoding: 8364 8364 23
Width: 799
Flags: MW
HStem: 0 153<230 739 278 739 278 739> 187 153<35 125 35 125 278 641> 375 153<35 125 35 125 278 641> 567 153<278 739 278 278>
VStem: 125 153<153 187 153 187 153 187 340 375 528 567>
LayerCount: 2
Fore
SplineSet
278 187 m 1,0,-1
 278 153 l 1,1,-1
 739 153 l 1,2,-1
 739 0 l 1,3,-1
 270 0 l 2,4,5
 210 0 210 0 167.5 43 c 128,-1,6
 125 86 125 86 125 145 c 2,7,-1
 125 187 l 1,8,-1
 35 187 l 1,9,-1
 35 340 l 1,10,-1
 125 340 l 1,11,-1
 125 375 l 1,12,-1
 35 375 l 1,13,-1
 35 528 l 1,14,-1
 125 528 l 1,15,-1
 125 575 l 2,16,17
 125 635 125 635 167.5 677.5 c 128,-1,18
 210 720 210 720 270 720 c 2,19,-1
 739 720 l 1,20,-1
 739 567 l 1,21,-1
 278 567 l 1,22,-1
 278 528 l 1,23,-1
 641 528 l 1,24,-1
 641 375 l 1,25,-1
 278 375 l 1,26,-1
 278 340 l 1,27,-1
 641 340 l 1,28,-1
 641 187 l 1,29,-1
 278 187 l 1,0,-1
EndSplineSet
EndChar

StartChar: F
Encoding: 70 70 24
Width: 723
Flags: MW
HStem: 0 21G<58 215 58 58> 282 156<215 624 215 624> 564 156<215 723 215 215>
VStem: 58 157<0 282 438 564>
LayerCount: 2
Fore
SplineSet
58 720 m 1,0,-1
 723 720 l 1,1,-1
 723 564 l 1,2,-1
 215 564 l 1,3,-1
 215 438 l 1,4,-1
 624 438 l 1,5,-1
 624 282 l 1,6,-1
 215 282 l 1,7,-1
 215 0 l 1,8,-1
 58 0 l 1,9,-1
 58 720 l 1,0,-1
EndSplineSet
EndChar

StartChar: G
Encoding: 71 71 25
Width: 830
Flags: MW
HStem: 0 156<163 619 211 619 211 627> 264 156<463 619 463 776> 504 216<619 627 627 668 204 776 619 619> 564 156<211 619 211 211>
VStem: 56 155<156 564 156 572 156 613> 619 157<156 264 264 264 504 564 564 564>
LayerCount: 2
Fore
SplineSet
776 572 m 2,0,-1
 776 504 l 1,1,-1
 619 504 l 1,2,-1
 619 564 l 1,3,-1
 211 564 l 1,4,-1
 211 156 l 1,5,-1
 619 156 l 1,6,-1
 619 264 l 1,7,-1
 463 264 l 1,8,-1
 463 420 l 1,9,-1
 776 420 l 1,10,-1
 776 148 l 2,11,12
 776 87 776 87 732.5 43.5 c 128,-1,13
 689 0 689 0 627 0 c 2,14,-1
 204 0 l 2,15,16
 142 0 142 0 99 43 c 128,-1,17
 56 86 56 86 56 148 c 2,18,-1
 56 572 l 2,19,20
 56 634 56 634 99 677 c 128,-1,21
 142 720 142 720 204 720 c 2,22,-1
 627 720 l 2,23,24
 689 720 689 720 732.5 676.5 c 128,-1,25
 776 633 776 633 776 572 c 2,0,-1
EndSplineSet
EndChar

StartChar: H
Encoding: 72 72 26
Width: 851
Flags: MW
HStem: 0 21G<57 212 57 57 637 792 637 637> 282 156<212 637 212 637> 700 20G<57 212 212 212 637 792 792 792>
VStem: 57 155<0 282 438 720> 637 155<0 282 282 282 438 720 0 720>
LayerCount: 2
Fore
SplineSet
637 720 m 1,0,-1
 792 720 l 1,1,-1
 792 0 l 1,2,-1
 637 0 l 1,3,-1
 637 282 l 1,4,-1
 212 282 l 1,5,-1
 212 0 l 1,6,-1
 57 0 l 1,7,-1
 57 720 l 1,8,-1
 212 720 l 1,9,-1
 212 438 l 1,10,-1
 637 438 l 1,11,-1
 637 720 l 1,0,-1
EndSplineSet
EndChar

StartChar: I
Encoding: 73 73 27
Width: 220
Flags: MW
HStem: 0 21G<57 57 57 213> 700 20G<57 213 213 213>
VStem: 57 156<0 720 0 720>
LayerCount: 2
Fore
SplineSet
57 0 m 1,0,-1
 57 720 l 1,1,-1
 213 720 l 1,2,-1
 213 0 l 1,3,-1
 57 0 l 1,0,-1
EndSplineSet
Substitution2: "'salt' Stylistic Alternatives in Latin lookup 2 subtable" I.alt
Substitution2: "'aalt' Access All Alternates in Latin lookup 0 subtable" I.alt
EndChar

StartChar: I.alt
Encoding: 65541 -1 28
Width: 818
Flags: MW
HStem: 0 156<49 331 487 769 49 331> 564 156<49 331 49 769 487 769 487 487>
VStem: 331 156<156 564 156 564>
LayerCount: 2
Fore
SplineSet
769 720 m 1,0,-1
 769 564 l 1,1,-1
 487 564 l 1,2,-1
 487 156 l 1,3,-1
 769 156 l 1,4,-1
 769 0 l 1,5,-1
 49 0 l 1,6,-1
 49 156 l 1,7,-1
 331 156 l 1,8,-1
 331 564 l 1,9,-1
 49 564 l 1,10,-1
 49 720 l 1,11,-1
 769 720 l 1,0,-1
EndSplineSet
EndChar

StartChar: Iacute
Encoding: 205 205 29
Width: 220
Flags: MW
HStem: 0 21G<42 42 42 198> 700 20G<42 198 198 198> 770 203<36 244 87 193>
VStem: 42 156<0 720 0 720>
LayerCount: 2
Fore
SplineSet
42 0 m 1,0,-1
 42 720 l 1,1,-1
 198 720 l 1,2,-1
 198 0 l 1,3,-1
 42 0 l 1,0,-1
36 770 m 1,4,-1
 87 973 l 1,5,-1
 244 973 l 1,6,-1
 193 770 l 1,7,-1
 36 770 l 1,4,-1
EndSplineSet
EndChar

StartChar: Icircumflex
Encoding: 206 206 30
Width: 220
Flags: MW
HStem: 0 21G<62 62 62 218> 700 20G<62 218 218 218> 769 184<98 121 -12 198 174 174 174 198 98 308>
VStem: 62 156<0 720 0 720>
LayerCount: 2
Fore
SplineSet
62 0 m 1,0,-1
 62 720 l 1,1,-1
 218 720 l 1,2,-1
 218 0 l 1,3,-1
 62 0 l 1,0,-1
121 769 m 1,4,-1
 -12 769 l 1,5,-1
 98 953 l 1,6,-1
 198 953 l 1,7,-1
 308 769 l 1,8,-1
 174 769 l 1,9,-1
 146 813 l 1,10,-1
 121 769 l 1,4,-1
EndSplineSet
EndChar

StartChar: Idieresis
Encoding: 207 207 31
Width: 220
Flags: MW
HStem: 0 21G<74 74 74 230> 700 20G<74 230 230 230> 770 154<-29 124 -29 124 184 338 -29 184>
VStem: -29 153<770 924 770 924> 74 156<0 720 0 720> 184 154<770 924 770 924>
LayerCount: 2
Fore
SplineSet
74 0 m 1,0,-1
 74 720 l 1,1,-1
 230 720 l 1,2,-1
 230 0 l 1,3,-1
 74 0 l 1,0,-1
338 924 m 1,4,-1
 338 770 l 1,5,-1
 184 770 l 1,6,-1
 184 924 l 1,7,-1
 338 924 l 1,4,-1
124 924 m 1,8,-1
 124 770 l 1,9,-1
 -29 770 l 1,10,-1
 -29 924 l 1,11,-1
 124 924 l 1,8,-1
EndSplineSet
EndChar

StartChar: Igrave
Encoding: 204 204 32
Width: 220
Flags: MW
HStem: 0 21G<95 95 95 251> 700 20G<95 251 251 251> 770 203<87 193 36 244 87 87>
VStem: 95 156<0 720 0 720>
LayerCount: 2
Fore
SplineSet
95 0 m 1,0,-1
 95 720 l 1,1,-1
 251 720 l 1,2,-1
 251 0 l 1,3,-1
 95 0 l 1,0,-1
193 973 m 1,4,-1
 244 770 l 1,5,-1
 87 770 l 1,6,-1
 36 973 l 1,7,-1
 193 973 l 1,4,-1
EndSplineSet
EndChar

StartChar: J
Encoding: 74 74 33
Width: 780
Flags: MW
HStem: 0 156<111 567 159 567 159 576> 0 241<111 152 152 159 4 576> 700 20G<567 724 724 724>
VStem: 4 155<156 241 156 241 156 241> 567 157<156 720>
LayerCount: 2
Fore
SplineSet
159 241 m 1,0,-1
 159 156 l 1,1,-1
 567 156 l 1,2,-1
 567 720 l 1,3,-1
 724 720 l 1,4,-1
 724 148 l 2,5,6
 724 87 724 87 680.5 43.5 c 128,-1,7
 637 0 637 0 576 0 c 2,8,-1
 152 0 l 2,9,10
 90 0 90 0 47 43 c 128,-1,11
 4 86 4 86 4 148 c 2,12,-1
 4 241 l 1,13,-1
 159 241 l 1,0,-1
EndSplineSet
Substitution2: "'salt' Stylistic Alternatives in Latin lookup 2 subtable" J.alt
Substitution2: "'aalt' Access All Alternates in Latin lookup 0 subtable" J.alt
EndChar

StartChar: J.alt
Encoding: 65542 -1 34
Width: 645
Flags: MW
HStem: 0 156<3 447 3 447 3 455> 700 20G<447 604 604 604>
VStem: 447 157<156 720>
LayerCount: 2
Fore
SplineSet
3 0 m 1,0,-1
 3 156 l 1,1,-1
 447 156 l 1,2,-1
 447 720 l 1,3,-1
 604 720 l 1,4,-1
 604 148 l 2,5,6
 604 87 604 87 560 43.5 c 128,-1,7
 516 0 516 0 455 0 c 2,8,-1
 3 0 l 1,0,-1
EndSplineSet
EndChar

StartChar: K
Encoding: 75 75 35
Width: 797
Flags: MW
HStem: 0 21G<57 213 57 57 590 752 590 590> 282 156<213 354 213 354> 700 20G<57 213 213 213 590 752 752 752>
VStem: 57 156<0 282 438 720>
LayerCount: 2
Fore
SplineSet
590 720 m 1,0,-1
 752 720 l 1,1,-1
 752 666 l 1,2,-1
 495 360 l 1,3,-1
 752 54 l 1,4,-1
 752 0 l 1,5,-1
 590 0 l 1,6,-1
 354 282 l 1,7,-1
 213 282 l 1,8,-1
 213 0 l 1,9,-1
 57 0 l 1,10,-1
 57 720 l 1,11,-1
 213 720 l 1,12,-1
 213 438 l 1,13,-1
 354 438 l 1,14,-1
 444 545 l 1,15,-1
 590 720 l 1,0,-1
EndSplineSet
Substitution2: "'salt' Stylistic Alternatives in Latin lookup 2 subtable" K.alt
Substitution2: "'aalt' Access All Alternates in Latin lookup 0 subtable" K.alt
EndChar

StartChar: K.alt
Encoding: 65543 -1 36
Width: 829
Flags: MW
HStem: 0 21G<54 209 54 54 617 774 617 617> 279 156<209 617 209 618> 700 20G<54 209 209 209 618 775 775 775>
VStem: 54 155<0 279 435 720> 618 156
LayerCount: 2
Fore
SplineSet
209 720 m 1,0,-1
 209 435 l 1,1,-1
 618 435 l 1,2,-1
 618 720 l 1,3,-1
 775 720 l 1,4,-1
 775 445 l 2,5,6
 775 421 775 421 759.5 397 c 128,-1,7
 744 373 744 373 717 357 c 1,8,9
 774 323 774 323 774 269 c 2,10,-1
 774 0 l 1,11,-1
 617 0 l 1,12,-1
 617 279 l 1,13,-1
 209 279 l 1,14,-1
 209 0 l 1,15,-1
 54 0 l 1,16,-1
 54 720 l 1,17,-1
 209 720 l 1,0,-1
EndSplineSet
EndChar

StartChar: L
Encoding: 76 76 37
Width: 779
Flags: MW
HStem: 0 156<57 777 212 777 212 777> 701 20G<57 212 212 212>
VStem: 57 155<156 721 156 721 156 721>
LayerCount: 2
Fore
SplineSet
57 0 m 1,0,-1
 57 721 l 1,1,-1
 212 721 l 1,2,-1
 212 156 l 1,3,-1
 777 156 l 1,4,-1
 777 0 l 1,5,-1
 57 0 l 1,0,-1
EndSplineSet
EndChar

StartChar: M
Encoding: 77 77 38
Width: 928
Flags: MW
HStem: 0 21G<56 211 56 56 708 864 708 708> 700 20G<56 216 216 216 703 864 864 864>
VStem: 56 155<0 482 0 720> 708 156<0 483 483 483>
LayerCount: 2
Fore
SplineSet
460 429 m 1,0,-1
 703 720 l 1,1,-1
 864 720 l 1,2,-1
 864 0 l 1,3,-1
 708 0 l 1,4,-1
 708 483 l 1,5,-1
 460 187 l 1,6,-1
 211 482 l 1,7,-1
 211 0 l 1,8,-1
 56 0 l 1,9,-1
 56 720 l 1,10,-1
 216 720 l 1,11,-1
 460 429 l 1,0,-1
EndSplineSet
Substitution2: "'salt' Stylistic Alternatives in Latin lookup 2 subtable" M.alt
Substitution2: "'aalt' Access All Alternates in Latin lookup 0 subtable" M.alt
EndChar

StartChar: M.alt
Encoding: 65544 -1 39
Width: 1155
Flags: MW
HStem: 0 21G<54 209 54 54 476 632 476 476 920 1076 920 920> 564 156<209 476 209 209 632 920 632 632>
VStem: 54 155<0 564 0 720> 476 156<0 564 0 564> 920 156<0 564 564 564>
LayerCount: 2
Fore
SplineSet
929 720 m 2,0,1
 989 720 989 720 1032.5 676.5 c 128,-1,2
 1076 633 1076 633 1076 572 c 2,3,-1
 1076 0 l 1,4,-1
 920 0 l 1,5,-1
 920 564 l 1,6,-1
 632 564 l 1,7,-1
 632 0 l 1,8,-1
 476 0 l 1,9,-1
 476 564 l 1,10,-1
 209 564 l 1,11,-1
 209 0 l 1,12,-1
 54 0 l 1,13,-1
 54 720 l 1,14,-1
 929 720 l 2,0,1
EndSplineSet
EndChar

StartChar: N
Encoding: 78 78 40
Width: 832
Flags: MW
HStem: 0 21G<56 211 56 56 616 776 616 616> 700 20G<56 216 216 216 619 776 776 776>
VStem: 56 155<0 482 0 720> 619 157<240 720 0 720>
LayerCount: 2
Fore
SplineSet
619 240 m 1,0,-1
 619 720 l 1,1,-1
 776 720 l 1,2,-1
 776 0 l 1,3,-1
 616 0 l 1,4,-1
 211 482 l 1,5,-1
 211 0 l 1,6,-1
 56 0 l 1,7,-1
 56 720 l 1,8,-1
 216 720 l 1,9,-1
 619 240 l 1,0,-1
EndSplineSet
Substitution2: "'salt' Stylistic Alternatives in Latin lookup 2 subtable" N.alt
Substitution2: "'aalt' Access All Alternates in Latin lookup 0 subtable" N.alt
EndChar

StartChar: N.alt
Encoding: 65545 -1 41
Width: 827
Flags: MW
HStem: 0 21G<54 209 54 54 617 617 617 774> 564 156<209 617 209 209>
VStem: 54 155<0 564> 617 157<0 564 564 564>
LayerCount: 2
Fore
SplineSet
209 0 m 1,0,-1
 54 0 l 1,1,-1
 54 720 l 1,2,-1
 626 720 l 2,3,4
 687 720 687 720 730.5 676.5 c 128,-1,5
 774 633 774 633 774 572 c 2,6,-1
 774 0 l 1,7,-1
 617 0 l 1,8,-1
 617 564 l 1,9,-1
 209 564 l 1,10,-1
 209 0 l 1,0,-1
EndSplineSet
EndChar

StartChar: Ntilde
Encoding: 209 209 42
Width: 832
Flags: MW
HStem: 0 21G<56 211 56 56 616 776 616 616> 700 20G<56 216 216 216 619 776 776 776> 774 177<300 513> 836 115<300 304 304 315>
VStem: 56 155<0 482 0 720> 619 157<240 720 0 720>
LayerCount: 2
Fore
SplineSet
619 240 m 1,0,-1
 619 720 l 1,1,-1
 776 720 l 1,2,-1
 776 0 l 1,3,-1
 616 0 l 1,4,-1
 211 482 l 1,5,-1
 211 0 l 1,6,-1
 56 0 l 1,7,-1
 56 720 l 1,8,-1
 216 720 l 1,9,-1
 619 240 l 1,0,-1
499 889 m 1,10,11
 538 889 538 889 595 926 c 1,12,-1
 595 800 l 1,13,14
 533 774 533 774 496 774 c 128,-1,15
 459 774 459 774 401.5 805 c 128,-1,16
 344 836 344 836 315 836 c 2,17,-1
 304 836 l 2,18,19
 262 836 262 836 220 800 c 1,20,-1
 220 924 l 1,21,22
 288 951 288 951 315 951 c 0,23,24
 352 951 352 951 410 922 c 128,-1,25
 468 893 468 893 499 889 c 1,10,11
EndSplineSet
EndChar

StartChar: O
Encoding: 79 79 43
Width: 828
Flags: MW
HStem: 0 156<161 617 209 617 209 626> 564 156<209 209 209 617>
VStem: 54 155<156 564 156 572 156 613> 617 157<156 564 564 564>
LayerCount: 2
Fore
SplineSet
202 720 m 2,0,-1
 626 720 l 2,1,2
 687 720 687 720 730.5 676.5 c 128,-1,3
 774 633 774 633 774 572 c 2,4,-1
 774 148 l 2,5,6
 774 87 774 87 730.5 43.5 c 128,-1,7
 687 0 687 0 626 0 c 2,8,-1
 202 0 l 2,9,10
 140 0 140 0 97 43 c 128,-1,11
 54 86 54 86 54 148 c 2,12,-1
 54 572 l 2,13,14
 54 634 54 634 97 677 c 128,-1,15
 140 720 140 720 202 720 c 2,0,-1
209 564 m 1,16,-1
 209 156 l 1,17,-1
 617 156 l 1,18,-1
 617 564 l 1,19,-1
 209 564 l 1,16,-1
EndSplineSet
Substitution2: "'salt' Stylistic Alternatives in Latin lookup 2 subtable" O.alt
Substitution2: "'aalt' Access All Alternates in Latin lookup 0 subtable" O.alt
EndChar

StartChar: O.alt
Encoding: 65546 -1 44
Width: 824
Flags: MW
HStem: 0 156<159 615 207 615 207 624> 282 156<334 490 334 490> 564 156<207 207 207 615>
VStem: 52 155<156 564 156 572 156 613> 334 156<282 438> 615 157<156 564 564 564>
CounterMasks: 1 e0
LayerCount: 2
Fore
SplineSet
200 720 m 2,0,-1
 624 720 l 2,1,2
 685 720 685 720 728.5 676.5 c 128,-1,3
 772 633 772 633 772 572 c 2,4,-1
 772 148 l 2,5,6
 772 87 772 87 728.5 43.5 c 128,-1,7
 685 0 685 0 624 0 c 2,8,-1
 200 0 l 2,9,10
 138 0 138 0 95 43 c 128,-1,11
 52 86 52 86 52 148 c 2,12,-1
 52 572 l 2,13,14
 52 634 52 634 95 677 c 128,-1,15
 138 720 138 720 200 720 c 2,0,-1
207 564 m 1,16,-1
 207 156 l 1,17,-1
 615 156 l 1,18,-1
 615 564 l 1,19,-1
 207 564 l 1,16,-1
490 282 m 1,20,-1
 334 282 l 1,21,-1
 334 438 l 1,22,-1
 490 438 l 1,23,-1
 490 282 l 1,20,-1
EndSplineSet
EndChar

StartChar: OE
Encoding: 338 338 45
Width: 1374
Flags: MW
HStem: 0 156<160.5 618 210 618 773 1282> 282 156<773 1182 773 1182> 564 156<210 210 210 618 773 773 773 1282>
VStem: 53 157<156 564 156 572 156 613> 618 155<156 282 438 564>
CounterMasks: 1 e0
LayerCount: 2
Fore
SplineSet
773 564 m 1,0,-1
 773 438 l 1,1,-1
 1182 438 l 1,2,-1
 1182 282 l 1,3,-1
 773 282 l 1,4,-1
 773 156 l 1,5,-1
 1282 156 l 1,6,-1
 1282 0 l 1,7,-1
 201 0 l 2,8,9
 140 0 140 0 96.5 43.5 c 128,-1,10
 53 87 53 87 53 148 c 2,11,-1
 53 572 l 2,12,13
 53 633 53 633 96.5 676.5 c 128,-1,14
 140 720 140 720 201 720 c 2,15,-1
 1282 720 l 1,16,-1
 1282 564 l 1,17,-1
 773 564 l 1,0,-1
210 564 m 1,18,-1
 210 156 l 1,19,-1
 618 156 l 1,20,-1
 618 564 l 1,21,-1
 210 564 l 1,18,-1
EndSplineSet
EndChar

StartChar: Oacute
Encoding: 211 211 46
Width: 828
Flags: MW
HStem: 0 156<161 617 209 617 209 626> 564 156<209 209 209 617> 770 203<340 548 391 497>
VStem: 54 155<156 564 156 572 156 613> 617 157<156 564 564 564>
LayerCount: 2
Fore
SplineSet
202 720 m 2,0,-1
 626 720 l 2,1,2
 687 720 687 720 730.5 676.5 c 128,-1,3
 774 633 774 633 774 572 c 2,4,-1
 774 148 l 2,5,6
 774 87 774 87 730.5 43.5 c 128,-1,7
 687 0 687 0 626 0 c 2,8,-1
 202 0 l 2,9,10
 140 0 140 0 97 43 c 128,-1,11
 54 86 54 86 54 148 c 2,12,-1
 54 572 l 2,13,14
 54 634 54 634 97 677 c 128,-1,15
 140 720 140 720 202 720 c 2,0,-1
209 564 m 1,16,-1
 209 156 l 1,17,-1
 617 156 l 1,18,-1
 617 564 l 1,19,-1
 209 564 l 1,16,-1
340 770 m 1,20,-1
 391 973 l 1,21,-1
 548 973 l 1,22,-1
 497 770 l 1,23,-1
 340 770 l 1,20,-1
EndSplineSet
EndChar

StartChar: Ocircumflex
Encoding: 212 212 47
Width: 828
Flags: MW
HStem: 0 156<161 617 209 617 209 626> 564 156<209 209 209 617> 769 184<372 395 262 472 448 448 448 472 372 582>
VStem: 54 155<156 564 156 572 156 613> 617 157<156 564 564 564>
LayerCount: 2
Fore
SplineSet
202 720 m 2,0,-1
 626 720 l 2,1,2
 687 720 687 720 730.5 676.5 c 128,-1,3
 774 633 774 633 774 572 c 2,4,-1
 774 148 l 2,5,6
 774 87 774 87 730.5 43.5 c 128,-1,7
 687 0 687 0 626 0 c 2,8,-1
 202 0 l 2,9,10
 140 0 140 0 97 43 c 128,-1,11
 54 86 54 86 54 148 c 2,12,-1
 54 572 l 2,13,14
 54 634 54 634 97 677 c 128,-1,15
 140 720 140 720 202 720 c 2,0,-1
209 564 m 1,16,-1
 209 156 l 1,17,-1
 617 156 l 1,18,-1
 617 564 l 1,19,-1
 209 564 l 1,16,-1
395 769 m 1,20,-1
 262 769 l 1,21,-1
 372 953 l 1,22,-1
 472 953 l 1,23,-1
 582 769 l 1,24,-1
 448 769 l 1,25,-1
 420 813 l 1,26,-1
 395 769 l 1,20,-1
EndSplineSet
EndChar

StartChar: Odieresis
Encoding: 214 214 48
Width: 828
Flags: MW
HStem: 0 156<161 617 209 617 209 626> 564 156<209 209 209 617> 770 154<235 388 235 388 448 602 235 448>
VStem: 54 155<156 564 156 572 156 613> 235 153<770 924 770 924> 448 154<770 924 770 924> 617 157<156 564 564 564>
LayerCount: 2
Fore
SplineSet
202 720 m 2,0,-1
 626 720 l 2,1,2
 687 720 687 720 730.5 676.5 c 128,-1,3
 774 633 774 633 774 572 c 2,4,-1
 774 148 l 2,5,6
 774 87 774 87 730.5 43.5 c 128,-1,7
 687 0 687 0 626 0 c 2,8,-1
 202 0 l 2,9,10
 140 0 140 0 97 43 c 128,-1,11
 54 86 54 86 54 148 c 2,12,-1
 54 572 l 2,13,14
 54 634 54 634 97 677 c 128,-1,15
 140 720 140 720 202 720 c 2,0,-1
209 564 m 1,16,-1
 209 156 l 1,17,-1
 617 156 l 1,18,-1
 617 564 l 1,19,-1
 209 564 l 1,16,-1
602 924 m 1,20,-1
 602 770 l 1,21,-1
 448 770 l 1,22,-1
 448 924 l 1,23,-1
 602 924 l 1,20,-1
388 924 m 1,24,-1
 388 770 l 1,25,-1
 235 770 l 1,26,-1
 235 924 l 1,27,-1
 388 924 l 1,24,-1
EndSplineSet
EndChar

StartChar: Ograve
Encoding: 210 210 49
Width: 828
Flags: MW
HStem: 0 156<161 617 209 617 209 626> 564 156<209 209 209 617> 770 203<351 457 300 508 351 351>
VStem: 54 155<156 564 156 572 156 613> 617 157<156 564 564 564>
LayerCount: 2
Fore
SplineSet
202 720 m 2,0,-1
 626 720 l 2,1,2
 687 720 687 720 730.5 676.5 c 128,-1,3
 774 633 774 633 774 572 c 2,4,-1
 774 148 l 2,5,6
 774 87 774 87 730.5 43.5 c 128,-1,7
 687 0 687 0 626 0 c 2,8,-1
 202 0 l 2,9,10
 140 0 140 0 97 43 c 128,-1,11
 54 86 54 86 54 148 c 2,12,-1
 54 572 l 2,13,14
 54 634 54 634 97 677 c 128,-1,15
 140 720 140 720 202 720 c 2,0,-1
209 564 m 1,16,-1
 209 156 l 1,17,-1
 617 156 l 1,18,-1
 617 564 l 1,19,-1
 209 564 l 1,16,-1
457 973 m 1,20,-1
 508 770 l 1,21,-1
 351 770 l 1,22,-1
 300 973 l 1,23,-1
 457 973 l 1,20,-1
EndSplineSet
EndChar

StartChar: Otilde
Encoding: 213 213 50
Width: 828
Flags: MW
HStem: 0 156<161 617 209 617 209 626> 564 156<209 209 209 617> 774 177<288 501> 836 115<288 292 292 303>
VStem: 54 155<156 564 156 572 156 613> 617 157<156 564 564 564>
LayerCount: 2
Fore
SplineSet
202 720 m 2,0,-1
 626 720 l 2,1,2
 687 720 687 720 730.5 676.5 c 128,-1,3
 774 633 774 633 774 572 c 2,4,-1
 774 148 l 2,5,6
 774 87 774 87 730.5 43.5 c 128,-1,7
 687 0 687 0 626 0 c 2,8,-1
 202 0 l 2,9,10
 140 0 140 0 97 43 c 128,-1,11
 54 86 54 86 54 148 c 2,12,-1
 54 572 l 2,13,14
 54 634 54 634 97 677 c 128,-1,15
 140 720 140 720 202 720 c 2,0,-1
209 564 m 1,16,-1
 209 156 l 1,17,-1
 617 156 l 1,18,-1
 617 564 l 1,19,-1
 209 564 l 1,16,-1
487 889 m 1,20,21
 526 889 526 889 583 926 c 1,22,-1
 583 800 l 1,23,24
 521 774 521 774 484 774 c 128,-1,25
 447 774 447 774 389.5 805 c 128,-1,26
 332 836 332 836 303 836 c 2,27,-1
 292 836 l 2,28,29
 250 836 250 836 208 800 c 1,30,-1
 208 924 l 1,31,32
 276 951 276 951 303 951 c 0,33,34
 340 951 340 951 398 922 c 128,-1,35
 456 893 456 893 487 889 c 1,20,21
EndSplineSet
EndChar

StartChar: P
Encoding: 80 80 51
Width: 791
Flags: MW
HStem: 0 21G<56 211 56 56> 236 157<211 212> 564 155<211 211 211 619>
VStem: 56 155<0 231 0 236 393 564> 619 157<393 564 564 564>
LayerCount: 2
Fore
SplineSet
56 719 m 1,0,-1
 627 719 l 2,1,2
 688 719 688 719 732 675.5 c 128,-1,3
 776 632 776 632 776 571 c 2,4,-1
 776 385 l 2,5,6
 776 324 776 324 732 280.5 c 128,-1,7
 688 237 688 237 627 237 c 2,8,-1
 211 236 l 2,9,10
 214 236 214 236 214 230 c 1,11,12
 212 230 212 230 211 231 c 1,13,-1
 211 0 l 1,14,-1
 56 0 l 1,15,-1
 56 719 l 1,0,-1
211 564 m 1,16,-1
 211 393 l 1,17,-1
 619 393 l 1,18,-1
 619 564 l 1,19,-1
 211 564 l 1,16,-1
EndSplineSet
EndChar

StartChar: Q
Encoding: 81 81 52
Width: 884
Flags: MW
HStem: 0 156<161 617 209 617 774 856> 564 156<209 209 209 617>
VStem: 54 155<156 564 156 572 156 613> 617 157<156 564 564 564>
LayerCount: 2
Fore
SplineSet
774 572 m 2,0,-1
 774 156 l 1,1,-1
 856 156 l 1,2,-1
 856 0 l 1,3,-1
 202 0 l 2,4,5
 140 0 140 0 97 43 c 128,-1,6
 54 86 54 86 54 148 c 2,7,-1
 54 572 l 2,8,9
 54 634 54 634 97 677 c 128,-1,10
 140 720 140 720 202 720 c 2,11,-1
 625 720 l 2,12,13
 687 720 687 720 730.5 676.5 c 128,-1,14
 774 633 774 633 774 572 c 2,0,-1
209 564 m 1,15,-1
 209 156 l 1,16,-1
 617 156 l 1,17,-1
 617 564 l 1,18,-1
 209 564 l 1,15,-1
EndSplineSet
Substitution2: "'salt' Stylistic Alternatives in Latin lookup 2 subtable" Q.alt
Substitution2: "'aalt' Access All Alternates in Latin lookup 0 subtable" Q.alt
EndChar

StartChar: Q.alt
Encoding: 65547 -1 53
Width: 868
Flags: MW
HStem: -120 21G<335 492 335 335> 0 156<161 617 209 335 492 617 209 626 492 492> 564 156<209 209 209 617>
VStem: 54 155<156 564 156 572 156 613> 335 157<-120 0 -120 0> 617 157<156 564 564 564>
LayerCount: 2
Fore
SplineSet
626 720 m 2,0,1
 687 720 687 720 730.5 676.5 c 128,-1,2
 774 633 774 633 774 572 c 2,3,-1
 774 148 l 2,4,5
 774 87 774 87 730.5 43.5 c 128,-1,6
 687 0 687 0 626 0 c 2,7,-1
 492 0 l 1,8,-1
 492 -120 l 1,9,-1
 335 -120 l 1,10,-1
 335 0 l 1,11,-1
 202 0 l 2,12,13
 140 0 140 0 97 43 c 128,-1,14
 54 86 54 86 54 148 c 2,15,-1
 54 572 l 2,16,17
 54 634 54 634 97 677 c 128,-1,18
 140 720 140 720 202 720 c 2,19,-1
 626 720 l 2,0,1
209 564 m 1,20,-1
 209 156 l 1,21,-1
 617 156 l 1,22,-1
 617 564 l 1,23,-1
 209 564 l 1,20,-1
EndSplineSet
EndChar

StartChar: R
Encoding: 82 82 54
Width: 825
Flags: MW
HStem: 0 21G<55 210 55 55 615 775 615 615> 236 157<210 211> 564 155<210 210 210 618>
VStem: 55 155<0 231 0 236 393 564> 618 157<393 564 564 564>
LayerCount: 2
Fore
SplineSet
775 571 m 2,0,-1
 775 385 l 2,1,2
 775 324 775 324 731 280.5 c 128,-1,3
 687 237 687 237 626 237 c 2,4,-1
 619 237 l 1,5,-1
 775 53 l 1,6,-1
 775 0 l 1,7,-1
 615 0 l 1,8,-1
 416 237 l 1,9,-1
 210 236 l 2,10,11
 213 236 213 236 213 230 c 1,12,13
 211 230 211 230 210 231 c 1,14,-1
 210 0 l 1,15,-1
 55 0 l 1,16,-1
 55 719 l 1,17,-1
 626 719 l 2,18,19
 687 719 687 719 731 675.5 c 128,-1,20
 775 632 775 632 775 571 c 2,0,-1
210 564 m 1,21,-1
 210 393 l 1,22,-1
 618 393 l 1,23,-1
 618 564 l 1,24,-1
 210 564 l 1,21,-1
EndSplineSet
Substitution2: "'salt' Stylistic Alternatives in Latin lookup 2 subtable" R.alt
Substitution2: "'aalt' Access All Alternates in Latin lookup 0 subtable" R.alt
EndChar

StartChar: R.alt
Encoding: 65548 -1 55
Width: 826
Flags: MW
HStem: 0 21G<54 209 54 54 617 774 617 617> 237 156<209 617 209 617> 564 156<209 666.5> 701 20G<54 54>
VStem: 54 155<0 237 393 564> 617 157<0 237 237 237 393 564 564 564>
LayerCount: 2
Fore
SplineSet
774 571 m 2,0,-1
 774 385 l 2,1,2
 774 340 774 340 740 315 c 1,3,4
 774 291 774 291 774 245 c 2,5,-1
 774 0 l 1,6,-1
 617 0 l 1,7,-1
 617 237 l 1,8,-1
 209 237 l 1,9,-1
 209 0 l 1,10,-1
 54 0 l 1,11,-1
 54 721 l 1,12,-1
 626 720 l 2,13,14
 687 720 687 720 730.5 676 c 128,-1,15
 774 632 774 632 774 571 c 2,0,-1
209 564 m 1,16,-1
 209 393 l 1,17,-1
 617 393 l 1,18,-1
 617 564 l 1,19,-1
 209 564 l 1,16,-1
EndSplineSet
EndChar

StartChar: S
Encoding: 83 83 56
Width: 822
Flags: MW
HStem: 0 156<158 614 206 614 206 623> 0 215<158 199 199 206 51 623> 282 156<158 623 206 614> 505 215<614 623 623 663.5 199 771 614 614> 564 156<206 614 206 206>
VStem: 51 155<156 215 156 215 156 215 438 564> 614 157<156 282 282 282 505 564 564 564>
LayerCount: 2
Fore
SplineSet
771 572 m 2,0,-1
 771 505 l 1,1,-1
 614 505 l 1,2,-1
 614 564 l 1,3,-1
 206 564 l 1,4,-1
 206 438 l 1,5,-1
 623 438 l 2,6,7
 684 438 684 438 727.5 394.5 c 128,-1,8
 771 351 771 351 771 290 c 2,9,-1
 771 148 l 2,10,11
 771 87 771 87 727.5 43.5 c 128,-1,12
 684 0 684 0 623 0 c 2,13,-1
 199 0 l 2,14,15
 138 0 138 0 94.5 43 c 128,-1,16
 51 86 51 86 51 148 c 2,17,-1
 51 215 l 1,18,-1
 206 215 l 1,19,-1
 206 156 l 1,20,-1
 614 156 l 1,21,-1
 614 282 l 1,22,-1
 199 282 l 2,23,24
 138 282 138 282 94.5 325 c 128,-1,25
 51 368 51 368 51 430 c 2,26,-1
 51 572 l 2,27,28
 51 634 51 634 94.5 677 c 128,-1,29
 138 720 138 720 199 720 c 2,30,-1
 623 720 l 2,31,32
 684 720 684 720 727.5 676.5 c 128,-1,33
 771 633 771 633 771 572 c 2,0,-1
EndSplineSet
Substitution2: "'salt' Stylistic Alternatives in Latin lookup 2 subtable" S.alt
Substitution2: "'aalt' Access All Alternates in Latin lookup 0 subtable" S.alt
EndChar

StartChar: S.alt
Encoding: 65549 -1 57
Width: 812
Flags: MW
HStem: 0 156<46 610 46 618 46 610> 282 156<153 618 202 610> 564 156<202 766 202 202>
VStem: 46 156<438 564 438 572 438 613> 610 156<156 282 282 282>
CounterMasks: 1 e0
LayerCount: 2
Fore
SplineSet
766 564 m 1,0,-1
 202 564 l 1,1,-1
 202 438 l 1,2,-1
 618 438 l 2,3,4
 679 438 679 438 722.5 394.5 c 128,-1,5
 766 351 766 351 766 290 c 2,6,-1
 766 148 l 2,7,8
 766 87 766 87 722.5 43.5 c 128,-1,9
 679 0 679 0 618 0 c 2,10,-1
 46 0 l 1,11,-1
 46 156 l 1,12,-1
 610 156 l 1,13,-1
 610 282 l 1,14,-1
 194 282 l 2,15,16
 132 282 132 282 89 325 c 128,-1,17
 46 368 46 368 46 430 c 2,18,-1
 46 572 l 2,19,20
 46 634 46 634 89 677 c 128,-1,21
 132 720 132 720 194 720 c 2,22,-1
 766 720 l 1,23,-1
 766 564 l 1,0,-1
EndSplineSet
EndChar

StartChar: Scaron
Encoding: 352 352 58
Width: 822
Flags: MW
HStem: 0 156<158 614 206 614 206 623> 0 215<158 199 199 206 51 623> 282 156<158 623 206 614> 505 215<614 623 623 663.5 199 771 614 614> 564 156<206 614 206 206> 769 184<369 390 444 469 369 369>
VStem: 51 155<156 215 156 215 156 215 438 564> 614 157<156 282 282 282 505 564 564 564>
LayerCount: 2
Fore
SplineSet
771 572 m 2,0,-1
 771 505 l 1,1,-1
 614 505 l 1,2,-1
 614 564 l 1,3,-1
 206 564 l 1,4,-1
 206 438 l 1,5,-1
 623 438 l 2,6,7
 684 438 684 438 727.5 394.5 c 128,-1,8
 771 351 771 351 771 290 c 2,9,-1
 771 148 l 2,10,11
 771 87 771 87 727.5 43.5 c 128,-1,12
 684 0 684 0 623 0 c 2,13,-1
 199 0 l 2,14,15
 138 0 138 0 94.5 43 c 128,-1,16
 51 86 51 86 51 148 c 2,17,-1
 51 215 l 1,18,-1
 206 215 l 1,19,-1
 206 156 l 1,20,-1
 614 156 l 1,21,-1
 614 282 l 1,22,-1
 199 282 l 2,23,24
 138 282 138 282 94.5 325 c 128,-1,25
 51 368 51 368 51 430 c 2,26,-1
 51 572 l 2,27,28
 51 634 51 634 94.5 677 c 128,-1,29
 138 720 138 720 199 720 c 2,30,-1
 623 720 l 2,31,32
 684 720 684 720 727.5 676.5 c 128,-1,33
 771 633 771 633 771 572 c 2,0,-1
259 953 m 1,34,-1
 390 953 l 1,35,-1
 417 909 l 1,36,-1
 444 953 l 1,37,-1
 579 953 l 1,38,-1
 469 769 l 1,39,-1
 369 769 l 1,40,-1
 259 953 l 1,34,-1
EndSplineSet
EndChar

StartChar: T
Encoding: 84 84 59
Width: 759
Flags: MW
HStem: 0 21G<302 458 302 302> 564 156<20 302 20 740 458 740 458 458>
VStem: 302 156<0 564 0 564>
LayerCount: 2
Fore
SplineSet
20 720 m 1,0,-1
 740 720 l 1,1,-1
 740 564 l 1,2,-1
 458 564 l 1,3,-1
 458 0 l 1,4,-1
 302 0 l 1,5,-1
 302 564 l 1,6,-1
 20 564 l 1,7,-1
 20 720 l 1,0,-1
EndSplineSet
EndChar

StartChar: U
Encoding: 85 85 60
Width: 828
Flags: MW
HStem: 0 156<161 617 209 617 209 626> 700 20G<54 209 209 209 617 774 774 774>
VStem: 54 155<156 720 156 720 156 720> 617 157<156 720>
LayerCount: 2
Fore
SplineSet
209 720 m 1,0,-1
 209 156 l 1,1,-1
 617 156 l 1,2,-1
 617 720 l 1,3,-1
 774 720 l 1,4,-1
 774 148 l 2,5,6
 774 87 774 87 730.5 43.5 c 128,-1,7
 687 0 687 0 626 0 c 2,8,-1
 202 0 l 2,9,10
 140 0 140 0 97 43 c 128,-1,11
 54 86 54 86 54 148 c 2,12,-1
 54 720 l 1,13,-1
 209 720 l 1,0,-1
EndSplineSet
EndChar

StartChar: Uacute
Encoding: 218 218 61
Width: 828
Flags: MW
HStem: 0 156<161 617 209 617 209 626> 700 20G<54 209 209 209 617 774 774 774> 770 203<320 528 371 477>
VStem: 54 155<156 720 156 720 156 720> 617 157<156 720>
LayerCount: 2
Fore
SplineSet
209 720 m 1,0,-1
 209 156 l 1,1,-1
 617 156 l 1,2,-1
 617 720 l 1,3,-1
 774 720 l 1,4,-1
 774 148 l 2,5,6
 774 87 774 87 730.5 43.5 c 128,-1,7
 687 0 687 0 626 0 c 2,8,-1
 202 0 l 2,9,10
 140 0 140 0 97 43 c 128,-1,11
 54 86 54 86 54 148 c 2,12,-1
 54 720 l 1,13,-1
 209 720 l 1,0,-1
320 770 m 1,14,-1
 371 973 l 1,15,-1
 528 973 l 1,16,-1
 477 770 l 1,17,-1
 320 770 l 1,14,-1
EndSplineSet
EndChar

StartChar: Ucircumflex
Encoding: 219 219 62
Width: 828
Flags: MW
HStem: 0 156<161 617 209 617 209 626> 700 20G<54 209 209 209 617 774 774 774> 769 184<372 395 262 472 448 448 448 472 372 582>
VStem: 54 155<156 720 156 720 156 720> 617 157<156 720>
LayerCount: 2
Fore
SplineSet
209 720 m 1,0,-1
 209 156 l 1,1,-1
 617 156 l 1,2,-1
 617 720 l 1,3,-1
 774 720 l 1,4,-1
 774 148 l 2,5,6
 774 87 774 87 730.5 43.5 c 128,-1,7
 687 0 687 0 626 0 c 2,8,-1
 202 0 l 2,9,10
 140 0 140 0 97 43 c 128,-1,11
 54 86 54 86 54 148 c 2,12,-1
 54 720 l 1,13,-1
 209 720 l 1,0,-1
395 769 m 1,14,-1
 262 769 l 1,15,-1
 372 953 l 1,16,-1
 472 953 l 1,17,-1
 582 769 l 1,18,-1
 448 769 l 1,19,-1
 420 813 l 1,20,-1
 395 769 l 1,14,-1
EndSplineSet
EndChar

StartChar: Udieresis
Encoding: 220 220 63
Width: 828
Flags: MW
HStem: 0 156<161 617 209 617 209 626> 700 20G<54 209 209 209 617 774 774 774> 770 154<235 388 235 388 448 602 235 448>
VStem: 54 155<156 720 156 720 156 720> 235 153<770 924 770 924> 448 154<770 924 770 924> 617 157<156 720>
LayerCount: 2
Fore
SplineSet
209 720 m 1,0,-1
 209 156 l 1,1,-1
 617 156 l 1,2,-1
 617 720 l 1,3,-1
 774 720 l 1,4,-1
 774 148 l 2,5,6
 774 87 774 87 730.5 43.5 c 128,-1,7
 687 0 687 0 626 0 c 2,8,-1
 202 0 l 2,9,10
 140 0 140 0 97 43 c 128,-1,11
 54 86 54 86 54 148 c 2,12,-1
 54 720 l 1,13,-1
 209 720 l 1,0,-1
602 924 m 1,14,-1
 602 770 l 1,15,-1
 448 770 l 1,16,-1
 448 924 l 1,17,-1
 602 924 l 1,14,-1
388 924 m 1,18,-1
 388 770 l 1,19,-1
 235 770 l 1,20,-1
 235 924 l 1,21,-1
 388 924 l 1,18,-1
EndSplineSet
EndChar

StartChar: Ugrave
Encoding: 217 217 64
Width: 828
Flags: MW
HStem: 0 156<161 617 209 617 209 626> 700 20G<54 209 209 209 617 774 774 774> 770 203<351 457 300 508 351 351>
VStem: 54 155<156 720 156 720 156 720> 617 157<156 720>
LayerCount: 2
Fore
SplineSet
209 720 m 1,0,-1
 209 156 l 1,1,-1
 617 156 l 1,2,-1
 617 720 l 1,3,-1
 774 720 l 1,4,-1
 774 148 l 2,5,6
 774 87 774 87 730.5 43.5 c 128,-1,7
 687 0 687 0 626 0 c 2,8,-1
 202 0 l 2,9,10
 140 0 140 0 97 43 c 128,-1,11
 54 86 54 86 54 148 c 2,12,-1
 54 720 l 1,13,-1
 209 720 l 1,0,-1
457 973 m 1,14,-1
 508 770 l 1,15,-1
 351 770 l 1,16,-1
 300 973 l 1,17,-1
 457 973 l 1,14,-1
EndSplineSet
EndChar

StartChar: V
Encoding: 86 86 65
Width: 1003
Flags: MW
HStem: 0 21G<452 581 452 452> 700 20G<35 215 215 215 819 998 998 998>
LayerCount: 2
Fore
SplineSet
517 197 m 1,0,-1
 819 720 l 1,1,-1
 998 720 l 1,2,-1
 581 0 l 1,3,-1
 452 0 l 1,4,-1
 35 720 l 1,5,-1
 215 720 l 1,6,-1
 517 197 l 1,0,-1
EndSplineSet
Substitution2: "'ss02' Style Set 2 in Latin lookup 5 subtable" V.alt2
Substitution2: "'ss01' Style Set 1 in Latin lookup 4 subtable" V.alt
Substitution2: "'salt' Stylistic Alternatives in Latin lookup 2 subtable" V.alt3
AlternateSubs2: "'aalt' Access All Alternates in Latin lookup 1 subtable" V.alt3 V.alt V.alt2
EndChar

StartChar: V.alt
Encoding: 57354 57354 66
Width: 774
Flags: MW
HStem: 0 21G<54 211 54 54> 700 20G<54 207 207 207 605 761 761 761>
VStem: 54 153<234 720 234 720 234 720>
LayerCount: 2
Fore
SplineSet
54 720 m 1,0,-1
 207 720 l 1,1,-1
 207 234 l 1,2,-1
 605 720 l 1,3,-1
 761 720 l 1,4,-1
 761 656 l 1,5,-1
 211 0 l 1,6,-1
 54 0 l 1,7,-1
 54 720 l 1,0,-1
EndSplineSet
EndChar

StartChar: V.alt2
Encoding: 65550 -1 67
Width: 774
Flags: MW
HStem: 0 21G<561 720 561 561> 700 20G<0 160 160 160 563 720 720 720>
VStem: 563 157<240 720 0 720>
LayerCount: 2
Fore
SplineSet
563 240 m 1,0,-1
 563 720 l 1,1,-1
 720 720 l 1,2,-1
 720 0 l 1,3,-1
 561 0 l 1,4,-1
 0 668 l 1,5,-1
 0 720 l 1,6,-1
 160 720 l 1,7,-1
 563 240 l 1,0,-1
EndSplineSet
EndChar

StartChar: V.alt3
Encoding: 65551 -1 68
Width: 827
Flags: MW
HStem: 0 156<160 616 208 616 208 773> 700 20G<53 208 208 208 616 773 773 773>
VStem: 53 155<156 720 156 720 156 720> 616 157<156 720 0 720>
LayerCount: 2
Fore
SplineSet
616 720 m 1,0,-1
 773 720 l 1,1,-1
 773 0 l 1,2,-1
 201 0 l 2,3,4
 140 0 140 0 96.5 43 c 128,-1,5
 53 86 53 86 53 148 c 2,6,-1
 53 720 l 1,7,-1
 208 720 l 1,8,-1
 208 156 l 1,9,-1
 616 156 l 1,10,-1
 616 720 l 1,0,-1
EndSplineSet
EndChar

StartChar: W
Encoding: 87 87 69
Width: 1179
Flags: MW
HStem: 0 21G<297 416 297 297 755 874 755 755> 700 20G<35 200 200 200 514 657 657 657 972 1136 1136 1136>
LayerCount: 2
Fore
SplineSet
972 720 m 1,0,-1
 1136 720 l 1,1,-1
 874 0 l 1,2,-1
 755 0 l 1,3,-1
 585 463 l 1,4,-1
 521 287 l 1,5,-1
 416 0 l 1,6,-1
 297 0 l 1,7,-1
 35 720 l 1,8,-1
 200 720 l 1,9,-1
 357 291 l 1,10,-1
 382 358 l 1,11,-1
 514 720 l 1,12,-1
 657 720 l 1,13,-1
 815 291 l 1,14,-1
 840 358 l 1,15,-1
 972 720 l 1,0,-1
EndSplineSet
Substitution2: "'ss02' Style Set 2 in Latin lookup 5 subtable" W.alt2
Substitution2: "'ss01' Style Set 1 in Latin lookup 4 subtable" W.alt
Substitution2: "'salt' Stylistic Alternatives in Latin lookup 2 subtable" W.alt4
AlternateSubs2: "'aalt' Access All Alternates in Latin lookup 1 subtable" W.alt4 W.alt W.alt2
EndChar

StartChar: W.alt
Encoding: 65552 -1 70
Width: 1149
Flags: MW
HStem: 0 21G<80 240 80 80 429 588 429 429> 700 20G<80 236 236 236 640 800 800 800 988 1149 1149 1149>
VStem: 80 156<237 720 237 720 237 720>
LayerCount: 2
Fore
SplineSet
988 720 m 1,0,-1
 1149 720 l 1,1,-1
 1149 668 l 1,2,-1
 588 0 l 1,3,-1
 429 0 l 1,4,-1
 429 225 l 1,5,-1
 240 0 l 1,6,-1
 80 0 l 1,7,-1
 80 720 l 1,8,-1
 236 720 l 1,9,-1
 236 237 l 1,10,-1
 370 397 l 1,11,-1
 369 397 l 1,12,-1
 640 720 l 1,13,-1
 800 720 l 1,14,-1
 800 667 l 1,15,-1
 585 413 l 1,16,-1
 585 237 l 1,17,-1
 687 359 l 1,18,-1
 988 720 l 1,0,-1
EndSplineSet
EndChar

StartChar: W.alt2
Encoding: 65553 -1 71
Width: 1131
Flags: MW
HStem: 0 21G<560 719 560 560 909 1068 909 909> 700 20G<-1 159 159 159 348 507 507 507 912 1068 1068 1068>
VStem: 912 156<238 720 0 720>
LayerCount: 2
Fore
SplineSet
159 720 m 1,0,-1
 563 240 l 1,1,-1
 563 413 l 1,2,-1
 348 667 l 1,3,-1
 348 720 l 1,4,-1
 507 720 l 1,5,-1
 912 238 l 1,6,-1
 912 720 l 1,7,-1
 1068 720 l 1,8,-1
 1068 0 l 1,9,-1
 909 0 l 1,10,-1
 719 225 l 1,11,-1
 719 0 l 1,12,-1
 560 0 l 1,13,-1
 -1 668 l 1,14,-1
 -1 720 l 1,15,-1
 159 720 l 1,0,-1
EndSplineSet
EndChar

StartChar: W.alt3
Encoding: 65554 -1 72
Width: 1028
Flags: MW
HStem: 0 21G<54 213 54 54 799 799 799 958> 700 20G<54 209 209 209 802 958 958 958>
VStem: 54 155<239 720 239 720 239 720> 802 156<240 720 0 720>
LayerCount: 2
Fore
SplineSet
506 349 m 1,0,-1
 213 0 l 1,1,-1
 54 0 l 1,2,-1
 54 720 l 1,3,-1
 209 720 l 1,4,-1
 209 239 l 1,5,-1
 507 591 l 1,6,-1
 802 240 l 1,7,-1
 802 720 l 1,8,-1
 958 720 l 1,9,-1
 958 0 l 1,10,-1
 799 0 l 1,11,-1
 506 349 l 1,0,-1
EndSplineSet
EndChar

StartChar: W.alt4
Encoding: 65555 -1 73
Width: 1155
Flags: MW
HStem: 0 156<160 497 208 497 653 919> 700 20G<53 208 208 208 497 653 653 653 919 1075 1075 1075>
VStem: 53 155<156 720 156 720 156 720> 497 156<156 720 156 720> 919 156<156 720 0 720>
LayerCount: 2
Fore
SplineSet
201 0 m 2,0,1
 140 0 140 0 96.5 43 c 128,-1,2
 53 86 53 86 53 148 c 2,3,-1
 53 720 l 1,4,-1
 208 720 l 1,5,-1
 208 156 l 1,6,-1
 497 156 l 1,7,-1
 497 720 l 1,8,-1
 653 720 l 1,9,-1
 653 156 l 1,10,-1
 919 156 l 1,11,-1
 919 720 l 1,12,-1
 1075 720 l 1,13,-1
 1075 0 l 1,14,-1
 201 0 l 2,0,1
EndSplineSet
EndChar

StartChar: X
Encoding: 88 88 74
Width: 812
Flags: MW
HStem: 0 21G<46 207 46 46 605 766 605 605> 700 20G<46 207 207 207 605 766 766 766>
LayerCount: 2
Fore
SplineSet
605 720 m 1,0,-1
 766 720 l 1,1,-1
 766 667 l 1,2,-1
 508 360 l 1,3,-1
 766 54 l 1,4,-1
 766 0 l 1,5,-1
 605 0 l 1,6,-1
 405 236 l 1,7,-1
 207 0 l 1,8,-1
 46 0 l 1,9,-1
 46 53 l 1,10,-1
 303 360 l 1,11,-1
 46 667 l 1,12,-1
 46 720 l 1,13,-1
 207 720 l 1,14,-1
 407 483 l 1,15,16
 436 520 436 520 507 603.5 c 128,-1,17
 578 687 578 687 605 720 c 1,0,-1
EndSplineSet
Substitution2: "'salt' Stylistic Alternatives in Latin lookup 2 subtable" X.alt
Substitution2: "'aalt' Access All Alternates in Latin lookup 0 subtable" X.alt
EndChar

StartChar: X.alt
Encoding: 65556 -1 75
Width: 829
Flags: MW
HStem: 0 21G<55 210 55 55 617 774 617 617> 279 156<210 617 210 210> 700 20G<54 209 209 209 618 775 775 775>
VStem: 54 155<445 720 435 720> 618 156
LayerCount: 2
Fore
SplineSet
618 720 m 1,0,-1
 775 720 l 1,1,-1
 775 445 l 2,2,3
 775 390 775 390 719 357 c 1,4,5
 774 326 774 326 774 269 c 2,6,-1
 774 0 l 1,7,-1
 617 0 l 1,8,-1
 617 279 l 1,9,-1
 210 279 l 1,10,-1
 210 0 l 1,11,-1
 55 0 l 1,12,-1
 55 269 l 2,13,14
 55 323 55 323 109 357 c 1,15,16
 54 395 54 395 54 445 c 2,17,-1
 54 720 l 1,18,-1
 209 720 l 1,19,-1
 209 435 l 1,20,-1
 618 435 l 1,21,-1
 618 720 l 1,0,-1
EndSplineSet
EndChar

StartChar: Y
Encoding: 89 89 76
Width: 806
Flags: MW
HStem: 0 21G<350 506 350 350> 700 20G<17 202 202 202 653 840 840 840>
VStem: 350 156<0 268 0 269 0 269>
LayerCount: 2
Fore
SplineSet
653 720 m 1,0,-1
 840 720 l 1,1,-1
 506 268 l 1,2,-1
 506 0 l 1,3,-1
 350 0 l 1,4,-1
 350 269 l 1,5,-1
 219 445 l 1,6,-1
 17 720 l 1,7,-1
 202 720 l 1,8,-1
 428 436 l 1,9,-1
 653 720 l 1,0,-1
EndSplineSet
Substitution2: "'salt' Stylistic Alternatives in Latin lookup 2 subtable" Y.alt
Substitution2: "'aalt' Access All Alternates in Latin lookup 0 subtable" Y.alt
EndChar

StartChar: Y.alt
Encoding: 65557 -1 77
Width: 824
Flags: MW
HStem: 0 156<51 614 51 623 51 614> 282 156<158 614 206 614 206 614> 700 20G<51 206 206 206 614 771 771 771>
VStem: 51 155<438 720 438 720 438 720> 614 157<156 282 282 282 438 720>
LayerCount: 2
Fore
SplineSet
614 720 m 1,0,-1
 771 720 l 1,1,-1
 771 148 l 2,2,3
 771 87 771 87 727.5 43.5 c 128,-1,4
 684 0 684 0 623 0 c 2,5,-1
 51 0 l 1,6,-1
 51 156 l 1,7,-1
 614 156 l 1,8,-1
 614 282 l 1,9,-1
 199 282 l 2,10,11
 138 282 138 282 94.5 325 c 128,-1,12
 51 368 51 368 51 430 c 2,13,-1
 51 720 l 1,14,-1
 206 720 l 1,15,-1
 206 438 l 1,16,-1
 614 438 l 1,17,-1
 614 720 l 1,0,-1
EndSplineSet
EndChar

StartChar: Yacute
Encoding: 221 221 78
Width: 806
Flags: MW
HStem: 0 21G<350 506 350 350> 700 20G<17 202 202 202 653 840 840 840> 770 203<329 537 380 486>
VStem: 350 156<0 268 0 269 0 269>
LayerCount: 2
Fore
SplineSet
653 720 m 1,0,-1
 840 720 l 1,1,-1
 506 268 l 1,2,-1
 506 0 l 1,3,-1
 350 0 l 1,4,-1
 350 269 l 1,5,-1
 219 445 l 1,6,-1
 17 720 l 1,7,-1
 202 720 l 1,8,-1
 428 436 l 1,9,-1
 653 720 l 1,0,-1
329 770 m 1,10,-1
 380 973 l 1,11,-1
 537 973 l 1,12,-1
 486 770 l 1,13,-1
 329 770 l 1,10,-1
EndSplineSet
EndChar

StartChar: Ydieresis
Encoding: 376 376 79
Width: 806
Flags: MW
HStem: 0 21G<350 506 350 350> 700 20G<17 202 202 202 653 840 840 840> 770 154<244 397 244 397 457 611 244 457>
VStem: 244 153<770 924 770 924> 350 156<0 268 0 269 0 269> 457 154<770 924 770 924>
LayerCount: 2
Fore
SplineSet
653 720 m 1,0,-1
 840 720 l 1,1,-1
 506 268 l 1,2,-1
 506 0 l 1,3,-1
 350 0 l 1,4,-1
 350 269 l 1,5,-1
 219 445 l 1,6,-1
 17 720 l 1,7,-1
 202 720 l 1,8,-1
 428 436 l 1,9,-1
 653 720 l 1,0,-1
611 924 m 1,10,-1
 611 770 l 1,11,-1
 457 770 l 1,12,-1
 457 924 l 1,13,-1
 611 924 l 1,10,-1
397 924 m 1,14,-1
 397 770 l 1,15,-1
 244 770 l 1,16,-1
 244 924 l 1,17,-1
 397 924 l 1,14,-1
EndSplineSet
EndChar

StartChar: Z
Encoding: 90 90 80
Width: 821
Flags: MW
HStem: 0 156<289 771 289 771> 564 156<51 771 51 533>
LayerCount: 2
Fore
SplineSet
51 564 m 1,0,-1
 51 720 l 1,1,-1
 771 720 l 1,2,-1
 771 561 l 1,3,-1
 289 156 l 1,4,-1
 771 156 l 1,5,-1
 771 0 l 1,6,-1
 51 0 l 1,7,-1
 51 159 l 1,8,-1
 533 564 l 1,9,-1
 51 564 l 1,0,-1
EndSplineSet
Substitution2: "'salt' Stylistic Alternatives in Latin lookup 2 subtable" Z.alt
Substitution2: "'aalt' Access All Alternates in Latin lookup 0 subtable" Z.alt
EndChar

StartChar: Z.alt
Encoding: 65558 -1 81
Width: 818
Flags: MW
HStem: 0 156<156 769 204 769 204 769> 282 156<204 612 197 621 204 204> 564 156<49 612 49 621>
VStem: 49 155<156 282 156 290 156 331> 612 157<438 564 564 564>
CounterMasks: 1 e0
LayerCount: 2
Fore
SplineSet
197 438 m 2,0,-1
 612 438 l 1,1,-1
 612 564 l 1,2,-1
 49 564 l 1,3,-1
 49 720 l 1,4,-1
 621 720 l 2,5,6
 682 720 682 720 725.5 676.5 c 128,-1,7
 769 633 769 633 769 572 c 2,8,-1
 769 430 l 2,9,10
 769 369 769 369 725.5 325.5 c 128,-1,11
 682 282 682 282 621 282 c 2,12,-1
 204 282 l 1,13,-1
 204 156 l 1,14,-1
 769 156 l 1,15,-1
 769 0 l 1,16,-1
 197 0 l 2,17,18
 136 0 136 0 92.5 43 c 128,-1,19
 49 86 49 86 49 148 c 2,20,-1
 49 290 l 2,21,22
 49 352 49 352 92.5 395 c 128,-1,23
 136 438 136 438 197 438 c 2,0,-1
EndSplineSet
EndChar

StartChar: Zcaron
Encoding: 381 381 82
Width: 821
Flags: MW
HStem: 0 156<289 771 289 771> 564 156<51 771 51 533> 769 184<368 389 443 468 368 368>
LayerCount: 2
Fore
SplineSet
51 564 m 1,0,-1
 51 720 l 1,1,-1
 771 720 l 1,2,-1
 771 561 l 1,3,-1
 289 156 l 1,4,-1
 771 156 l 1,5,-1
 771 0 l 1,6,-1
 51 0 l 1,7,-1
 51 159 l 1,8,-1
 533 564 l 1,9,-1
 51 564 l 1,0,-1
258 953 m 1,10,-1
 389 953 l 1,11,-1
 416 909 l 1,12,-1
 443 953 l 1,13,-1
 578 953 l 1,14,-1
 468 769 l 1,15,-1
 368 769 l 1,16,-1
 258 953 l 1,10,-1
EndSplineSet
EndChar

StartChar: a
Encoding: 97 97 83
Width: 694
Flags: MW
HStem: 0 153<157 487 205 487 205 640> 233 134<205 487 205 205> 427 153<52 487 52 495>
VStem: 52 153<153 233 153 367 153 367> 487 153<153 233 233 233 367 427 427 427>
LayerCount: 2
Fore
SplineSet
495 580 m 2,0,1
 555 580 555 580 597.5 537 c 128,-1,2
 640 494 640 494 640 435 c 2,3,-1
 640 0 l 1,4,-1
 197 0 l 2,5,6
 137 0 137 0 94.5 43 c 128,-1,7
 52 86 52 86 52 145 c 2,8,-1
 52 367 l 1,9,-1
 487 367 l 1,10,-1
 487 427 l 1,11,-1
 52 427 l 1,12,-1
 52 580 l 1,13,-1
 495 580 l 2,0,1
487 153 m 1,14,-1
 487 233 l 1,15,-1
 205 233 l 1,16,-1
 205 153 l 1,17,-1
 487 153 l 1,14,-1
EndSplineSet
Substitution2: "'smcp' Lowercase to Small Capitals in Latin lookup 3 subtable" a.sc
Substitution2: "'salt' Stylistic Alternatives in Latin lookup 2 subtable" a.alt
AlternateSubs2: "'aalt' Access All Alternates in Latin lookup 1 subtable" a.sc a.alt
EndChar

StartChar: a.alt
Encoding: 65559 -1 84
Width: 693
Flags: MW
HStem: 0 153<156.5 486 204 486 204 639> 427 153<204 486 204 204>
VStem: 51 153<153 153 153 427> 486 153<153 427 427 427>
LayerCount: 2
Fore
SplineSet
494 580 m 2,0,1
 554 580 554 580 596.5 537 c 128,-1,2
 639 494 639 494 639 435 c 2,3,-1
 639 0 l 1,4,-1
 196 0 l 2,5,6
 137 0 137 0 94 43 c 128,-1,7
 51 86 51 86 51 145 c 2,8,-1
 51 435 l 2,9,10
 51 494 51 494 94 537 c 128,-1,11
 137 580 137 580 196 580 c 2,12,-1
 494 580 l 2,0,1
204 153 m 1,13,-1
 486 153 l 1,14,-1
 486 427 l 1,15,-1
 204 427 l 1,16,-1
 204 153 l 1,13,-1
EndSplineSet
EndChar

StartChar: a.sc
Encoding: 65560 -1 85
Width: 725
Flags: MW
HStem: 0 21G<53 206 53 53 516 669 516 516> 138 153<206 516 206 516> 427 153<206 516 206 206>
VStem: 53 153<0 138 291 427> 516 153<0 138 138 138 291 427 427 427>
LayerCount: 2
Fore
SplineSet
199 580 m 2,0,-1
 524 580 l 2,1,2
 584 580 584 580 626.5 537 c 128,-1,3
 669 494 669 494 669 435 c 2,4,-1
 669 0 l 1,5,-1
 516 0 l 1,6,-1
 516 138 l 1,7,-1
 206 138 l 1,8,-1
 206 0 l 1,9,-1
 53 0 l 1,10,-1
 53 435 l 2,11,12
 53 494 53 494 96 537 c 128,-1,13
 139 580 139 580 199 580 c 2,0,-1
206 291 m 1,14,-1
 516 291 l 1,15,-1
 516 427 l 1,16,-1
 206 427 l 1,17,-1
 206 291 l 1,14,-1
EndSplineSet
EndChar

StartChar: aacute
Encoding: 225 225 86
Width: 725
Flags: MW
HStem: 0 153<157 487 205 487 205 640> 233 134<205 487 205 205> 427 153<52 487 52 495> 638 203<278 486 329 435>
VStem: 52 153<153 233 153 367 153 367> 487 153<153 233 233 233 367 427 427 427>
LayerCount: 2
Fore
SplineSet
495 580 m 2,0,1
 555 580 555 580 597.5 537 c 128,-1,2
 640 494 640 494 640 435 c 2,3,-1
 640 0 l 1,4,-1
 197 0 l 2,5,6
 137 0 137 0 94.5 43 c 128,-1,7
 52 86 52 86 52 145 c 2,8,-1
 52 367 l 1,9,-1
 487 367 l 1,10,-1
 487 427 l 1,11,-1
 52 427 l 1,12,-1
 52 580 l 1,13,-1
 495 580 l 2,0,1
487 153 m 1,14,-1
 487 233 l 1,15,-1
 205 233 l 1,16,-1
 205 153 l 1,17,-1
 487 153 l 1,14,-1
278 638 m 1,18,-1
 329 841 l 1,19,-1
 486 841 l 1,20,-1
 435 638 l 1,21,-1
 278 638 l 1,18,-1
EndSplineSet
EndChar

StartChar: acircumflex
Encoding: 226 226 87
Width: 725
Flags: MW
HStem: 0 153<157 487 205 487 205 640> 233 134<205 487 205 205> 427 153<52 487 52 495> 638 184<320 343 210 420 396 396 396 420 320 530>
VStem: 52 153<153 233 153 367 153 367> 487 153<153 233 233 233 367 427 427 427>
LayerCount: 2
Fore
SplineSet
495 580 m 2,0,1
 555 580 555 580 597.5 537 c 128,-1,2
 640 494 640 494 640 435 c 2,3,-1
 640 0 l 1,4,-1
 197 0 l 2,5,6
 137 0 137 0 94.5 43 c 128,-1,7
 52 86 52 86 52 145 c 2,8,-1
 52 367 l 1,9,-1
 487 367 l 1,10,-1
 487 427 l 1,11,-1
 52 427 l 1,12,-1
 52 580 l 1,13,-1
 495 580 l 2,0,1
487 153 m 1,14,-1
 487 233 l 1,15,-1
 205 233 l 1,16,-1
 205 153 l 1,17,-1
 487 153 l 1,14,-1
343 638 m 1,18,-1
 210 638 l 1,19,-1
 320 822 l 1,20,-1
 420 822 l 1,21,-1
 530 638 l 1,22,-1
 396 638 l 1,23,-1
 368 682 l 1,24,-1
 343 638 l 1,18,-1
EndSplineSet
EndChar

StartChar: acute
Encoding: 180 180 88
Width: 213
Flags: MW
HStem: 747 203<33 241 84 190>
LayerCount: 2
Fore
SplineSet
33 747 m 1,0,-1
 84 950 l 1,1,-1
 241 950 l 1,2,-1
 190 747 l 1,3,-1
 33 747 l 1,0,-1
EndSplineSet
EndChar

StartChar: adieresis
Encoding: 228 228 89
Width: 725
Flags: MW
HStem: 0 153<157 487 205 487 205 640> 233 134<205 487 205 205> 427 153<52 487 52 495> 638 154<173 326 173 326 386 540 173 386>
VStem: 52 153<153 233 153 367 153 367> 173 153<638 792 638 792> 386 154<638 792 638 792> 487 153<153 233 233 233 367 427 427 427>
LayerCount: 2
Fore
SplineSet
495 580 m 2,0,1
 555 580 555 580 597.5 537 c 128,-1,2
 640 494 640 494 640 435 c 2,3,-1
 640 0 l 1,4,-1
 197 0 l 2,5,6
 137 0 137 0 94.5 43 c 128,-1,7
 52 86 52 86 52 145 c 2,8,-1
 52 367 l 1,9,-1
 487 367 l 1,10,-1
 487 427 l 1,11,-1
 52 427 l 1,12,-1
 52 580 l 1,13,-1
 495 580 l 2,0,1
487 153 m 1,14,-1
 487 233 l 1,15,-1
 205 233 l 1,16,-1
 205 153 l 1,17,-1
 487 153 l 1,14,-1
540 792 m 1,18,-1
 540 638 l 1,19,-1
 386 638 l 1,20,-1
 386 792 l 1,21,-1
 540 792 l 1,18,-1
326 792 m 1,22,-1
 326 638 l 1,23,-1
 173 638 l 1,24,-1
 173 792 l 1,25,-1
 326 792 l 1,22,-1
EndSplineSet
EndChar

StartChar: ae
Encoding: 230 230 90
Width: 1178
Flags: MW
HStem: 0 153<158 489 206 489 642 1077> 213 134<642 924 642 1077 642 924> 233 134<206 489 206 206> 427 153<53 489 53 933 642 642 642 924>
VStem: 53 153<153 233 153 367 153 367> 489 153<153 213 153 233 153 233 367 427> 924 153<347 427 427 427>
LayerCount: 2
Fore
SplineSet
933 580 m 2,0,1
 993 580 993 580 1035 537.5 c 128,-1,2
 1077 495 1077 495 1077 435 c 2,3,-1
 1077 213 l 1,4,-1
 642 213 l 1,5,-1
 642 153 l 1,6,-1
 1077 153 l 1,7,-1
 1077 0 l 1,8,-1
 198 0 l 2,9,10
 138 0 138 0 95.5 43 c 128,-1,11
 53 86 53 86 53 145 c 2,12,-1
 53 367 l 1,13,-1
 489 367 l 1,14,-1
 489 427 l 1,15,-1
 53 427 l 1,16,-1
 53 580 l 1,17,-1
 933 580 l 2,0,1
489 153 m 1,18,-1
 489 233 l 1,19,-1
 206 233 l 1,20,-1
 206 153 l 1,21,-1
 489 153 l 1,18,-1
642 347 m 1,22,-1
 924 347 l 1,23,-1
 924 427 l 1,24,-1
 642 427 l 1,25,-1
 642 347 l 1,22,-1
EndSplineSet
EndChar

StartChar: agrave
Encoding: 224 224 91
Width: 725
Flags: MW
HStem: 0 153<157 487 205 487 205 640> 233 134<205 487 205 205> 427 153<52 487 52 495> 638 203<309 415 258 466 309 309>
VStem: 52 153<153 233 153 367 153 367> 487 153<153 233 233 233 367 427 427 427>
LayerCount: 2
Fore
SplineSet
495 580 m 2,0,1
 555 580 555 580 597.5 537 c 128,-1,2
 640 494 640 494 640 435 c 2,3,-1
 640 0 l 1,4,-1
 197 0 l 2,5,6
 137 0 137 0 94.5 43 c 128,-1,7
 52 86 52 86 52 145 c 2,8,-1
 52 367 l 1,9,-1
 487 367 l 1,10,-1
 487 427 l 1,11,-1
 52 427 l 1,12,-1
 52 580 l 1,13,-1
 495 580 l 2,0,1
487 153 m 1,14,-1
 487 233 l 1,15,-1
 205 233 l 1,16,-1
 205 153 l 1,17,-1
 487 153 l 1,14,-1
415 841 m 1,18,-1
 466 638 l 1,19,-1
 309 638 l 1,20,-1
 258 841 l 1,21,-1
 415 841 l 1,18,-1
EndSplineSet
EndChar

StartChar: ampersand
Encoding: 38 38 92
Width: 938
Flags: MW
HStem: -18 21G<874 874> 0 153<158 536 206 536 206 614> 512 207<579 587 587 622.5 234 732 579 579> 565 154<242 579 242 242>
VStem: 53 153<153 319 153 330 153 343> 89 153<467 565 457 574 457 614> 606 153<274 369>
LayerCount: 2
Fore
SplineSet
759 208 m 1,0,-1
 874 140 l 1,1,-1
 874 -18 l 1,2,-1
 734 62 l 1,3,4
 689 0 689 0 614 0 c 2,5,-1
 198 0 l 2,6,7
 138 0 138 0 95.5 43 c 128,-1,8
 53 86 53 86 53 145 c 2,9,-1
 53 330 l 2,10,11
 53 352 53 352 64 376 c 128,-1,12
 75 400 75 400 96 414 c 1,13,14
 89 431 89 431 89 467 c 2,15,-1
 89 574 l 2,16,17
 89 634 89 634 132 676.5 c 128,-1,18
 175 719 175 719 234 719 c 2,19,-1
 587 719 l 2,20,21
 640 719 640 719 681.5 685 c 128,-1,22
 723 651 723 651 732 600 c 1,23,-1
 732 512 l 1,24,-1
 579 512 l 1,25,-1
 579 565 l 1,26,-1
 242 565 l 1,27,-1
 242 457 l 1,28,-1
 606 274 l 1,29,-1
 606 369 l 1,30,-1
 759 369 l 1,31,-1
 759 208 l 1,0,-1
432 205 m 2,32,-1
 206 319 l 1,33,-1
 206 153 l 1,34,-1
 536 153 l 1,35,36
 521 161 521 161 486 178 c 128,-1,37
 451 195 451 195 432 205 c 2,32,-1
EndSplineSet
EndChar

StartChar: aring
Encoding: 229 229 93
Width: 725
Flags: MW
HStem: 0 153<157 487 205 487 205 640> 233 134<205 487 205 205> 427 153<52 487 52 495> 638 201<260 332 281 332>
VStem: 52 153<153 233 153 367 153 367> 204 204<714 763 693.5 783.5> 487 153<153 233 233 233 367 427 427 427>
LayerCount: 2
Fore
SplineSet
495 580 m 2,0,1
 555 580 555 580 597.5 537 c 128,-1,2
 640 494 640 494 640 435 c 2,3,-1
 640 0 l 1,4,-1
 197 0 l 2,5,6
 137 0 137 0 94.5 43 c 128,-1,7
 52 86 52 86 52 145 c 2,8,-1
 52 367 l 1,9,-1
 487 367 l 1,10,-1
 487 427 l 1,11,-1
 52 427 l 1,12,-1
 52 580 l 1,13,-1
 495 580 l 2,0,1
487 153 m 1,14,-1
 487 233 l 1,15,-1
 205 233 l 1,16,-1
 205 153 l 1,17,-1
 487 153 l 1,14,-1
281 839 m 2,18,-1
 332 839 l 2,19,20
 363 839 363 839 385.5 816.5 c 128,-1,21
 408 794 408 794 408 763 c 2,22,-1
 408 714 l 2,23,24
 408 683 408 683 385.5 660.5 c 128,-1,25
 363 638 363 638 332 638 c 2,26,-1
 281 638 l 2,27,28
 250 638 250 638 227 660.5 c 128,-1,29
 204 683 204 683 204 714 c 2,30,-1
 204 763 l 2,31,32
 204 794 204 794 227 816.5 c 128,-1,33
 250 839 250 839 281 839 c 2,18,-1
281 761 m 1,34,-1
 281 707 l 1,35,-1
 332 707 l 1,36,-1
 332 761 l 1,37,-1
 281 761 l 1,34,-1
EndSplineSet
EndChar

StartChar: asciitilde
Encoding: 126 126 94
Width: 404
Flags: MW
HStem: 210 177<104 317> 271 116<105 147>
LayerCount: 2
Fore
SplineSet
303 325 m 1,0,1
 343 325 343 325 399 361 c 1,2,-1
 399 235 l 1,3,4
 339 210 339 210 300 210 c 0,5,6
 264 210 264 210 205.5 240.5 c 128,-1,7
 147 271 147 271 113 271 c 0,8,9
 75 271 75 271 24 232 c 1,10,-1
 24 364 l 1,11,12
 77 387 77 387 119 387 c 0,13,14
 157 387 157 387 215.5 358.5 c 128,-1,15
 274 330 274 330 303 325 c 1,0,1
EndSplineSet
EndChar

StartChar: asterisk
Encoding: 42 42 95
Width: 516
Flags: MW
HStem: 261 21G<191 191 328 328> 686 20G<181 335 335 335>
VStem: 181 154<590 706 590 706>
LayerCount: 2
Fore
SplineSet
445 627 m 1,0,-1
 492 479 l 1,1,-1
 382 444 l 1,2,-1
 451 351 l 1,3,-1
 328 261 l 1,4,-1
 257 354 l 1,5,-1
 191 261 l 1,6,-1
 66 351 l 1,7,-1
 135 444 l 1,8,-1
 25 479 l 1,9,-1
 72 627 l 1,10,-1
 181 590 l 1,11,-1
 181 706 l 1,12,-1
 335 706 l 1,13,-1
 335 590 l 1,14,15
 345 593 345 593 445 627 c 1,0,-1
EndSplineSet
EndChar

StartChar: at
Encoding: 64 64 96
Width: 831
Flags: MW
HStem: 0 153<163 764 210 764 210 764> 216 115<360 380 380 461 567 611> 413 106<380 442 442 461 360 442> 567 153<210 611 210 210>
VStem: 57 153<153 567 153 575 153 615> 254 106<341 394 394 413 331 434> 461 106<331 394 331 413 331 413> 611 153<331 567 567 567>
LayerCount: 2
Fore
SplineSet
380 519 m 2,0,-1
 442 519 l 2,1,2
 502 519 502 519 534.5 486.5 c 128,-1,3
 567 454 567 454 567 394 c 2,4,-1
 567 331 l 1,5,-1
 611 331 l 1,6,-1
 611 567 l 1,7,-1
 210 567 l 1,8,-1
 210 153 l 1,9,-1
 764 153 l 1,10,-1
 764 0 l 1,11,-1
 203 0 l 2,12,13
 143 0 143 0 100 43 c 128,-1,14
 57 86 57 86 57 145 c 2,15,-1
 57 575 l 2,16,17
 57 635 57 635 100 677.5 c 128,-1,18
 143 720 143 720 203 720 c 2,19,-1
 618 720 l 2,20,21
 678 720 678 720 721 677.5 c 128,-1,22
 764 635 764 635 764 575 c 2,23,-1
 764 216 l 1,24,-1
 380 216 l 2,25,26
 320 216 320 216 287 248.5 c 128,-1,27
 254 281 254 281 254 341 c 2,28,-1
 254 394 l 2,29,30
 254 454 254 454 287 486.5 c 128,-1,31
 320 519 320 519 380 519 c 2,0,-1
360 331 m 1,32,-1
 461 331 l 1,33,-1
 461 413 l 1,34,-1
 360 413 l 1,35,-1
 360 331 l 1,32,-1
EndSplineSet
EndChar

StartChar: atilde
Encoding: 227 227 97
Width: 725
Flags: MW
HStem: 0 153<157 487 205 487 205 640> 233 134<205 487 205 205> 427 153<52 487 52 495> 641 177<216 429> 703 115<216 220 220 231>
VStem: 52 153<153 233 153 367 153 367> 487 153<153 233 233 233 367 427 427 427>
LayerCount: 2
Fore
SplineSet
495 580 m 2,0,1
 555 580 555 580 597.5 537 c 128,-1,2
 640 494 640 494 640 435 c 2,3,-1
 640 0 l 1,4,-1
 197 0 l 2,5,6
 137 0 137 0 94.5 43 c 128,-1,7
 52 86 52 86 52 145 c 2,8,-1
 52 367 l 1,9,-1
 487 367 l 1,10,-1
 487 427 l 1,11,-1
 52 427 l 1,12,-1
 52 580 l 1,13,-1
 495 580 l 2,0,1
487 153 m 1,14,-1
 487 233 l 1,15,-1
 205 233 l 1,16,-1
 205 153 l 1,17,-1
 487 153 l 1,14,-1
415 756 m 1,18,19
 454 756 454 756 511 793 c 1,20,-1
 511 667 l 1,21,22
 449 641 449 641 412 641 c 128,-1,23
 375 641 375 641 317.5 672 c 128,-1,24
 260 703 260 703 231 703 c 2,25,-1
 220 703 l 2,26,27
 178 703 178 703 136 667 c 1,28,-1
 136 791 l 1,29,30
 204 818 204 818 231 818 c 0,31,32
 268 818 268 818 326 789 c 128,-1,33
 384 760 384 760 415 756 c 1,18,19
EndSplineSet
EndChar

StartChar: b
Encoding: 98 98 98
Width: 667
Flags: MW
HStem: 0 153<207 489 207 497> 427 153<207 497 207 489> 750 20G<54 207 207 207>
VStem: 54 153<153 427 580 770> 489 153<153 427 427 427>
LayerCount: 2
Fore
SplineSet
497 580 m 2,0,1
 557 580 557 580 599.5 537 c 128,-1,2
 642 494 642 494 642 435 c 2,3,-1
 642 145 l 2,4,5
 642 86 642 86 599.5 43 c 128,-1,6
 557 0 557 0 497 0 c 2,7,-1
 54 0 l 1,8,-1
 54 770 l 1,9,-1
 207 770 l 1,10,-1
 207 580 l 1,11,-1
 497 580 l 2,0,1
207 427 m 1,12,-1
 207 153 l 1,13,-1
 489 153 l 1,14,-1
 489 427 l 1,15,-1
 207 427 l 1,12,-1
EndSplineSet
Substitution2: "'smcp' Lowercase to Small Capitals in Latin lookup 3 subtable" b.sc
Substitution2: "'aalt' Access All Alternates in Latin lookup 0 subtable" b.sc
EndChar

StartChar: b.sc
Encoding: 65561 -1 99
Width: 700
Flags: MW
HStem: 0 153<207 499 207 507> 221 143<207 471 207 471 207 499> 438 143<207 207 207 471>
VStem: 54 153<153 221 153 364 364 438> 471 153<364 435 347.5 438 347.5 438> 499 153<153 219 105.5 221 105.5 221>
LayerCount: 2
Fore
SplineSet
624 435 m 2,0,-1
 624 356 l 2,1,2
 624 328 624 328 619 311 c 1,3,4
 652 272 652 272 652 219 c 2,5,-1
 652 145 l 2,6,7
 652 86 652 86 609 43 c 128,-1,8
 566 0 566 0 507 0 c 2,9,-1
 54 0 l 1,10,-1
 54 581 l 1,11,-1
 479 581 l 2,12,13
 539 581 539 581 581.5 538 c 128,-1,14
 624 495 624 495 624 435 c 2,0,-1
207 221 m 1,15,-1
 207 153 l 1,16,-1
 499 153 l 1,17,-1
 499 221 l 1,18,-1
 207 221 l 1,15,-1
207 438 m 1,19,-1
 207 364 l 1,20,-1
 471 364 l 1,21,-1
 471 438 l 1,22,-1
 207 438 l 1,19,-1
EndSplineSet
EndChar

StartChar: backslash
Encoding: 92 92 100
Width: 520
Flags: MW
HStem: 0 21G<466 521 466 466> 700 20G<5 60 60 60>
LayerCount: 2
Fore
SplineSet
5 720 m 1,0,-1
 60 720 l 1,1,-1
 521 154 l 1,2,-1
 521 0 l 1,3,-1
 466 0 l 1,4,-1
 5 566 l 1,5,-1
 5 720 l 1,0,-1
EndSplineSet
EndChar

StartChar: bar
Encoding: 124 124 101
Width: 214
Flags: MW
HStem: -99 21G<54 54 54 207> 784 20G<54 207 207 207>
VStem: 54 153<-99 804 -99 804>
LayerCount: 2
Fore
SplineSet
54 -99 m 1,0,-1
 54 804 l 1,1,-1
 207 804 l 1,2,-1
 207 -99 l 1,3,-1
 54 -99 l 1,0,-1
EndSplineSet
EndChar

StartChar: braceleft
Encoding: 123 123 102
Width: 289
Flags: MW
HStem: 0 21G<168.5 209 209 274> 700 20G<209 274 274 274>
VStem: 23 193<303 331 153 406 406 434 434 434> 63 153<153 280 280 280 456 567> 63 211<145 153 0 280 0 280 567 575 575 615>
LayerCount: 2
Fore
SplineSet
216 331 m 1,0,-1
 216 153 l 1,1,-1
 274 153 l 1,2,-1
 274 0 l 1,3,-1
 209 0 l 2,4,5
 148 0 148 0 105.5 43 c 128,-1,6
 63 86 63 86 63 145 c 2,7,-1
 63 280 l 1,8,-1
 47 290 l 1,9,-1
 48 290 l 1,10,11
 45 291 45 291 35.5 296.5 c 128,-1,12
 26 302 26 302 23 303 c 1,13,-1
 23 434 l 1,14,-1
 63 456 l 1,15,-1
 63 575 l 2,16,17
 63 635 63 635 105.5 677.5 c 128,-1,18
 148 720 148 720 209 720 c 2,19,-1
 274 720 l 1,20,-1
 274 567 l 1,21,-1
 216 567 l 1,22,-1
 216 406 l 1,23,-1
 171 368 l 1,24,-1
 194 348 l 1,25,-1
 194 349 l 1,26,-1
 216 331 l 1,0,-1
EndSplineSet
EndChar

StartChar: braceright
Encoding: 125 125 103
Width: 289
Flags: MW
HStem: 0 21G<51 51 51 116> 700 20G<51 116 116 156>
VStem: 51 211<105.5 145 145 153 153 153 567 575> 109 153<153 280 105.5 330 457 567 567 567> 109 193<305 330 330 330 406 433 305 567 305 567>
LayerCount: 2
Fore
SplineSet
51 0 m 1,0,-1
 51 153 l 1,1,-1
 109 153 l 1,2,-1
 109 330 l 1,3,-1
 154 368 l 1,4,-1
 109 406 l 1,5,-1
 109 567 l 1,6,-1
 51 567 l 1,7,-1
 51 720 l 1,8,-1
 116 720 l 2,9,10
 176 720 176 720 219 677.5 c 128,-1,11
 262 635 262 635 262 575 c 2,12,-1
 262 457 l 1,13,-1
 302 433 l 1,14,-1
 302 305 l 1,15,-1
 262 280 l 1,16,-1
 262 145 l 2,17,18
 262 86 262 86 219 43 c 128,-1,19
 176 0 176 0 116 0 c 2,20,-1
 51 0 l 1,0,-1
EndSplineSet
EndChar

StartChar: bracketleft
Encoding: 91 91 104
Width: 275
Flags: MW
HStem: 0 21G<54 54 54 265> 700 20G<54 265 265 265>
VStem: 54 153<153 567 153 720> 54 211<0 153 567 720>
LayerCount: 2
Fore
SplineSet
54 0 m 1,0,-1
 54 720 l 1,1,-1
 265 720 l 1,2,-1
 265 567 l 1,3,-1
 207 567 l 1,4,-1
 207 153 l 1,5,-1
 265 153 l 1,6,-1
 265 0 l 1,7,-1
 54 0 l 1,0,-1
EndSplineSet
EndChar

StartChar: bracketright
Encoding: 93 93 105
Width: 276
Flags: MW
HStem: 0 21G<51 262 51 51> 700 20G<51 262 262 262>
VStem: 51 211<0 153 153 153 567 720 0 720> 108 154<153 567 567 567>
LayerCount: 2
Fore
SplineSet
51 567 m 1,0,-1
 51 720 l 1,1,-1
 262 720 l 1,2,-1
 262 0 l 1,3,-1
 51 0 l 1,4,-1
 51 153 l 1,5,-1
 108 153 l 1,6,-1
 108 567 l 1,7,-1
 51 567 l 1,0,-1
EndSplineSet
EndChar

StartChar: breve
Encoding: 728 728 106
Width: 287
Flags: MW
HStem: 747 133<109.5 138 138 142 181 184>
VStem: 40 242<845 880 818.5 880>
LayerCount: 2
Fore
SplineSet
181 880 m 1,0,-1
 282 880 l 1,1,-1
 282 845 l 2,2,3
 282 805 282 805 254 776 c 128,-1,4
 226 747 226 747 184 747 c 2,5,-1
 138 747 l 2,6,7
 96 747 96 747 68 776 c 128,-1,8
 40 805 40 805 40 845 c 2,9,-1
 40 880 l 1,10,-1
 142 880 l 1,11,-1
 142 850 l 1,12,-1
 181 850 l 1,13,-1
 181 880 l 1,0,-1
EndSplineSet
EndChar

StartChar: bullet
Encoding: 8226 8226 107
Width: 371
Flags: MW
HStem: 279 149<152.5 195 174 195>
VStem: 108 154<344 362 322.5 383.5>
LayerCount: 2
Fore
SplineSet
174 428 m 2,0,-1
 195 428 l 2,1,2
 262 428 262 428 262 362 c 2,3,-1
 262 344 l 2,4,5
 262 279 262 279 195 279 c 2,6,-1
 174 279 l 2,7,8
 108 279 108 279 108 344 c 2,9,-1
 108 362 l 2,10,11
 108 428 108 428 174 428 c 2,0,-1
EndSplineSet
EndChar

StartChar: c
Encoding: 99 99 108
Width: 695
Flags: MW
HStem: 0 153<156.5 639 204 639 204 639> 427 153<204 638 204 204>
VStem: 51 153<153 427 153 435 153 474.5>
LayerCount: 2
Fore
SplineSet
638 427 m 1,0,-1
 204 427 l 1,1,-1
 204 153 l 1,2,-1
 639 153 l 1,3,-1
 639 0 l 1,4,-1
 196 0 l 2,5,6
 137 0 137 0 94 43 c 128,-1,7
 51 86 51 86 51 145 c 2,8,-1
 51 435 l 2,9,10
 51 494 51 494 94 537 c 128,-1,11
 137 580 137 580 196 580 c 2,12,-1
 638 580 l 1,13,-1
 638 427 l 1,0,-1
EndSplineSet
Substitution2: "'smcp' Lowercase to Small Capitals in Latin lookup 3 subtable" c.sc
Substitution2: "'aalt' Access All Alternates in Latin lookup 0 subtable" c.sc
EndChar

StartChar: c.sc
Encoding: 65562 -1 109
Width: 693
Flags: MW
HStem: 0 153<156 638 204 638 204 638> 428 153<204 638 204 204>
VStem: 51 153<153 428 153 435 153 475>
LayerCount: 2
Fore
SplineSet
638 428 m 1,0,-1
 204 428 l 1,1,-1
 204 153 l 1,2,-1
 638 153 l 1,3,-1
 638 0 l 1,4,-1
 196 0 l 2,5,6
 136 0 136 0 93.5 43 c 128,-1,7
 51 86 51 86 51 145 c 2,8,-1
 51 435 l 2,9,10
 51 495 51 495 93.5 538 c 128,-1,11
 136 581 136 581 196 581 c 2,12,-1
 638 581 l 1,13,-1
 638 428 l 1,0,-1
EndSplineSet
EndChar

StartChar: caron
Encoding: 711 711 110
Width: 297
Flags: MW
HStem: 746 184<137 158 212 237 137 137>
LayerCount: 2
Fore
SplineSet
27 930 m 1,0,-1
 158 930 l 1,1,-1
 185 886 l 1,2,-1
 212 930 l 1,3,-1
 347 930 l 1,4,-1
 237 746 l 1,5,-1
 137 746 l 1,6,-1
 27 930 l 1,0,-1
EndSplineSet
EndChar

StartChar: ccedilla
Encoding: 231 231 111
Width: 693
Flags: MW
HStem: -128 21G<274 371 274 274> 0 153<156.5 639 204 313 410 639 410 410> 427 153<204 638 204 204>
VStem: 51 153<153 153 153 427>
LayerCount: 2
Fore
SplineSet
204 153 m 1,0,-1
 639 153 l 1,1,-1
 639 0 l 1,2,-1
 410 0 l 1,3,4
 405 -24 405 -24 390.5 -66 c 128,-1,5
 376 -108 376 -108 371 -128 c 1,6,-1
 274 -128 l 1,7,8
 279 -104 279 -104 293.5 -62 c 128,-1,9
 308 -20 308 -20 313 0 c 1,10,-1
 196 0 l 2,11,12
 137 0 137 0 94 43 c 128,-1,13
 51 86 51 86 51 145 c 2,14,-1
 51 435 l 2,15,16
 51 494 51 494 94 537 c 128,-1,17
 137 580 137 580 196 580 c 2,18,-1
 638 580 l 1,19,-1
 638 427 l 1,20,-1
 204 427 l 1,21,-1
 204 153 l 1,0,-1
EndSplineSet
EndChar

StartChar: cedilla
Encoding: 184 184 112
Width: 213
Flags: MW
HStem: -146 202<33 241 84 190>
LayerCount: 2
Fore
SplineSet
33 -146 m 1,0,-1
 84 56 l 1,1,-1
 241 56 l 1,2,-1
 190 -146 l 1,3,-1
 33 -146 l 1,0,-1
EndSplineSet
EndChar

StartChar: cent
Encoding: 162 162 113
Width: 636
Flags: MW
HStem: -99 21G<291 445 291 291> 0 153<139 291 186 291 186 291 445 621> 435 155<186 291 186 186 445 621 179 445> 685 20G<291 445 445 445>
VStem: 33 153<153 435 153 444 153 484> 291 154<-99 0 -99 0 153 435 590 705>
LayerCount: 2
Fore
SplineSet
621 435 m 1,0,-1
 445 435 l 1,1,-1
 445 153 l 1,2,-1
 621 153 l 1,3,-1
 621 0 l 1,4,-1
 445 0 l 1,5,-1
 445 -99 l 1,6,-1
 291 -99 l 1,7,-1
 291 0 l 1,8,-1
 179 0 l 2,9,10
 119 0 119 0 76 43 c 128,-1,11
 33 86 33 86 33 145 c 2,12,-1
 33 444 l 2,13,14
 33 504 33 504 76 547 c 128,-1,15
 119 590 119 590 179 590 c 2,16,-1
 291 590 l 1,17,-1
 291 705 l 1,18,-1
 445 705 l 1,19,-1
 445 590 l 1,20,-1
 621 590 l 1,21,-1
 621 435 l 1,0,-1
291 153 m 1,22,-1
 291 435 l 1,23,-1
 186 435 l 1,24,-1
 186 153 l 1,25,-1
 291 153 l 1,22,-1
EndSplineSet
EndChar

StartChar: circumflex
Encoding: 710 710 114
Width: 300
Flags: MW
HStem: 746 184<138 161 28 238 214 214 214 238 138 348>
LayerCount: 2
Fore
SplineSet
161 746 m 1,0,-1
 28 746 l 1,1,-1
 138 930 l 1,2,-1
 238 930 l 1,3,-1
 348 746 l 1,4,-1
 214 746 l 1,5,-1
 186 790 l 1,6,-1
 161 746 l 1,0,-1
EndSplineSet
EndChar

StartChar: colon
Encoding: 58 58 115
Width: 247
Flags: MW
HStem: 0 153<54 207 54 207> 426 154<54 207 54 207>
VStem: 54 153<0 153 0 153 426 580>
LayerCount: 2
Fore
SplineSet
54 153 m 1,0,-1
 207 153 l 1,1,-1
 207 0 l 1,2,-1
 54 0 l 1,3,-1
 54 153 l 1,0,-1
207 580 m 1,4,-1
 207 426 l 1,5,-1
 54 426 l 1,6,-1
 54 580 l 1,7,-1
 207 580 l 1,4,-1
EndSplineSet
EndChar

StartChar: comma
Encoding: 44 44 116
Width: 243
Flags: MW
HStem: -133 21G<54 54> 122 20G<54 207 207 207>
VStem: 54 153<-20.5 16 16 142 -20.5 142>
LayerCount: 2
Fore
SplineSet
54 142 m 1,0,-1
 207 142 l 1,1,-1
 207 16 l 2,2,3
 207 -38 207 -38 163.5 -80 c 128,-1,4
 120 -122 120 -122 54 -133 c 1,5,-1
 54 142 l 1,0,-1
EndSplineSet
EndChar

StartChar: d
Encoding: 100 100 117
Width: 667
Flags: MW
HStem: 0 153<128 459 177 459 177 612> 427 153<177 177 177 459> 750 20G<459 612 612 612>
VStem: 23 154<153 427 153 435 153 474.5> 459 153<153 427 427 427 580 770 0 770>
LayerCount: 2
Fore
SplineSet
459 770 m 1,0,-1
 612 770 l 1,1,-1
 612 0 l 1,2,-1
 168 0 l 2,3,4
 108 0 108 0 65.5 43 c 128,-1,5
 23 86 23 86 23 145 c 2,6,-1
 23 435 l 2,7,8
 23 494 23 494 65.5 537 c 128,-1,9
 108 580 108 580 168 580 c 2,10,-1
 459 580 l 1,11,-1
 459 770 l 1,0,-1
177 427 m 1,12,-1
 177 153 l 1,13,-1
 459 153 l 1,14,-1
 459 427 l 1,15,-1
 177 427 l 1,12,-1
EndSplineSet
Substitution2: "'smcp' Lowercase to Small Capitals in Latin lookup 3 subtable" d.sc
Substitution2: "'aalt' Access All Alternates in Latin lookup 0 subtable" d.sc
EndChar

StartChar: d.sc
Encoding: 65563 -1 118
Width: 705
Flags: MW
HStem: 0 153<207 499 207 507> 428 153<207 207 207 499>
VStem: 54 153<153 428 153 581> 499 153<153 428 428 428>
LayerCount: 2
Fore
SplineSet
54 581 m 1,0,-1
 507 581 l 2,1,2
 566 581 566 581 609 538 c 128,-1,3
 652 495 652 495 652 435 c 2,4,-1
 652 145 l 2,5,6
 652 86 652 86 609 43 c 128,-1,7
 566 0 566 0 507 0 c 2,8,-1
 54 0 l 1,9,-1
 54 581 l 1,0,-1
207 428 m 1,10,-1
 207 153 l 1,11,-1
 499 153 l 1,12,-1
 499 428 l 1,13,-1
 207 428 l 1,10,-1
EndSplineSet
EndChar

StartChar: degree
Encoding: 176 176 119
Width: 439
Flags: MW
HStem: 343 136<180 191 191 272> 571 135<180 272 191 272 272 282>
VStem: 45 135<489 561 561 571 479 601> 282 135<479 489 489 561 449 571 449 571>
LayerCount: 2
Fore
SplineSet
191 706 m 2,0,-1
 272 706 l 2,1,2
 331 706 331 706 374 663.5 c 128,-1,3
 417 621 417 621 417 561 c 2,4,-1
 417 489 l 2,5,6
 417 429 417 429 374 386 c 128,-1,7
 331 343 331 343 272 343 c 2,8,-1
 191 343 l 2,9,10
 131 343 131 343 88 386 c 128,-1,11
 45 429 45 429 45 489 c 2,12,-1
 45 561 l 2,13,14
 45 621 45 621 88 663.5 c 128,-1,15
 131 706 131 706 191 706 c 2,0,-1
180 571 m 1,16,-1
 180 479 l 1,17,-1
 282 479 l 1,18,-1
 282 571 l 1,19,-1
 180 571 l 1,16,-1
EndSplineSet
EndChar

StartChar: dieresis
Encoding: 168 168 120
Width: 385
Flags: MW
HStem: 747 154<54 207 54 207 267 421 54 267>
VStem: 54 153<747 901 747 901> 267 154<747 901 747 901>
LayerCount: 2
Fore
SplineSet
421 901 m 1,0,-1
 421 747 l 1,1,-1
 267 747 l 1,2,-1
 267 901 l 1,3,-1
 421 901 l 1,0,-1
207 901 m 1,4,-1
 207 747 l 1,5,-1
 54 747 l 1,6,-1
 54 901 l 1,7,-1
 207 901 l 1,4,-1
EndSplineSet
EndChar

StartChar: divide
Encoding: 247 247 121
Width: 519
Flags: MW
HStem: 0 153<183 336 183 336> 240 153<7 497 7 497> 462 154<183 336 183 336>
VStem: 183 153<0 153 0 153 462 616>
LayerCount: 2
Fore
SplineSet
497 393 m 1,0,-1
 497 240 l 1,1,-1
 7 240 l 1,2,-1
 7 393 l 1,3,-1
 497 393 l 1,0,-1
183 153 m 1,4,-1
 336 153 l 1,5,-1
 336 0 l 1,6,-1
 183 0 l 1,7,-1
 183 153 l 1,4,-1
336 616 m 1,8,-1
 336 462 l 1,9,-1
 183 462 l 1,10,-1
 183 616 l 1,11,-1
 336 616 l 1,8,-1
EndSplineSet
EndChar

StartChar: dollar
Encoding: 36 36 122
Width: 788
Flags: MW
HStem: -98 21G<310 464 310 310> 0 153<139 310 187 310 187 310 464 587> 0 211<139 179 179 187 34 310> 280 153<139 310 187 310 187 310 464 587> 509 211<587 595 595 635 587 587> 567 153<187 310 187 187 464 587> 798 20G<310 464 464 464>
VStem: 34 153<153 211 153 211 153 211 433 567> 310 154<-98 0 -98 0 153 280 433 567 720 818> 587 153<153 280 280 280 509 567 567 567>
CounterMasks: 1 01c0
LayerCount: 2
Fore
SplineSet
740 575 m 2,0,-1
 740 509 l 1,1,-1
 587 509 l 1,2,-1
 587 567 l 1,3,-1
 464 567 l 1,4,-1
 464 433 l 1,5,-1
 595 433 l 2,6,7
 655 433 655 433 697.5 390 c 128,-1,8
 740 347 740 347 740 287 c 2,9,-1
 740 145 l 2,10,11
 740 86 740 86 697.5 43 c 128,-1,12
 655 0 655 0 595 0 c 2,13,-1
 464 0 l 1,14,-1
 464 -98 l 1,15,-1
 310 -98 l 1,16,-1
 310 0 l 1,17,-1
 179 0 l 2,18,19
 119 0 119 0 76.5 43 c 128,-1,20
 34 86 34 86 34 145 c 2,21,-1
 34 211 l 1,22,-1
 187 211 l 1,23,-1
 187 153 l 1,24,-1
 310 153 l 1,25,-1
 310 280 l 1,26,-1
 179 280 l 2,27,28
 119 280 119 280 76.5 322.5 c 128,-1,29
 34 365 34 365 34 425 c 2,30,-1
 34 575 l 2,31,32
 34 635 34 635 76.5 677.5 c 128,-1,33
 119 720 119 720 179 720 c 2,34,-1
 310 720 l 1,35,-1
 310 818 l 1,36,-1
 464 818 l 1,37,-1
 464 720 l 1,38,-1
 595 720 l 2,39,40
 655 720 655 720 697.5 677.5 c 128,-1,41
 740 635 740 635 740 575 c 2,0,-1
310 433 m 1,42,-1
 310 567 l 1,43,-1
 187 567 l 1,44,-1
 187 433 l 1,45,-1
 310 433 l 1,42,-1
464 280 m 1,46,-1
 464 153 l 1,47,-1
 587 153 l 1,48,-1
 587 280 l 1,49,-1
 464 280 l 1,46,-1
EndSplineSet
EndChar

StartChar: dotaccent
Encoding: 729 729 123
Width: 233
Flags: MW
HStem: 748 183<101 154 122 154>
VStem: 45 186<824 855 803.5 875.5>
LayerCount: 2
Fore
SplineSet
122 931 m 2,0,-1
 154 931 l 2,1,2
 185 931 185 931 208 908.5 c 128,-1,3
 231 886 231 886 231 855 c 2,4,-1
 231 824 l 2,5,6
 231 793 231 793 208 770.5 c 128,-1,7
 185 748 185 748 154 748 c 2,8,-1
 122 748 l 2,9,10
 91 748 91 748 68 770.5 c 128,-1,11
 45 793 45 793 45 824 c 2,12,-1
 45 855 l 2,13,14
 45 886 45 886 68 908.5 c 128,-1,15
 91 931 91 931 122 931 c 2,0,-1
EndSplineSet
EndChar

StartChar: dotlessi
Encoding: 305 305 124
Width: 214
Flags: MW
HStem: 0 21G<52 52 52 205> 560 20G<52 205 205 205>
VStem: 52 153<0 580 0 580>
LayerCount: 2
Fore
SplineSet
52 0 m 1,0,-1
 52 580 l 1,1,-1
 205 580 l 1,2,-1
 205 0 l 1,3,-1
 52 0 l 1,0,-1
EndSplineSet
EndChar

StartChar: e
Encoding: 101 101 125
Width: 692
Flags: MW
HStem: 0 153<156.5 639 204 639 204 639> 213 134<204 486 204 639 204 486> 427 153<204 486 204 204>
VStem: 51 153<153 213 347 427> 486 153<347 427 427 427>
LayerCount: 2
Fore
SplineSet
494 580 m 2,0,1
 554 580 554 580 596.5 537 c 128,-1,2
 639 494 639 494 639 435 c 2,3,-1
 639 213 l 1,4,-1
 204 213 l 1,5,-1
 204 153 l 1,6,-1
 639 153 l 1,7,-1
 639 0 l 1,8,-1
 196 0 l 2,9,10
 137 0 137 0 94 43 c 128,-1,11
 51 86 51 86 51 145 c 2,12,-1
 51 435 l 2,13,14
 51 494 51 494 94 537 c 128,-1,15
 137 580 137 580 196 580 c 2,16,-1
 494 580 l 2,0,1
204 347 m 1,17,-1
 486 347 l 1,18,-1
 486 427 l 1,19,-1
 204 427 l 1,20,-1
 204 347 l 1,17,-1
EndSplineSet
Substitution2: "'smcp' Lowercase to Small Capitals in Latin lookup 3 subtable" e.sc
Substitution2: "'aalt' Access All Alternates in Latin lookup 0 subtable" e.sc
EndChar

StartChar: e.sc
Encoding: 65564 -1 126
Width: 638
Flags: MW
HStem: 0 153<207 589 207 589> 213 154<207 492 207 492> 428 153<207 589 207 207>
VStem: 54 153<153 213 367 428>
LayerCount: 2
Fore
SplineSet
589 581 m 1,0,-1
 589 428 l 1,1,-1
 207 428 l 1,2,-1
 207 367 l 1,3,-1
 492 367 l 1,4,-1
 492 213 l 1,5,-1
 207 213 l 1,6,-1
 207 153 l 1,7,-1
 589 153 l 1,8,-1
 589 0 l 1,9,-1
 54 0 l 1,10,-1
 54 581 l 1,11,-1
 589 581 l 1,0,-1
EndSplineSet
EndChar

StartChar: eacute
Encoding: 233 233 127
Width: 638
Flags: MW
HStem: 0 153<156.5 639 204 639 204 639> 213 134<204 486 204 639 204 486> 427 153<204 486 204 204> 639 203<265 473 316 422>
VStem: 51 153<153 213 347 427> 486 153<347 427 427 427>
LayerCount: 2
Fore
SplineSet
494 580 m 2,0,1
 554 580 554 580 596.5 537 c 128,-1,2
 639 494 639 494 639 435 c 2,3,-1
 639 213 l 1,4,-1
 204 213 l 1,5,-1
 204 153 l 1,6,-1
 639 153 l 1,7,-1
 639 0 l 1,8,-1
 196 0 l 2,9,10
 137 0 137 0 94 43 c 128,-1,11
 51 86 51 86 51 145 c 2,12,-1
 51 435 l 2,13,14
 51 494 51 494 94 537 c 128,-1,15
 137 580 137 580 196 580 c 2,16,-1
 494 580 l 2,0,1
204 347 m 1,17,-1
 486 347 l 1,18,-1
 486 427 l 1,19,-1
 204 427 l 1,20,-1
 204 347 l 1,17,-1
265 639 m 1,21,-1
 316 842 l 1,22,-1
 473 842 l 1,23,-1
 422 639 l 1,24,-1
 265 639 l 1,21,-1
EndSplineSet
EndChar

StartChar: ecircumflex
Encoding: 234 234 128
Width: 638
Flags: MW
HStem: 0 153<156.5 639 204 639 204 639> 213 134<204 486 204 639 204 486> 427 153<204 486 204 204> 638 184<307 330 197 407 383 383 383 407 307 517>
VStem: 51 153<153 213 347 427> 486 153<347 427 427 427>
LayerCount: 2
Fore
SplineSet
494 580 m 2,0,1
 554 580 554 580 596.5 537 c 128,-1,2
 639 494 639 494 639 435 c 2,3,-1
 639 213 l 1,4,-1
 204 213 l 1,5,-1
 204 153 l 1,6,-1
 639 153 l 1,7,-1
 639 0 l 1,8,-1
 196 0 l 2,9,10
 137 0 137 0 94 43 c 128,-1,11
 51 86 51 86 51 145 c 2,12,-1
 51 435 l 2,13,14
 51 494 51 494 94 537 c 128,-1,15
 137 580 137 580 196 580 c 2,16,-1
 494 580 l 2,0,1
204 347 m 1,17,-1
 486 347 l 1,18,-1
 486 427 l 1,19,-1
 204 427 l 1,20,-1
 204 347 l 1,17,-1
330 638 m 1,21,-1
 197 638 l 1,22,-1
 307 822 l 1,23,-1
 407 822 l 1,24,-1
 517 638 l 1,25,-1
 383 638 l 1,26,-1
 355 682 l 1,27,-1
 330 638 l 1,21,-1
EndSplineSet
EndChar

StartChar: edieresis
Encoding: 235 235 129
Width: 638
Flags: MW
HStem: 0 153<156.5 639 204 639 204 639> 213 134<204 486 204 639 204 486> 427 153<204 486 204 204> 638 154<180 333 180 333 393 547 180 393>
VStem: 51 153<153 213 347 427> 180 153<638 792 638 792> 393 154<638 792 638 792> 486 153<347 427 427 427>
LayerCount: 2
Fore
SplineSet
494 580 m 2,0,1
 554 580 554 580 596.5 537 c 128,-1,2
 639 494 639 494 639 435 c 2,3,-1
 639 213 l 1,4,-1
 204 213 l 1,5,-1
 204 153 l 1,6,-1
 639 153 l 1,7,-1
 639 0 l 1,8,-1
 196 0 l 2,9,10
 137 0 137 0 94 43 c 128,-1,11
 51 86 51 86 51 145 c 2,12,-1
 51 435 l 2,13,14
 51 494 51 494 94 537 c 128,-1,15
 137 580 137 580 196 580 c 2,16,-1
 494 580 l 2,0,1
204 347 m 1,17,-1
 486 347 l 1,18,-1
 486 427 l 1,19,-1
 204 427 l 1,20,-1
 204 347 l 1,17,-1
547 792 m 1,21,-1
 547 638 l 1,22,-1
 393 638 l 1,23,-1
 393 792 l 1,24,-1
 547 792 l 1,21,-1
333 792 m 1,25,-1
 333 638 l 1,26,-1
 180 638 l 1,27,-1
 180 792 l 1,28,-1
 333 792 l 1,25,-1
EndSplineSet
EndChar

StartChar: egrave
Encoding: 232 232 130
Width: 638
Flags: MW
HStem: 0 153<156.5 639 204 639 204 639> 213 134<204 486 204 639 204 486> 427 153<204 486 204 204> 638 203<296 402 245 453 296 296>
VStem: 51 153<153 213 347 427> 486 153<347 427 427 427>
LayerCount: 2
Fore
SplineSet
494 580 m 2,0,1
 554 580 554 580 596.5 537 c 128,-1,2
 639 494 639 494 639 435 c 2,3,-1
 639 213 l 1,4,-1
 204 213 l 1,5,-1
 204 153 l 1,6,-1
 639 153 l 1,7,-1
 639 0 l 1,8,-1
 196 0 l 2,9,10
 137 0 137 0 94 43 c 128,-1,11
 51 86 51 86 51 145 c 2,12,-1
 51 435 l 2,13,14
 51 494 51 494 94 537 c 128,-1,15
 137 580 137 580 196 580 c 2,16,-1
 494 580 l 2,0,1
204 347 m 1,17,-1
 486 347 l 1,18,-1
 486 427 l 1,19,-1
 204 427 l 1,20,-1
 204 347 l 1,17,-1
402 841 m 1,21,-1
 453 638 l 1,22,-1
 296 638 l 1,23,-1
 245 841 l 1,24,-1
 402 841 l 1,21,-1
EndSplineSet
EndChar

StartChar: eight
Encoding: 56 56 131
Width: 834
Flags: MW
HStem: 0 153<163 611 210 611 210 618> 288 144<210 611 210 611> 566 154<210 210 210 611>
VStem: 57 153<153 288 153 297 153 308.5 434 566> 611 153<153 288 288 288 432 434 434 566 566 566>
LayerCount: 2
Fore
SplineSet
764 601 m 1,0,-1
 764 434 l 2,1,2
 764 397 764 397 747 365 c 1,3,4
 764 334 764 334 764 297 c 2,5,-1
 764 145 l 2,6,7
 764 86 764 86 721 43 c 128,-1,8
 678 0 678 0 618 0 c 2,9,-1
 203 0 l 2,10,11
 143 0 143 0 100 43 c 128,-1,12
 57 86 57 86 57 145 c 2,13,-1
 57 297 l 2,14,15
 57 329 57 329 74 365 c 1,16,17
 57 401 57 401 57 434 c 2,18,-1
 57 575 l 2,19,20
 57 635 57 635 100 677.5 c 128,-1,21
 143 720 143 720 203 720 c 2,22,-1
 618 720 l 2,23,24
 672 720 672 720 713.5 686 c 128,-1,25
 755 652 755 652 764 601 c 1,0,-1
210 288 m 1,26,-1
 210 153 l 1,27,-1
 611 153 l 1,28,-1
 611 288 l 1,29,-1
 210 288 l 1,26,-1
210 566 m 1,30,-1
 210 432 l 1,31,-1
 611 432 l 1,32,-1
 611 566 l 1,33,-1
 210 566 l 1,30,-1
EndSplineSet
EndChar

StartChar: ellipsis
Encoding: 8230 8230 132
Width: 574
Flags: MW
HStem: 0 153<54 208 54 208 246 400 54 246 438 591>
VStem: 54 154<0 153 0 153> 246 154<0 153 0 153> 438 153<0 153 0 153>
LayerCount: 2
Fore
SplineSet
400 153 m 1,0,-1
 400 0 l 1,1,-1
 246 0 l 1,2,-1
 246 153 l 1,3,-1
 400 153 l 1,0,-1
591 153 m 1,4,-1
 591 0 l 1,5,-1
 438 0 l 1,6,-1
 438 153 l 1,7,-1
 591 153 l 1,4,-1
208 153 m 1,8,-1
 208 0 l 1,9,-1
 54 0 l 1,10,-1
 54 153 l 1,11,-1
 208 153 l 1,8,-1
EndSplineSet
EndChar

StartChar: emdash
Encoding: 8212 8212 133
Width: 822
Flags: MW
HStem: 218 153<54 756 54 756>
LayerCount: 2
Fore
SplineSet
756 371 m 1,0,-1
 756 218 l 1,1,-1
 54 218 l 1,2,-1
 54 371 l 1,3,-1
 756 371 l 1,0,-1
EndSplineSet
EndChar

StartChar: endash
Encoding: 8211 8211 134
Width: 708
Flags: MW
HStem: 218 153<54 652 54 652>
LayerCount: 2
Fore
SplineSet
652 371 m 1,0,-1
 652 218 l 1,1,-1
 54 218 l 1,2,-1
 54 371 l 1,3,-1
 652 371 l 1,0,-1
EndSplineSet
EndChar

StartChar: equal
Encoding: 61 61 135
Width: 638
Flags: MW
HStem: 129 153<59 585 59 585> 331 153<59 585 59 585>
LayerCount: 2
Fore
SplineSet
585 282 m 1,0,-1
 585 129 l 1,1,-1
 59 129 l 1,2,-1
 59 282 l 1,3,-1
 585 282 l 1,0,-1
585 484 m 1,4,-1
 585 331 l 1,5,-1
 59 331 l 1,6,-1
 59 484 l 1,7,-1
 585 484 l 1,4,-1
EndSplineSet
EndChar

StartChar: exclam
Encoding: 33 33 136
Width: 220
Flags: MW
HStem: 0 153<58 211 58 211> 700 20G<58 211 211 211>
VStem: 58 153<0 153 201 720>
LayerCount: 2
Fore
SplineSet
211 0 m 1,0,-1
 58 0 l 1,1,-1
 58 153 l 1,2,-1
 211 153 l 1,3,-1
 211 0 l 1,0,-1
58 201 m 1,4,-1
 58 720 l 1,5,-1
 211 720 l 1,6,-1
 211 201 l 1,7,-1
 58 201 l 1,4,-1
EndSplineSet
EndChar

StartChar: exclamdown
Encoding: 161 161 137
Width: 210
Flags: MW
HStem: 0 21G<53 206 53 53> 553 153<53 206 53 206>
VStem: 53 153<0 526 553 706>
LayerCount: 2
Fore
SplineSet
206 706 m 1,0,-1
 206 553 l 1,1,-1
 53 553 l 1,2,-1
 53 706 l 1,3,-1
 206 706 l 1,0,-1
206 0 m 1,4,-1
 53 0 l 1,5,-1
 53 526 l 1,6,-1
 206 526 l 1,7,-1
 206 0 l 1,4,-1
EndSplineSet
EndChar

StartChar: f
Encoding: 102 102 138
Width: 440
Flags: MW
HStem: 0 21G<53 206 53 53> 427 153<206 421 206 421> 616 154<206 421 206 206>
VStem: 53 153<0 427 580 616>
LayerCount: 2
Fore
SplineSet
421 616 m 1,0,-1
 206 616 l 1,1,-1
 206 580 l 1,2,-1
 421 580 l 1,3,-1
 421 427 l 1,4,-1
 206 427 l 1,5,-1
 206 0 l 1,6,-1
 53 0 l 1,7,-1
 53 625 l 2,8,9
 53 684 53 684 95.5 727 c 128,-1,10
 138 770 138 770 199 770 c 2,11,-1
 421 770 l 1,12,-1
 421 616 l 1,0,-1
EndSplineSet
Substitution2: "'smcp' Lowercase to Small Capitals in Latin lookup 3 subtable" f.sc
Substitution2: "'aalt' Access All Alternates in Latin lookup 0 subtable" f.sc
EndChar

StartChar: f.sc
Encoding: 65565 -1 139
Width: 591
Flags: MW
HStem: 0 21G<54 207 54 54> 213 154<207 492 207 492> 428 153<207 589 207 207>
VStem: 54 153<0 213 367 428>
LayerCount: 2
Fore
SplineSet
54 581 m 1,0,-1
 589 581 l 1,1,-1
 589 428 l 1,2,-1
 207 428 l 1,3,-1
 207 367 l 1,4,-1
 492 367 l 1,5,-1
 492 213 l 1,6,-1
 207 213 l 1,7,-1
 207 0 l 1,8,-1
 54 0 l 1,9,-1
 54 581 l 1,0,-1
EndSplineSet
EndChar

StartChar: five
Encoding: 53 53 140
Width: 830
Flags: MW
HStem: 0 153<163 611 210 611 210 618> 0 201<163 203 203 210 57 618> 288 154<210 611 57 618> 567 153<210 764 210 210>
VStem: 57 153<153 201 153 201 153 201 442 567> 611 153<153 288 288 288>
LayerCount: 2
Fore
SplineSet
764 567 m 1,0,-1
 210 567 l 1,1,-1
 210 442 l 1,2,-1
 618 442 l 2,3,4
 678 442 678 442 721 399.5 c 128,-1,5
 764 357 764 357 764 297 c 2,6,-1
 764 145 l 2,7,8
 764 86 764 86 721 43 c 128,-1,9
 678 0 678 0 618 0 c 2,10,-1
 203 0 l 2,11,12
 143 0 143 0 100 43 c 128,-1,13
 57 86 57 86 57 145 c 2,14,-1
 57 201 l 1,15,-1
 210 201 l 1,16,-1
 210 153 l 1,17,-1
 611 153 l 1,18,-1
 611 288 l 1,19,-1
 57 288 l 1,20,-1
 57 720 l 1,21,-1
 764 720 l 1,22,-1
 764 567 l 1,0,-1
EndSplineSet
EndChar

StartChar: four
Encoding: 52 52 141
Width: 730
Flags: MW
HStem: 0 21G<437 590 437 437> 179 154<255 437 255 437 590 686 255 590> 700 20G<453 590 590 590>
VStem: 437 153<0 179 0 179 333 481 481 481>
LayerCount: 2
Fore
SplineSet
590 333 m 1,0,-1
 686 333 l 1,1,-1
 686 179 l 1,2,-1
 590 179 l 1,3,-1
 590 0 l 1,4,-1
 437 0 l 1,5,-1
 437 179 l 1,6,-1
 6 179 l 1,7,-1
 6 316 l 1,8,-1
 453 720 l 1,9,-1
 590 720 l 1,10,-1
 590 333 l 1,0,-1
437 481 m 1,11,-1
 255 333 l 1,12,-1
 437 333 l 1,13,-1
 437 481 l 1,11,-1
EndSplineSet
Substitution2: "'ss03' Style Set 3 in Latin lookup 6 subtable" four.alt
Substitution2: "'aalt' Access All Alternates in Latin lookup 0 subtable" four.alt
EndChar

StartChar: four.alt
Encoding: 57351 57351 142
Width: 723
Flags: MW
HStem: 0 21G<440 593 440 440> 177 154<217 440 217 440 593 689 217 593> 698 20G<355 493 493 493>
VStem: 440 153<0 177 0 177 331 466>
LayerCount: 2
Fore
SplineSet
593 331 m 1,0,-1
 689 331 l 1,1,-1
 689 177 l 1,2,-1
 593 177 l 1,3,-1
 593 0 l 1,4,-1
 440 0 l 1,5,-1
 440 177 l 1,6,-1
 9 177 l 1,7,-1
 9 312 l 1,8,-1
 355 718 l 1,9,-1
 493 718 l 1,10,-1
 493 635 l 1,11,-1
 217 331 l 1,12,-1
 440 331 l 1,13,-1
 440 466 l 1,14,-1
 593 466 l 1,15,-1
 593 331 l 1,0,-1
EndSplineSet
EndChar

StartChar: g
Encoding: 103 103 143
Width: 683
Flags: MW
HStem: -229 154<133 477 133 485 133 477> 0 153<147 477 194 477 194 477> 427 153<194 194 194 477>
VStem: 41 153<153 427 153 435 153 474.5> 477 153<-75 0 0 0 153 427 427 427>
LayerCount: 2
Fore
SplineSet
630 -84 m 2,0,1
 630 -144 630 -144 587.5 -186.5 c 128,-1,2
 545 -229 545 -229 485 -229 c 2,3,-1
 133 -229 l 1,4,-1
 133 -75 l 1,5,-1
 477 -75 l 1,6,-1
 477 0 l 1,7,-1
 187 0 l 2,8,9
 127 0 127 0 84 43 c 128,-1,10
 41 86 41 86 41 145 c 2,11,-1
 41 435 l 2,12,13
 41 494 41 494 84 537 c 128,-1,14
 127 580 127 580 187 580 c 2,15,-1
 485 580 l 2,16,17
 545 580 545 580 587.5 537 c 128,-1,18
 630 494 630 494 630 435 c 2,19,-1
 630 -84 l 2,0,1
194 427 m 1,20,-1
 194 153 l 1,21,-1
 477 153 l 1,22,-1
 477 427 l 1,23,-1
 194 427 l 1,20,-1
EndSplineSet
Substitution2: "'smcp' Lowercase to Small Capitals in Latin lookup 3 subtable" g.sc
Substitution2: "'aalt' Access All Alternates in Latin lookup 0 subtable" g.sc
EndChar

StartChar: g.sc
Encoding: 65566 -1 144
Width: 690
Flags: MW
HStem: 0 153<156.5 486 204 486 204 494> 196 143<342 486 342 639> 402 179<486 494 494 534 196 639 486 486> 428 153<204 486 204 204>
VStem: 51 153<153 428 153 435 153 475> 486 153<153 196 196 196 402 428 428 428>
LayerCount: 2
Fore
SplineSet
639 435 m 2,0,-1
 639 402 l 1,1,-1
 486 402 l 1,2,-1
 486 428 l 1,3,-1
 204 428 l 1,4,-1
 204 153 l 1,5,-1
 486 153 l 1,6,-1
 486 196 l 1,7,-1
 342 196 l 1,8,-1
 342 339 l 1,9,-1
 639 339 l 1,10,-1
 639 145 l 2,11,12
 639 86 639 86 596.5 43 c 128,-1,13
 554 0 554 0 494 0 c 2,14,-1
 196 0 l 2,15,16
 137 0 137 0 94 43 c 128,-1,17
 51 86 51 86 51 145 c 2,18,-1
 51 435 l 2,19,20
 51 495 51 495 94 538 c 128,-1,21
 137 581 137 581 196 581 c 2,22,-1
 494 581 l 2,23,24
 554 581 554 581 596.5 538 c 128,-1,25
 639 495 639 495 639 435 c 2,0,-1
EndSplineSet
EndChar

StartChar: germandbls
Encoding: 223 223 145
Width: 833
Flags: MW
HStem: 0 153<57 611 273 611 273 618 273 611> 285 144<273 611 273 611> 552 154<210 611 210 210>
VStem: 57 153<0 552 0 561 0 601> 611 153<153 285 285 285 429 431 431 552 552 552>
LayerCount: 2
Fore
SplineSet
764 587 m 1,0,-1
 764 431 l 2,1,2
 764 394 764 394 747 362 c 1,3,4
 764 331 764 331 764 294 c 2,5,-1
 764 145 l 2,6,7
 764 86 764 86 721 43 c 128,-1,8
 678 0 678 0 618 0 c 2,9,-1
 273 0 l 1,10,-1
 273 153 l 1,11,-1
 611 153 l 1,12,-1
 611 285 l 1,13,-1
 273 285 l 1,14,-1
 273 429 l 1,15,-1
 611 429 l 1,16,-1
 611 552 l 1,17,-1
 210 552 l 1,18,-1
 210 0 l 1,19,-1
 57 0 l 1,20,-1
 57 561 l 2,21,22
 57 621 57 621 100 663.5 c 128,-1,23
 143 706 143 706 203 706 c 2,24,-1
 618 706 l 2,25,26
 672 706 672 706 713.5 672 c 128,-1,27
 755 638 755 638 764 587 c 1,0,-1
EndSplineSet
EndChar

StartChar: grave
Encoding: 96 96 146
Width: 272
Flags: MW
HStem: 747 203<83 189 32 240 83 83>
LayerCount: 2
Fore
SplineSet
189 950 m 1,0,-1
 240 747 l 1,1,-1
 83 747 l 1,2,-1
 32 950 l 1,3,-1
 189 950 l 1,0,-1
EndSplineSet
EndChar

StartChar: greater
Encoding: 62 62 147
Width: 475
Flags: MW
HStem: -19 21G<59 59> 585 20G<59 59>
LayerCount: 2
Fore
SplineSet
59 -19 m 1,0,-1
 59 159 l 1,1,-1
 292 294 l 1,2,-1
 164 366 l 2,3,4
 149 374 149 374 112.5 396.5 c 128,-1,5
 76 419 76 419 59 428 c 1,6,-1
 59 605 l 1,7,-1
 487 358 l 1,8,-1
 487 229 l 1,9,-1
 59 -19 l 1,0,-1
EndSplineSet
EndChar

StartChar: h
Encoding: 104 104 148
Width: 668
Flags: MW
HStem: 0 21G<54 207 54 54 489 642 489 489> 427 153<207 489 207 497> 750 20G<54 207 207 207>
VStem: 54 153<0 427 580 770> 489 153<0 427 427 427>
LayerCount: 2
Fore
SplineSet
497 580 m 2,0,1
 556 580 556 580 599 537 c 128,-1,2
 642 494 642 494 642 435 c 2,3,-1
 642 0 l 1,4,-1
 489 0 l 1,5,-1
 489 427 l 1,6,-1
 207 427 l 1,7,-1
 207 0 l 1,8,-1
 54 0 l 1,9,-1
 54 770 l 1,10,-1
 207 770 l 1,11,-1
 207 580 l 1,12,-1
 497 580 l 2,0,1
EndSplineSet
Substitution2: "'smcp' Lowercase to Small Capitals in Latin lookup 3 subtable" h.sc
Substitution2: "'aalt' Access All Alternates in Latin lookup 0 subtable" h.sc
EndChar

StartChar: h.sc
Encoding: 65567 -1 149
Width: 715
Flags: MW
HStem: 0 21G<54 207 54 54 505 659 505 505> 213 154<207 505 207 505> 560 20G<54 207 207 207 505 659 659 659>
VStem: 54 153<0 213 367 580> 505 154<0 213 213 213 367 580 0 580>
LayerCount: 2
Fore
SplineSet
505 580 m 1,0,-1
 659 580 l 1,1,-1
 659 0 l 1,2,-1
 505 0 l 1,3,-1
 505 213 l 1,4,-1
 207 213 l 1,5,-1
 207 0 l 1,6,-1
 54 0 l 1,7,-1
 54 580 l 1,8,-1
 207 580 l 1,9,-1
 207 367 l 1,10,-1
 505 367 l 1,11,-1
 505 580 l 1,0,-1
EndSplineSet
EndChar

StartChar: hyphen
Encoding: 45 45 150
Width: 517
Flags: MW
HStem: 219 153<59 476 59 476>
LayerCount: 2
Fore
SplineSet
476 372 m 1,0,-1
 476 219 l 1,1,-1
 59 219 l 1,2,-1
 59 372 l 1,3,-1
 476 372 l 1,0,-1
EndSplineSet
EndChar

StartChar: i
Encoding: 105 105 151
Width: 229
Flags: MW
HStem: 0 21G<52 52 52 205> 616 154<52 205 52 205>
VStem: 52 153<0 580 0 580 616 770>
LayerCount: 2
Fore
SplineSet
52 0 m 1,0,-1
 52 580 l 1,1,-1
 205 580 l 1,2,-1
 205 0 l 1,3,-1
 52 0 l 1,0,-1
52 770 m 1,4,-1
 205 770 l 1,5,-1
 205 616 l 1,6,-1
 52 616 l 1,7,-1
 52 770 l 1,4,-1
EndSplineSet
Substitution2: "'smcp' Lowercase to Small Capitals in Latin lookup 3 subtable" i.sc
Substitution2: "'aalt' Access All Alternates in Latin lookup 0 subtable" i.sc
EndChar

StartChar: i.sc
Encoding: 65568 -1 152
Width: 214
Flags: MW
HStem: 0 21G<54 54 54 207> 560 20G<54 207 207 207>
VStem: 54 153<0 580 0 580>
LayerCount: 2
Fore
SplineSet
54 0 m 1,0,-1
 54 580 l 1,1,-1
 207 580 l 1,2,-1
 207 0 l 1,3,-1
 54 0 l 1,0,-1
EndSplineSet
EndChar

StartChar: iacute
Encoding: 237 237 153
Width: 214
Flags: MW
HStem: 0 21G<51 51 51 204> 560 20G<51 204 204 204> 638 203<49 257 100 206>
VStem: 51 153<0 580 0 580>
LayerCount: 2
Fore
SplineSet
51 0 m 1,0,-1
 51 580 l 1,1,-1
 204 580 l 1,2,-1
 204 0 l 1,3,-1
 51 0 l 1,0,-1
49 638 m 1,4,-1
 100 841 l 1,5,-1
 257 841 l 1,6,-1
 206 638 l 1,7,-1
 49 638 l 1,4,-1
EndSplineSet
EndChar

StartChar: icircumflex
Encoding: 238 238 154
Width: 214
Flags: MW
HStem: 0 21G<51 51 51 204> 560 20G<51 204 204 204> 638 184<95 118 -15 195 171 171 171 195 95 305>
VStem: 51 153<0 580 0 580>
LayerCount: 2
Fore
SplineSet
51 0 m 1,0,-1
 51 580 l 1,1,-1
 204 580 l 1,2,-1
 204 0 l 1,3,-1
 51 0 l 1,0,-1
118 638 m 1,4,-1
 -15 638 l 1,5,-1
 95 822 l 1,6,-1
 195 822 l 1,7,-1
 305 638 l 1,8,-1
 171 638 l 1,9,-1
 143 682 l 1,10,-1
 118 638 l 1,4,-1
EndSplineSet
EndChar

StartChar: idieresis
Encoding: 239 239 155
Width: 214
Flags: MW
HStem: 0 21G<55 55 55 208> 560 20G<55 208 208 208> 640 154<-32 121 -32 121 181 335 -32 181>
VStem: -32 153<640 794 640 794> 55 153<0 580 0 580> 181 154<640 794 640 794>
LayerCount: 2
Fore
SplineSet
55 0 m 1,0,-1
 55 580 l 1,1,-1
 208 580 l 1,2,-1
 208 0 l 1,3,-1
 55 0 l 1,0,-1
335 794 m 1,4,-1
 335 640 l 1,5,-1
 181 640 l 1,6,-1
 181 794 l 1,7,-1
 335 794 l 1,4,-1
121 794 m 1,8,-1
 121 640 l 1,9,-1
 -32 640 l 1,10,-1
 -32 794 l 1,11,-1
 121 794 l 1,8,-1
EndSplineSet
EndChar

StartChar: igrave
Encoding: 236 236 156
Width: 214
Flags: MW
HStem: 0 21G<56 56 56 209> 560 20G<56 209 209 209> 639 203<67 173 16 224 67 67>
VStem: 56 153<0 580 0 580>
LayerCount: 2
Fore
SplineSet
56 0 m 1,0,-1
 56 580 l 1,1,-1
 209 580 l 1,2,-1
 209 0 l 1,3,-1
 56 0 l 1,0,-1
173 842 m 1,4,-1
 224 639 l 1,5,-1
 67 639 l 1,6,-1
 16 842 l 1,7,-1
 173 842 l 1,4,-1
EndSplineSet
EndChar

StartChar: j
Encoding: 106 106 157
Width: 239
Flags: MW
HStem: -208 154<-187 58 -187 65 -187 58> 616 154<58 211 58 211>
VStem: 58 153<-54 580 616 770>
LayerCount: 2
Fore
SplineSet
58 770 m 1,0,-1
 211 770 l 1,1,-1
 211 616 l 1,2,-1
 58 616 l 1,3,-1
 58 770 l 1,0,-1
211 580 m 1,4,-1
 211 -63 l 2,5,6
 211 -123 211 -123 168 -165.5 c 128,-1,7
 125 -208 125 -208 65 -208 c 2,8,-1
 -187 -208 l 1,9,-1
 -187 -54 l 1,10,-1
 58 -54 l 1,11,-1
 58 580 l 1,12,-1
 211 580 l 1,4,-1
EndSplineSet
Substitution2: "'smcp' Lowercase to Small Capitals in Latin lookup 3 subtable" j.sc
Substitution2: "'aalt' Access All Alternates in Latin lookup 0 subtable" j.sc
EndChar

StartChar: j.sc
Encoding: 65569 -1 158
Width: 657
Flags: MW
HStem: 0 153<111 450 158 450 158 458> 0 227<111 151 151 158 5 458> 560 20G<450 603 603 603>
VStem: 5 153<153 227 153 227 153 227> 450 153<153 580>
LayerCount: 2
Fore
SplineSet
158 227 m 1,0,-1
 158 153 l 1,1,-1
 450 153 l 1,2,-1
 450 580 l 1,3,-1
 603 580 l 1,4,-1
 603 145 l 2,5,6
 603 86 603 86 560.5 43 c 128,-1,7
 518 0 518 0 458 0 c 2,8,-1
 151 0 l 2,9,10
 91 0 91 0 48 43 c 128,-1,11
 5 86 5 86 5 145 c 2,12,-1
 5 227 l 1,13,-1
 158 227 l 1,0,-1
EndSplineSet
EndChar

StartChar: k
Encoding: 107 107 159
Width: 646
Flags: MW
HStem: 0 21G<54 207 54 54 482 636 482 482> 213 154<207 285 207 285> 750 20G<54 207 207 207>
VStem: 54 153<0 213 367 770>
LayerCount: 2
Fore
SplineSet
482 580 m 1,0,-1
 636 580 l 1,1,-1
 636 528 l 1,2,-1
 420 290 l 1,3,-1
 636 52 l 1,4,-1
 636 0 l 1,5,-1
 482 0 l 1,6,-1
 285 213 l 1,7,-1
 207 213 l 1,8,-1
 207 0 l 1,9,-1
 54 0 l 1,10,-1
 54 770 l 1,11,-1
 207 770 l 1,12,-1
 207 367 l 1,13,-1
 285 367 l 1,14,-1
 482 580 l 1,0,-1
EndSplineSet
Substitution2: "'smcp' Lowercase to Small Capitals in Latin lookup 3 subtable" k.sc
Substitution2: "'salt' Stylistic Alternatives in Latin lookup 2 subtable" k.alt
AlternateSubs2: "'aalt' Access All Alternates in Latin lookup 1 subtable" k.sc k.alt
EndChar

StartChar: k.alt
Encoding: 65570 -1 160
Width: 669
Flags: MW
HStem: 0 21G<54 207 54 54 489 642 489 489> 213 154<207 489 207 489> 732 20G<54 207 207 207>
VStem: 54 153<0 213 367 752> 489 153<0 213 213 213 367 580>
LayerCount: 2
Fore
SplineSet
642 580 m 1,0,-1
 642 358 l 2,1,2
 642 350 642 350 639 339.5 c 128,-1,3
 636 329 636 329 633.5 324 c 128,-1,4
 631 319 631 319 623.5 305.5 c 128,-1,5
 616 292 616 292 615 290 c 1,6,7
 642 238 642 238 642 222 c 2,8,-1
 642 0 l 1,9,-1
 489 0 l 1,10,-1
 489 213 l 1,11,-1
 207 213 l 1,12,-1
 207 0 l 1,13,-1
 54 0 l 1,14,-1
 54 752 l 1,15,-1
 207 752 l 1,16,-1
 207 367 l 1,17,-1
 489 367 l 1,18,-1
 489 580 l 1,19,-1
 642 580 l 1,0,-1
EndSplineSet
EndChar

StartChar: k.sc
Encoding: 65571 -1 161
Width: 682
Flags: MW
HStem: 0 21G<54 207 54 54 482 636 482 482> 213 154<207 285 207 285> 560 20G<54 207 207 207 482 636 636 636>
VStem: 54 153<0 213 367 580>
LayerCount: 2
Fore
SplineSet
482 580 m 1,0,-1
 636 580 l 1,1,-1
 636 528 l 1,2,-1
 420 290 l 1,3,-1
 636 52 l 1,4,-1
 636 0 l 1,5,-1
 482 0 l 1,6,-1
 285 213 l 1,7,-1
 207 213 l 1,8,-1
 207 0 l 1,9,-1
 54 0 l 1,10,-1
 54 580 l 1,11,-1
 207 580 l 1,12,-1
 207 367 l 1,13,-1
 285 367 l 1,14,-1
 482 580 l 1,0,-1
EndSplineSet
EndChar

StartChar: l
Encoding: 108 108 162
Width: 337
Flags: MW
HStem: 0 153<157.5 323 206 323 206 323> 751 20G<52 206 206 206>
VStem: 52 154<153 771 153 771 153 771>
LayerCount: 2
Fore
SplineSet
52 771 m 1,0,-1
 206 771 l 1,1,-1
 206 153 l 1,2,-1
 323 153 l 1,3,-1
 323 0 l 1,4,-1
 197 0 l 2,5,6
 138 0 138 0 95 43 c 128,-1,7
 52 86 52 86 52 145 c 2,8,-1
 52 771 l 1,0,-1
EndSplineSet
Substitution2: "'smcp' Lowercase to Small Capitals in Latin lookup 3 subtable" l.sc
Substitution2: "'aalt' Access All Alternates in Latin lookup 0 subtable" l.sc
EndChar

StartChar: l.sc
Encoding: 65572 -1 163
Width: 659
Flags: MW
HStem: 0 153<207 652 207 652> 560 20G<54 207 207 207>
VStem: 54 153<153 580 153 580 153 580>
LayerCount: 2
Fore
SplineSet
54 0 m 1,0,-1
 54 580 l 1,1,-1
 207 580 l 1,2,-1
 207 153 l 1,3,-1
 652 153 l 1,4,-1
 652 0 l 1,5,-1
 54 0 l 1,0,-1
EndSplineSet
EndChar

StartChar: less
Encoding: 60 60 164
Width: 473
Flags: MW
HStem: -17 21G<432 432> 587 20G<432 432>
LayerCount: 2
Fore
SplineSet
198 296 m 1,0,-1
 432 160 l 1,1,-1
 432 -17 l 1,2,-1
 5 231 l 1,3,-1
 5 359 l 1,4,-1
 432 607 l 1,5,-1
 432 431 l 1,6,-1
 198 296 l 1,0,-1
EndSplineSet
EndChar

StartChar: m
Encoding: 109 109 165
Width: 978
Flags: MW
HStem: 0 21G<54 207 54 54 399 553 399 399 745 897 745 745> 427 153<207 399 207 207 553 745 553 553>
VStem: 54 153<0 427 0 580> 399 154<0 427 0 427> 745 152<0 427 427 427>
LayerCount: 2
Fore
SplineSet
752 580 m 2,0,1
 812 580 812 580 854.5 537 c 128,-1,2
 897 494 897 494 897 435 c 2,3,-1
 897 0 l 1,4,-1
 745 0 l 1,5,-1
 745 427 l 1,6,-1
 553 427 l 1,7,-1
 553 0 l 1,8,-1
 399 0 l 1,9,-1
 399 427 l 1,10,-1
 207 427 l 1,11,-1
 207 0 l 1,12,-1
 54 0 l 1,13,-1
 54 580 l 1,14,-1
 752 580 l 2,0,1
EndSplineSet
Substitution2: "'smcp' Lowercase to Small Capitals in Latin lookup 3 subtable" m.sc
Substitution2: "'aalt' Access All Alternates in Latin lookup 0 subtable" m.sc
EndChar

StartChar: m.sc
Encoding: 65573 -1 166
Width: 824
Flags: MW
HStem: 0 21G<54 207 54 54 604 758 604 604> 561 20G<54 213 213 213 598 758 758 758>
VStem: 54 153<0 341 0 581> 604 154<0 341 341 341>
LayerCount: 2
Fore
SplineSet
406 304 m 1,0,-1
 598 581 l 1,1,-1
 758 581 l 1,2,-1
 758 0 l 1,3,-1
 604 0 l 1,4,-1
 604 341 l 1,5,-1
 406 60 l 1,6,-1
 207 341 l 1,7,-1
 207 0 l 1,8,-1
 54 0 l 1,9,-1
 54 581 l 1,10,-1
 213 581 l 1,11,-1
 406 304 l 1,0,-1
EndSplineSet
EndChar

StartChar: minus
Encoding: 8722 8722 167
Width: 517
Flags: MW
HStem: 219 153<59 476 59 476>
LayerCount: 2
Fore
SplineSet
476 372 m 1,0,-1
 476 219 l 1,1,-1
 59 219 l 1,2,-1
 59 372 l 1,3,-1
 476 372 l 1,0,-1
EndSplineSet
EndChar

StartChar: multiply
Encoding: 215 215 168
Width: 546
Flags: MW
HStem: 82 21G<53 210 53 53 348 507 348 348> 496 20G<53 211 211 211 348 507 507 507>
LayerCount: 2
Fore
SplineSet
507 516 m 1,0,-1
 507 466 l 1,1,-1
 377 300 l 1,2,-1
 507 132 l 1,3,-1
 507 82 l 1,4,-1
 348 82 l 1,5,-1
 279 175 l 1,6,7
 269 159 269 159 244 127.5 c 128,-1,8
 219 96 219 96 210 82 c 1,9,-1
 53 82 l 1,10,-1
 53 132 l 1,11,-1
 182 300 l 1,12,-1
 53 466 l 1,13,-1
 53 516 l 1,14,-1
 211 516 l 1,15,-1
 279 422 l 1,16,-1
 348 516 l 1,17,-1
 507 516 l 1,0,-1
EndSplineSet
EndChar

StartChar: n
Encoding: 110 110 169
Width: 696
Flags: MW
HStem: 0 21G<54 207 54 54 489 642 489 489> 427 153<207 489 207 207>
VStem: 54 153<0 427 0 580> 489 153<0 427 427 427>
LayerCount: 2
Fore
SplineSet
497 580 m 2,0,1
 557 580 557 580 599.5 537 c 128,-1,2
 642 494 642 494 642 435 c 2,3,-1
 642 0 l 1,4,-1
 489 0 l 1,5,-1
 489 427 l 1,6,-1
 207 427 l 1,7,-1
 207 0 l 1,8,-1
 54 0 l 1,9,-1
 54 580 l 1,10,-1
 497 580 l 2,0,1
EndSplineSet
Substitution2: "'smcp' Lowercase to Small Capitals in Latin lookup 3 subtable" n.sc
Substitution2: "'aalt' Access All Alternates in Latin lookup 0 subtable" n.sc
EndChar

StartChar: n.sc
Encoding: 65574 -1 170
Width: 708
Flags: MW
HStem: 0 21G<54 207 54 54 493 652 493 493> 560 20G<54 212 212 212 499 652 652 652>
VStem: 54 153<0 344 0 580> 499 153<238 580 0 580>
LayerCount: 2
Fore
SplineSet
499 238 m 1,0,-1
 499 580 l 1,1,-1
 652 580 l 1,2,-1
 652 0 l 1,3,-1
 493 0 l 1,4,-1
 207 344 l 1,5,-1
 207 0 l 1,6,-1
 54 0 l 1,7,-1
 54 580 l 1,8,-1
 212 580 l 1,9,-1
 499 238 l 1,0,-1
EndSplineSet
EndChar

StartChar: nine
Encoding: 57 57 171
Width: 828
Flags: MW
HStem: 0 153<164 200 200 608 51 616> 281 154<160 608 208 608 208 608> 567 153<208 608 208 208>
VStem: 54 154<435 435 435 567 435 575 435 615> 608 153<153 281 281 281 435 567 567 567>
LayerCount: 2
Fore
SplineSet
616 0 m 2,0,-1
 200 0 l 2,1,2
 147 0 147 0 104.5 44 c 128,-1,3
 62 88 62 88 51 153 c 1,4,-1
 608 153 l 1,5,-1
 608 281 l 1,6,-1
 200 281 l 2,7,8
 140 281 140 281 97 324 c 128,-1,9
 54 367 54 367 54 427 c 2,10,-1
 54 575 l 2,11,12
 54 635 54 635 97 677.5 c 128,-1,13
 140 720 140 720 200 720 c 2,14,-1
 616 720 l 2,15,16
 676 720 676 720 718.5 677.5 c 128,-1,17
 761 635 761 635 761 575 c 2,18,-1
 761 145 l 2,19,20
 761 86 761 86 718.5 43 c 128,-1,21
 676 0 676 0 616 0 c 2,0,-1
208 435 m 1,22,-1
 608 435 l 1,23,-1
 608 567 l 1,24,-1
 208 567 l 1,25,-1
 208 435 l 1,22,-1
EndSplineSet
Substitution2: "'ss03' Style Set 3 in Latin lookup 6 subtable" nine.alt
Substitution2: "'aalt' Access All Alternates in Latin lookup 0 subtable" nine.alt
EndChar

StartChar: nine.alt
Encoding: 57347 57347 172
Width: 784
Flags: MW
HStem: 0 21G<566 719 566 566> 280 153<118 566 166 566 166 566> 565 154<166 566 166 166>
VStem: 12 154<433 565 433 573 433 613> 566 153<0 280 280 280 433 565 565 565>
LayerCount: 2
Fore
SplineSet
158 719 m 2,0,-1
 574 719 l 2,1,2
 634 719 634 719 676.5 676 c 128,-1,3
 719 633 719 633 719 573 c 2,4,-1
 719 0 l 1,5,-1
 566 0 l 1,6,-1
 566 280 l 1,7,-1
 158 280 l 2,8,9
 98 280 98 280 55 322.5 c 128,-1,10
 12 365 12 365 12 425 c 2,11,-1
 12 573 l 2,12,13
 12 633 12 633 55 676 c 128,-1,14
 98 719 98 719 158 719 c 2,0,-1
566 433 m 1,15,-1
 566 565 l 1,16,-1
 166 565 l 1,17,-1
 166 433 l 1,18,-1
 566 433 l 1,15,-1
EndSplineSet
EndChar

StartChar: ntilde
Encoding: 241 241 173
Width: 708
Flags: MW
HStem: 0 21G<54 207 54 54 489 642 489 489> 427 153<207 489 207 207> 640 177<218 431> 702 115<218 222 222 233>
VStem: 54 153<0 427 0 580> 489 153<0 427 427 427>
LayerCount: 2
Fore
SplineSet
497 580 m 2,0,1
 557 580 557 580 599.5 537 c 128,-1,2
 642 494 642 494 642 435 c 2,3,-1
 642 0 l 1,4,-1
 489 0 l 1,5,-1
 489 427 l 1,6,-1
 207 427 l 1,7,-1
 207 0 l 1,8,-1
 54 0 l 1,9,-1
 54 580 l 1,10,-1
 497 580 l 2,0,1
417 755 m 1,11,12
 456 755 456 755 513 792 c 1,13,-1
 513 666 l 1,14,15
 451 640 451 640 414 640 c 128,-1,16
 377 640 377 640 319.5 671 c 128,-1,17
 262 702 262 702 233 702 c 2,18,-1
 222 702 l 2,19,20
 180 702 180 702 138 666 c 1,21,-1
 138 790 l 1,22,23
 206 817 206 817 233 817 c 0,24,25
 270 817 270 817 328 788 c 128,-1,26
 386 759 386 759 417 755 c 1,11,12
EndSplineSet
EndChar

StartChar: numbersign
Encoding: 35 35 174
Width: 797
Flags: MW
HStem: 0 21G<60 215 60 60 351 506 351 351> 158 153<32 107 32 153 309 399 32 259 601 722> 417 153<60 187 60 236 60 343 391 479 683 750> 700 20G<284 442 442 442 577 734 734 734>
LayerCount: 2
Fore
SplineSet
750 570 m 1,0,-1
 750 417 l 1,1,-1
 635 417 l 1,2,-1
 601 311 l 1,3,-1
 722 311 l 1,4,-1
 722 158 l 1,5,-1
 551 158 l 1,6,7
 544 134 544 134 529 79 c 128,-1,8
 514 24 514 24 506 0 c 1,9,-1
 351 0 l 1,10,-1
 399 158 l 1,11,-1
 259 158 l 1,12,13
 251 131 251 131 235.5 75 c 128,-1,14
 220 19 220 19 215 0 c 1,15,-1
 60 0 l 1,16,-1
 107 158 l 1,17,-1
 32 158 l 1,18,-1
 32 311 l 1,19,-1
 153 311 l 1,20,-1
 187 417 l 1,21,-1
 60 417 l 1,22,-1
 60 570 l 1,23,-1
 236 570 l 1,24,25
 249 606 249 606 284 720 c 1,26,-1
 442 720 l 1,27,-1
 391 570 l 1,28,-1
 529 570 l 1,29,-1
 577 720 l 1,30,-1
 734 720 l 1,31,-1
 683 570 l 1,32,-1
 750 570 l 1,0,-1
309 311 m 1,33,-1
 445 311 l 1,34,-1
 479 417 l 1,35,-1
 343 417 l 1,36,-1
 309 311 l 1,33,-1
EndSplineSet
EndChar

StartChar: o
Encoding: 111 111 175
Width: 692
Flags: MW
HStem: 0 153<156.5 486 204 486 204 494> 427 153<204 204 204 486>
VStem: 51 153<153 427 153 435 153 474.5> 486 153<153 427 427 427>
LayerCount: 2
Fore
SplineSet
196 580 m 2,0,-1
 494 580 l 2,1,2
 554 580 554 580 596.5 537 c 128,-1,3
 639 494 639 494 639 435 c 2,4,-1
 639 145 l 2,5,6
 639 86 639 86 596.5 43 c 128,-1,7
 554 0 554 0 494 0 c 2,8,-1
 196 0 l 2,9,10
 137 0 137 0 94 43 c 128,-1,11
 51 86 51 86 51 145 c 2,12,-1
 51 435 l 2,13,14
 51 494 51 494 94 537 c 128,-1,15
 137 580 137 580 196 580 c 2,0,-1
204 427 m 1,16,-1
 204 153 l 1,17,-1
 486 153 l 1,18,-1
 486 427 l 1,19,-1
 204 427 l 1,16,-1
EndSplineSet
Substitution2: "'smcp' Lowercase to Small Capitals in Latin lookup 3 subtable" o.sc
Substitution2: "'aalt' Access All Alternates in Latin lookup 0 subtable" o.sc
EndChar

StartChar: o.sc
Encoding: 65575 -1 176
Width: 692
Flags: MW
HStem: 0 153<156.5 486 204 486 204 494> 427 153<204 204 204 486>
VStem: 51 153<153 427 153 435 153 474.5> 486 153<153 427 427 427>
LayerCount: 2
Fore
SplineSet
196 580 m 2,0,-1
 494 580 l 2,1,2
 554 580 554 580 596.5 537 c 128,-1,3
 639 494 639 494 639 435 c 2,4,-1
 639 145 l 2,5,6
 639 86 639 86 596.5 43 c 128,-1,7
 554 0 554 0 494 0 c 2,8,-1
 196 0 l 2,9,10
 137 0 137 0 94 43 c 128,-1,11
 51 86 51 86 51 145 c 2,12,-1
 51 435 l 2,13,14
 51 494 51 494 94 537 c 128,-1,15
 137 580 137 580 196 580 c 2,0,-1
204 427 m 1,16,-1
 204 153 l 1,17,-1
 486 153 l 1,18,-1
 486 427 l 1,19,-1
 204 427 l 1,16,-1
EndSplineSet
EndChar

StartChar: oacute
Encoding: 243 243 177
Width: 692
Flags: MW
HStem: 0 153<156.5 486 204 486 204 494> 427 153<204 204 204 486> 639 203<262 470 313 419>
VStem: 51 153<153 427 153 435 153 474.5> 486 153<153 427 427 427>
LayerCount: 2
Fore
SplineSet
196 580 m 2,0,-1
 494 580 l 2,1,2
 554 580 554 580 596.5 537 c 128,-1,3
 639 494 639 494 639 435 c 2,4,-1
 639 145 l 2,5,6
 639 86 639 86 596.5 43 c 128,-1,7
 554 0 554 0 494 0 c 2,8,-1
 196 0 l 2,9,10
 137 0 137 0 94 43 c 128,-1,11
 51 86 51 86 51 145 c 2,12,-1
 51 435 l 2,13,14
 51 494 51 494 94 537 c 128,-1,15
 137 580 137 580 196 580 c 2,0,-1
204 427 m 1,16,-1
 204 153 l 1,17,-1
 486 153 l 1,18,-1
 486 427 l 1,19,-1
 204 427 l 1,16,-1
262 639 m 1,20,-1
 313 842 l 1,21,-1
 470 842 l 1,22,-1
 419 639 l 1,23,-1
 262 639 l 1,20,-1
EndSplineSet
EndChar

StartChar: ocircumflex
Encoding: 244 244 178
Width: 692
Flags: MW
HStem: 0 153<156.5 486 204 486 204 494> 427 153<204 204 204 486> 638 184<304 327 194 404 380 380 380 404 304 514>
VStem: 51 153<153 427 153 435 153 474.5> 486 153<153 427 427 427>
LayerCount: 2
Fore
SplineSet
196 580 m 2,0,-1
 494 580 l 2,1,2
 554 580 554 580 596.5 537 c 128,-1,3
 639 494 639 494 639 435 c 2,4,-1
 639 145 l 2,5,6
 639 86 639 86 596.5 43 c 128,-1,7
 554 0 554 0 494 0 c 2,8,-1
 196 0 l 2,9,10
 137 0 137 0 94 43 c 128,-1,11
 51 86 51 86 51 145 c 2,12,-1
 51 435 l 2,13,14
 51 494 51 494 94 537 c 128,-1,15
 137 580 137 580 196 580 c 2,0,-1
204 427 m 1,16,-1
 204 153 l 1,17,-1
 486 153 l 1,18,-1
 486 427 l 1,19,-1
 204 427 l 1,16,-1
327 638 m 1,20,-1
 194 638 l 1,21,-1
 304 822 l 1,22,-1
 404 822 l 1,23,-1
 514 638 l 1,24,-1
 380 638 l 1,25,-1
 352 682 l 1,26,-1
 327 638 l 1,20,-1
EndSplineSet
EndChar

StartChar: odieresis
Encoding: 246 246 179
Width: 692
Flags: MW
HStem: 0 153<156.5 486 204 486 204 494> 427 153<204 204 204 486> 640 154<167 320 167 320 380 534 167 380>
VStem: 51 153<153 427 153 435 153 474.5> 167 153<640 794 640 794> 380 154<640 794 640 794> 486 153<153 427 427 427>
LayerCount: 2
Fore
SplineSet
196 580 m 2,0,-1
 494 580 l 2,1,2
 554 580 554 580 596.5 537 c 128,-1,3
 639 494 639 494 639 435 c 2,4,-1
 639 145 l 2,5,6
 639 86 639 86 596.5 43 c 128,-1,7
 554 0 554 0 494 0 c 2,8,-1
 196 0 l 2,9,10
 137 0 137 0 94 43 c 128,-1,11
 51 86 51 86 51 145 c 2,12,-1
 51 435 l 2,13,14
 51 494 51 494 94 537 c 128,-1,15
 137 580 137 580 196 580 c 2,0,-1
204 427 m 1,16,-1
 204 153 l 1,17,-1
 486 153 l 1,18,-1
 486 427 l 1,19,-1
 204 427 l 1,16,-1
534 794 m 1,20,-1
 534 640 l 1,21,-1
 380 640 l 1,22,-1
 380 794 l 1,23,-1
 534 794 l 1,20,-1
320 794 m 1,24,-1
 320 640 l 1,25,-1
 167 640 l 1,26,-1
 167 794 l 1,27,-1
 320 794 l 1,24,-1
EndSplineSet
EndChar

StartChar: oe
Encoding: 339 339 180
Width: 1177
Flags: MW
HStem: 0 153<157.5 488 205 488 641 1076> 213 134<641 923 641 1076 641 923> 427 153<205 205 205 488 641 923 641 641>
VStem: 52 153<153 427 153 435 153 474.5> 488 153<153 213 347 427> 923 153<347 427 427 427>
LayerCount: 2
Fore
SplineSet
1076 213 m 1,0,-1
 641 213 l 1,1,-1
 641 153 l 1,2,-1
 1076 153 l 1,3,-1
 1076 0 l 1,4,-1
 198 0 l 2,5,6
 138 0 138 0 95 43 c 128,-1,7
 52 86 52 86 52 145 c 2,8,-1
 52 435 l 2,9,10
 52 494 52 494 95 537 c 128,-1,11
 138 580 138 580 198 580 c 2,12,-1
 932 580 l 2,13,14
 992 580 992 580 1034 537.5 c 128,-1,15
 1076 495 1076 495 1076 435 c 2,16,-1
 1076 213 l 1,0,-1
641 347 m 1,17,-1
 923 347 l 1,18,-1
 923 427 l 1,19,-1
 641 427 l 1,20,-1
 641 347 l 1,17,-1
205 427 m 1,21,-1
 205 153 l 1,22,-1
 488 153 l 1,23,-1
 488 427 l 1,24,-1
 205 427 l 1,21,-1
EndSplineSet
EndChar

StartChar: ograve
Encoding: 242 242 181
Width: 692
Flags: MW
HStem: 0 153<156.5 486 204 486 204 494> 427 153<204 204 204 486> 639 203<293 399 242 450 293 293>
VStem: 51 153<153 427 153 435 153 474.5> 486 153<153 427 427 427>
LayerCount: 2
Fore
SplineSet
196 580 m 2,0,-1
 494 580 l 2,1,2
 554 580 554 580 596.5 537 c 128,-1,3
 639 494 639 494 639 435 c 2,4,-1
 639 145 l 2,5,6
 639 86 639 86 596.5 43 c 128,-1,7
 554 0 554 0 494 0 c 2,8,-1
 196 0 l 2,9,10
 137 0 137 0 94 43 c 128,-1,11
 51 86 51 86 51 145 c 2,12,-1
 51 435 l 2,13,14
 51 494 51 494 94 537 c 128,-1,15
 137 580 137 580 196 580 c 2,0,-1
204 427 m 1,16,-1
 204 153 l 1,17,-1
 486 153 l 1,18,-1
 486 427 l 1,19,-1
 204 427 l 1,16,-1
399 842 m 1,20,-1
 450 639 l 1,21,-1
 293 639 l 1,22,-1
 242 842 l 1,23,-1
 399 842 l 1,20,-1
EndSplineSet
EndChar

StartChar: one
Encoding: 49 49 182
Width: 391
Flags: MW
HStem: 0 21G<237 390 237 237> 700 20G<231 390 390 390>
VStem: 237 153<0 487 487 487>
LayerCount: 2
Fore
SplineSet
1 446 m 1,0,-1
 231 720 l 1,1,-1
 390 720 l 1,2,-1
 390 0 l 1,3,-1
 237 0 l 1,4,-1
 237 487 l 1,5,-1
 235 485 l 1,6,-1
 236 485 l 1,7,-1
 204 446 l 1,8,-1
 1 446 l 1,0,-1
EndSplineSet
EndChar

StartChar: otilde
Encoding: 245 245 183
Width: 692
Flags: MW
HStem: 0 153<156.5 486 204 486 204 494> 427 153<204 204 204 486> 640 177<220 433> 702 115<220 224 224 235>
VStem: 51 153<153 427 153 435 153 474.5> 486 153<153 427 427 427>
LayerCount: 2
Fore
SplineSet
196 580 m 2,0,-1
 494 580 l 2,1,2
 554 580 554 580 596.5 537 c 128,-1,3
 639 494 639 494 639 435 c 2,4,-1
 639 145 l 2,5,6
 639 86 639 86 596.5 43 c 128,-1,7
 554 0 554 0 494 0 c 2,8,-1
 196 0 l 2,9,10
 137 0 137 0 94 43 c 128,-1,11
 51 86 51 86 51 145 c 2,12,-1
 51 435 l 2,13,14
 51 494 51 494 94 537 c 128,-1,15
 137 580 137 580 196 580 c 2,0,-1
204 427 m 1,16,-1
 204 153 l 1,17,-1
 486 153 l 1,18,-1
 486 427 l 1,19,-1
 204 427 l 1,16,-1
419 755 m 1,20,21
 458 755 458 755 515 792 c 1,22,-1
 515 666 l 1,23,24
 453 640 453 640 416 640 c 128,-1,25
 379 640 379 640 321.5 671 c 128,-1,26
 264 702 264 702 235 702 c 2,27,-1
 224 702 l 2,28,29
 182 702 182 702 140 666 c 1,30,-1
 140 790 l 1,31,32
 208 817 208 817 235 817 c 0,33,34
 272 817 272 817 330 788 c 128,-1,35
 388 759 388 759 419 755 c 1,20,21
EndSplineSet
EndChar

StartChar: p
Encoding: 112 112 184
Width: 664
Flags: MW
HStem: -230 21G<54 207 54 54> 0 153<207 489 207 497 207 489> 427 153<207 207 207 489>
VStem: 54 153<-230 0 153 427> 489 153<153 427 427 427>
LayerCount: 2
Fore
SplineSet
497 580 m 2,0,1
 557 580 557 580 599.5 537 c 128,-1,2
 642 494 642 494 642 435 c 2,3,-1
 642 145 l 2,4,5
 642 86 642 86 599.5 43 c 128,-1,6
 557 0 557 0 497 0 c 2,7,-1
 207 0 l 1,8,-1
 207 -230 l 1,9,-1
 54 -230 l 1,10,-1
 54 580 l 1,11,-1
 497 580 l 2,0,1
207 427 m 1,12,-1
 207 153 l 1,13,-1
 489 153 l 1,14,-1
 489 427 l 1,15,-1
 207 427 l 1,12,-1
EndSplineSet
Substitution2: "'smcp' Lowercase to Small Capitals in Latin lookup 3 subtable" p.sc
Substitution2: "'aalt' Access All Alternates in Latin lookup 0 subtable" p.sc
EndChar

StartChar: p.sc
Encoding: 65576 -1 185
Width: 660
Flags: MW
HStem: 0 21G<54 207 54 54> 177 155<207 208> 427 153<207 207 207 489>
VStem: 54 153<0 172 0 177 332 427> 489 153<332 427 427 427>
LayerCount: 2
Fore
SplineSet
54 580 m 1,0,-1
 497 580 l 2,1,2
 557 580 557 580 599.5 537 c 128,-1,3
 642 494 642 494 642 435 c 2,4,-1
 642 323 l 2,5,6
 642 264 642 264 599.5 221 c 128,-1,7
 557 178 557 178 497 178 c 2,8,-1
 207 177 l 2,9,10
 210 177 210 177 210 171 c 1,11,12
 208 171 208 171 207 172 c 1,13,-1
 207 0 l 1,14,-1
 54 0 l 1,15,-1
 54 580 l 1,0,-1
207 427 m 1,16,-1
 207 332 l 1,17,-1
 489 332 l 1,18,-1
 489 427 l 1,19,-1
 207 427 l 1,16,-1
EndSplineSet
EndChar

StartChar: paragraph
Encoding: 182 182 186
Width: 833
Flags: MW
HStem: 0 21G<410 564 410 410 630 783 630 630> 232 154<162 410 209 410 209 410 564 630> 552 154<209 410 209 209 564 630 564 564>
VStem: 56 153<386 552 386 560 386 599.5> 410 154<0 232 0 232 386 552> 630 153<0 232 232 232 386 552 552 552>
LayerCount: 2
Fore
SplineSet
56 560 m 2,0,1
 56 619 56 619 99 662.5 c 128,-1,2
 142 706 142 706 202 706 c 2,3,-1
 783 706 l 1,4,-1
 783 0 l 1,5,-1
 630 0 l 1,6,-1
 630 232 l 1,7,-1
 564 232 l 1,8,-1
 564 0 l 1,9,-1
 410 0 l 1,10,-1
 410 232 l 1,11,-1
 202 232 l 2,12,13
 142 232 142 232 99 275 c 128,-1,14
 56 318 56 318 56 377 c 2,15,-1
 56 560 l 2,0,1
410 552 m 1,16,-1
 209 552 l 1,17,-1
 209 386 l 1,18,-1
 410 386 l 1,19,-1
 410 552 l 1,16,-1
564 552 m 1,20,-1
 564 386 l 1,21,-1
 630 386 l 1,22,-1
 630 552 l 1,23,-1
 564 552 l 1,20,-1
EndSplineSet
EndChar

StartChar: parenleft
Encoding: 40 40 187
Width: 294
Flags: MW
HStem: 0 21G<157 197 197 263> 700 20G<197 263 263 263>
VStem: 52 153<153 567 153 575 153 615> 52 211<145 153 567 575 575 615>
LayerCount: 2
Fore
SplineSet
263 567 m 1,0,-1
 205 567 l 1,1,-1
 205 153 l 1,2,-1
 263 153 l 1,3,-1
 263 0 l 1,4,-1
 197 0 l 2,5,6
 137 0 137 0 94.5 43 c 128,-1,7
 52 86 52 86 52 145 c 2,8,-1
 52 575 l 2,9,10
 52 635 52 635 94.5 677.5 c 128,-1,11
 137 720 137 720 197 720 c 2,12,-1
 263 720 l 1,13,-1
 263 567 l 1,0,-1
EndSplineSet
EndChar

StartChar: parenright
Encoding: 41 41 188
Width: 297
Flags: MW
HStem: 0 21G<56 56 56 123> 700 20G<56 123 123 162.5>
VStem: 56 212<105.5 145 145 153 153 153 567 575> 114 154<153 567 567 567>
LayerCount: 2
Fore
SplineSet
56 0 m 1,0,-1
 56 153 l 1,1,-1
 114 153 l 1,2,-1
 114 567 l 1,3,-1
 56 567 l 1,4,-1
 56 720 l 1,5,-1
 123 720 l 2,6,7
 182 720 182 720 225 677.5 c 128,-1,8
 268 635 268 635 268 575 c 2,9,-1
 268 145 l 2,10,11
 268 86 268 86 225 43 c 128,-1,12
 182 0 182 0 123 0 c 2,13,-1
 56 0 l 1,0,-1
EndSplineSet
EndChar

StartChar: percent
Encoding: 37 37 189
Width: 966
Flags: MW
HStem: 0 21G<134 185 134 134> 9 125<682 692 692 773> 227 125<682 773 692 773 773 784> 369 126<173 184 184 265> 587 125<173 265 184 265 265 275> 699 20G<790 841 841 841>
VStem: 48 125<505 577 577 587 495 617> 275 126<495 505 505 577 465 587 465 587> 557 125<145 217 217 227 134 257> 784 125<134 145 145 217 105 227 105 227>
LayerCount: 2
Fore
SplineSet
790 719 m 1,0,-1
 841 719 l 1,1,-1
 841 563 l 1,2,-1
 185 0 l 1,3,-1
 134 0 l 1,4,-1
 134 157 l 1,5,-1
 790 719 l 1,0,-1
184 712 m 2,6,-1
 265 712 l 2,7,8
 325 712 325 712 363 674.5 c 128,-1,9
 401 637 401 637 401 577 c 2,10,-1
 401 505 l 2,11,12
 401 445 401 445 363 407 c 128,-1,13
 325 369 325 369 265 369 c 2,14,-1
 184 369 l 2,15,16
 124 369 124 369 86 407 c 128,-1,17
 48 445 48 445 48 505 c 2,18,-1
 48 577 l 2,19,20
 48 637 48 637 86 674.5 c 128,-1,21
 124 712 124 712 184 712 c 2,6,-1
692 352 m 2,22,-1
 773 352 l 2,23,24
 833 352 833 352 871 314.5 c 128,-1,25
 909 277 909 277 909 217 c 2,26,-1
 909 145 l 2,27,28
 909 85 909 85 871 47 c 128,-1,29
 833 9 833 9 773 9 c 2,30,-1
 692 9 l 2,31,32
 633 9 633 9 595 47 c 128,-1,33
 557 85 557 85 557 145 c 2,34,-1
 557 217 l 2,35,36
 557 277 557 277 595 314.5 c 128,-1,37
 633 352 633 352 692 352 c 2,22,-1
682 227 m 1,38,-1
 682 134 l 1,39,-1
 784 134 l 1,40,-1
 784 227 l 1,41,-1
 682 227 l 1,38,-1
173 587 m 1,42,-1
 173 495 l 1,43,-1
 275 495 l 1,44,-1
 275 587 l 1,45,-1
 173 587 l 1,42,-1
EndSplineSet
EndChar

StartChar: period
Encoding: 46 46 190
Width: 233
Flags: MW
HStem: 0 153<54 207 54 207>
VStem: 54 153<0 153 0 153>
LayerCount: 2
Fore
SplineSet
207 153 m 1,0,-1
 207 0 l 1,1,-1
 54 0 l 1,2,-1
 54 153 l 1,3,-1
 207 153 l 1,0,-1
EndSplineSet
EndChar

StartChar: plus
Encoding: 43 43 191
Width: 455
Flags: MW
HStem: 86 21G<147 300 147 147> 219 153<17 147 17 147 300 434> 483 20G<147 300 300 300>
VStem: 147 153<86 219 86 219 372 503>
LayerCount: 2
Fore
SplineSet
147 503 m 1,0,-1
 300 503 l 1,1,-1
 300 372 l 1,2,-1
 434 372 l 1,3,-1
 434 219 l 1,4,-1
 300 219 l 1,5,-1
 300 86 l 1,6,-1
 147 86 l 1,7,-1
 147 219 l 1,8,-1
 17 219 l 1,9,-1
 17 372 l 1,10,-1
 147 372 l 1,11,-1
 147 503 l 1,0,-1
EndSplineSet
EndChar

StartChar: q
Encoding: 113 113 192
Width: 664
Flags: MW
HStem: -230 21G<456 609 456 456> 0 153<125 456 174 456 174 456> 427 153<174 174 174 456>
VStem: 20 154<153 427 153 435 153 474.5> 456 153<-230 0 0 0 153 427 427 427>
LayerCount: 2
Fore
SplineSet
20 435 m 2,0,1
 20 494 20 494 62.5 537 c 128,-1,2
 105 580 105 580 165 580 c 2,3,-1
 609 580 l 1,4,-1
 609 -230 l 1,5,-1
 456 -230 l 1,6,-1
 456 0 l 1,7,-1
 165 0 l 2,8,9
 105 0 105 0 62.5 43 c 128,-1,10
 20 86 20 86 20 145 c 2,11,-1
 20 435 l 2,0,1
174 427 m 1,12,-1
 174 153 l 1,13,-1
 456 153 l 1,14,-1
 456 427 l 1,15,-1
 174 427 l 1,12,-1
EndSplineSet
Substitution2: "'smcp' Lowercase to Small Capitals in Latin lookup 3 subtable" q.sc
Substitution2: "'aalt' Access All Alternates in Latin lookup 0 subtable" q.sc
EndChar

StartChar: q.sc
Encoding: 65577 -1 193
Width: 770
Flags: MW
HStem: 0 153<157.5 487 205 487 640 722> 427 153<205 205 205 487>
VStem: 52 153<153 427 153 435 153 474.5> 487 153<153 427 427 427>
LayerCount: 2
Fore
SplineSet
640 435 m 2,0,-1
 640 153 l 1,1,-1
 722 153 l 1,2,-1
 722 0 l 1,3,-1
 197 0 l 2,4,5
 138 0 138 0 95 43 c 128,-1,6
 52 86 52 86 52 145 c 2,7,-1
 52 435 l 2,8,9
 52 494 52 494 95 537 c 128,-1,10
 138 580 138 580 197 580 c 2,11,-1
 495 580 l 2,12,13
 555 580 555 580 597.5 537.5 c 128,-1,14
 640 495 640 495 640 435 c 2,0,-1
205 427 m 1,15,-1
 205 153 l 1,16,-1
 487 153 l 1,17,-1
 487 427 l 1,18,-1
 205 427 l 1,15,-1
EndSplineSet
EndChar

StartChar: question
Encoding: 63 63 194
Width: 678
Flags: MW
HStem: 0 153<128 282 128 282> 194 223<273 282 128 500> 263 154<282 500 273 507 282 282> 567 153<31 500 31 507>
VStem: 128 154<0 153 0 153 194 263> 500 153<417 567 567 567>
LayerCount: 2
Fore
SplineSet
31 720 m 1,0,-1
 507 720 l 2,1,2
 568 720 568 720 610.5 677.5 c 128,-1,3
 653 635 653 635 653 575 c 2,4,-1
 653 409 l 2,5,6
 653 349 653 349 610.5 306 c 128,-1,7
 568 263 568 263 507 263 c 2,8,-1
 282 263 l 1,9,-1
 282 194 l 1,10,-1
 128 194 l 1,11,-1
 128 272 l 2,12,13
 128 332 128 332 170.5 374.5 c 128,-1,14
 213 417 213 417 273 417 c 2,15,-1
 500 417 l 1,16,-1
 500 567 l 1,17,-1
 31 567 l 1,18,-1
 31 720 l 1,0,-1
282 0 m 1,19,-1
 128 0 l 1,20,-1
 128 153 l 1,21,-1
 282 153 l 1,22,-1
 282 0 l 1,19,-1
EndSplineSet
Substitution2: "'salt' Stylistic Alternatives in Latin lookup 2 subtable" question.alt
Substitution2: "'aalt' Access All Alternates in Latin lookup 0 subtable" question.alt
EndChar

StartChar: question.alt
Encoding: 57350 57350 195
Width: 667
Flags: MW
HStem: 0 153<178 332 178 332> 190 227<323 332 178 488> 263 154<332 488 323 496 332 332> 567 153<180 488 180 180>
VStem: 27 153<469 567 469 599 469 599> 178 154<0 153 0 153 190 263> 488 153<417 567 567 567>
LayerCount: 2
Fore
SplineSet
170 720 m 2,0,-1
 496 720 l 2,1,2
 555 720 555 720 598 677.5 c 128,-1,3
 641 635 641 635 641 575 c 2,4,-1
 641 409 l 2,5,6
 641 349 641 349 598 306 c 128,-1,7
 555 263 555 263 496 263 c 2,8,-1
 332 263 l 1,9,-1
 332 190 l 1,10,-1
 178 190 l 1,11,-1
 178 272 l 2,12,13
 178 332 178 332 221 374.5 c 128,-1,14
 264 417 264 417 323 417 c 2,15,-1
 488 417 l 1,16,-1
 488 567 l 1,17,-1
 180 567 l 1,18,-1
 180 469 l 1,19,-1
 27 469 l 1,20,-1
 27 599 l 1,21,22
 35 650 35 650 75.5 685 c 128,-1,23
 116 720 116 720 170 720 c 2,0,-1
332 0 m 1,24,-1
 178 0 l 1,25,-1
 178 153 l 1,26,-1
 332 153 l 1,27,-1
 332 0 l 1,24,-1
EndSplineSet
EndChar

StartChar: questiondown
Encoding: 191 191 196
Width: 675
Flags: MW
HStem: 0 153<125 642 172 642 172 642> 303 154<172 391 165 398 172 172> 303 229<391 398 172 544> 553 153<391 544 391 544>
VStem: 19 153<153 303 153 312 153 352> 391 153<457 532 409 532 553 706>
LayerCount: 2
Fore
SplineSet
642 0 m 1,0,-1
 165 0 l 2,1,2
 105 0 105 0 62 43 c 128,-1,3
 19 86 19 86 19 145 c 2,4,-1
 19 312 l 2,5,6
 19 372 19 372 62 414.5 c 128,-1,7
 105 457 105 457 165 457 c 2,8,-1
 391 457 l 1,9,-1
 391 532 l 1,10,-1
 544 532 l 1,11,-1
 544 449 l 2,12,13
 544 389 544 389 501 346 c 128,-1,14
 458 303 458 303 398 303 c 2,15,-1
 172 303 l 1,16,-1
 172 153 l 1,17,-1
 642 153 l 1,18,-1
 642 0 l 1,0,-1
544 706 m 1,19,-1
 544 553 l 1,20,-1
 391 553 l 1,21,-1
 391 706 l 1,22,-1
 544 706 l 1,19,-1
EndSplineSet
EndChar

StartChar: quotedbl
Encoding: 34 34 197
Width: 396
Flags: MW
HStem: 505 201<36 188 36 188 36 217 217 369>
VStem: 36 152<505 706 505 706> 217 152<505 706 505 706>
LayerCount: 2
Fore
SplineSet
188 706 m 1,0,-1
 188 505 l 1,1,-1
 36 505 l 1,2,-1
 36 706 l 1,3,-1
 188 706 l 1,0,-1
369 706 m 1,4,-1
 369 505 l 1,5,-1
 217 505 l 1,6,-1
 217 706 l 1,7,-1
 369 706 l 1,4,-1
EndSplineSet
EndChar

StartChar: quotedblleft
Encoding: 8220 8220 198
Width: 466
Flags: MW
HStem: 437 21G<45 198 45 45> 438 21G<260 413 260 260> 693 20G<413 413>
VStem: 45 153<437 563 563 600> 260 153<438 564 564 601>
LayerCount: 2
Fore
SplineSet
198 437 m 1,0,-1
 45 437 l 1,1,-1
 45 563 l 2,2,3
 45 618 45 618 89 659.5 c 128,-1,4
 133 701 133 701 198 712 c 1,5,-1
 198 437 l 1,0,-1
413 438 m 1,6,-1
 260 438 l 1,7,-1
 260 564 l 2,8,9
 260 619 260 619 303.5 660.5 c 128,-1,10
 347 702 347 702 413 713 c 1,11,-1
 413 438 l 1,6,-1
EndSplineSet
EndChar

StartChar: quotedblright
Encoding: 8221 8221 199
Width: 466
Flags: MW
HStem: 432 21G<54 54 268 268> 686 20G<54 207 207 207 268 422 422 422>
VStem: 54 153<544.5 581 581 706 544.5 706> 268 154<544.5 581 581 706 544.5 706>
LayerCount: 2
Fore
SplineSet
268 706 m 1,0,-1
 422 706 l 1,1,-1
 422 581 l 2,2,3
 422 527 422 527 378 485 c 128,-1,4
 334 443 334 443 268 432 c 1,5,-1
 268 706 l 1,0,-1
54 706 m 1,6,-1
 207 706 l 1,7,-1
 207 581 l 2,8,9
 207 527 207 527 163.5 485 c 128,-1,10
 120 443 120 443 54 432 c 1,11,-1
 54 706 l 1,6,-1
EndSplineSet
EndChar

StartChar: quoteleft
Encoding: 8216 8216 200
Width: 240
Flags: MW
HStem: 437 21G<34 187 34 34> 692 20G<187 187>
VStem: 34 153<437 563 563 600>
LayerCount: 2
Fore
SplineSet
187 437 m 1,0,-1
 34 437 l 1,1,-1
 34 563 l 2,2,3
 34 618 34 618 77.5 659.5 c 128,-1,4
 121 701 121 701 187 712 c 1,5,-1
 187 437 l 1,0,-1
EndSplineSet
EndChar

StartChar: quoteright
Encoding: 8217 8217 201
Width: 238
Flags: MW
HStem: 432 21G<54 54> 686 20G<54 207 207 207>
VStem: 54 153<544.5 581 581 706 544.5 706>
LayerCount: 2
Fore
SplineSet
54 706 m 1,0,-1
 207 706 l 1,1,-1
 207 581 l 2,2,3
 207 527 207 527 163.5 485 c 128,-1,4
 120 443 120 443 54 432 c 1,5,-1
 54 706 l 1,0,-1
EndSplineSet
EndChar

StartChar: quotesingle
Encoding: 39 39 202
Width: 251
Flags: MW
HStem: 504 202<59 212 59 212>
VStem: 59 153<504 706 504 706>
LayerCount: 2
Fore
SplineSet
212 706 m 1,0,-1
 212 504 l 1,1,-1
 59 504 l 1,2,-1
 59 706 l 1,3,-1
 212 706 l 1,0,-1
EndSplineSet
EndChar

StartChar: r
Encoding: 114 114 203
Width: 526
Flags: MW
HStem: 0 21G<52 205 52 52> 427 153<205 518 205 205>
VStem: 52 153<0 427 0 435 0 474.5>
LayerCount: 2
Fore
SplineSet
198 580 m 2,0,-1
 518 580 l 1,1,-1
 518 427 l 1,2,-1
 205 427 l 1,3,-1
 205 0 l 1,4,-1
 52 0 l 1,5,-1
 52 435 l 2,6,7
 52 494 52 494 95 537 c 128,-1,8
 138 580 138 580 198 580 c 2,0,-1
EndSplineSet
Substitution2: "'smcp' Lowercase to Small Capitals in Latin lookup 3 subtable" r.sc
Substitution2: "'aalt' Access All Alternates in Latin lookup 0 subtable" r.sc
EndChar

StartChar: r.sc
Encoding: 65578 -1 204
Width: 700
Flags: MW
HStem: 0 21G<54 207 54 54 497 652 497 497> 178 154<207 302 207 489 207 511> 427 153<207 207 207 489>
VStem: 54 153<0 178 332 427> 489 154<332 427 427 427>
LayerCount: 2
Fore
SplineSet
643 435 m 2,0,-1
 643 323 l 2,1,2
 643 267 643 267 604.5 225 c 128,-1,3
 566 183 566 183 511 178 c 1,4,-1
 652 54 l 1,5,-1
 652 0 l 1,6,-1
 497 0 l 1,7,-1
 302 178 l 1,8,-1
 207 178 l 1,9,-1
 207 0 l 1,10,-1
 54 0 l 1,11,-1
 54 580 l 1,12,-1
 497 580 l 2,13,14
 557 580 557 580 600 537 c 128,-1,15
 643 494 643 494 643 435 c 2,0,-1
207 427 m 1,16,-1
 207 332 l 1,17,-1
 489 332 l 1,18,-1
 489 427 l 1,19,-1
 207 427 l 1,16,-1
EndSplineSet
EndChar

StartChar: ring
Encoding: 730 730 205
Width: 233
Flags: MW
HStem: 748 201<65 137 86 137>
VStem: 9 204<824 873 803.5 893.5>
LayerCount: 2
Fore
SplineSet
86 949 m 2,0,-1
 137 949 l 2,1,2
 168 949 168 949 190.5 926.5 c 128,-1,3
 213 904 213 904 213 873 c 2,4,-1
 213 824 l 2,5,6
 213 793 213 793 190.5 770.5 c 128,-1,7
 168 748 168 748 137 748 c 2,8,-1
 86 748 l 2,9,10
 55 748 55 748 32 770.5 c 128,-1,11
 9 793 9 793 9 824 c 2,12,-1
 9 873 l 2,13,14
 9 904 9 904 32 926.5 c 128,-1,15
 55 949 55 949 86 949 c 2,0,-1
86 871 m 1,16,-1
 86 817 l 1,17,-1
 137 817 l 1,18,-1
 137 871 l 1,19,-1
 86 871 l 1,16,-1
EndSplineSet
EndChar

StartChar: s
Encoding: 115 115 206
Width: 686
Flags: MW
HStem: 0 153<153.5 483 201 483 201 491> 0 174<153.5 193 193 201 48 491> 213 154<153.5 491 201 483> 406 174<483 491 491 531.5 193 637 483 483> 427 153<201 483 201 201>
VStem: 48 153<153 174 153 174 153 174 367 427> 483 154<153 213 213 213 406 427 427 427>
LayerCount: 2
Fore
SplineSet
637 435 m 2,0,-1
 637 406 l 1,1,-1
 483 406 l 1,2,-1
 483 427 l 1,3,-1
 201 427 l 1,4,-1
 201 367 l 1,5,-1
 491 367 l 2,6,7
 552 367 552 367 594.5 324.5 c 128,-1,8
 637 282 637 282 637 222 c 2,9,-1
 637 145 l 2,10,11
 637 86 637 86 594.5 43 c 128,-1,12
 552 0 552 0 491 0 c 2,13,-1
 193 0 l 2,14,15
 134 0 134 0 91 43 c 128,-1,16
 48 86 48 86 48 145 c 2,17,-1
 48 174 l 1,18,-1
 201 174 l 1,19,-1
 201 153 l 1,20,-1
 483 153 l 1,21,-1
 483 213 l 1,22,-1
 193 213 l 2,23,24
 134 213 134 213 91 256 c 128,-1,25
 48 299 48 299 48 358 c 2,26,-1
 48 435 l 2,27,28
 48 494 48 494 91 537 c 128,-1,29
 134 580 134 580 193 580 c 2,30,-1
 491 580 l 2,31,32
 552 580 552 580 594.5 537 c 128,-1,33
 637 494 637 494 637 435 c 2,0,-1
EndSplineSet
Substitution2: "'smcp' Lowercase to Small Capitals in Latin lookup 3 subtable" s.sc
Substitution2: "'aalt' Access All Alternates in Latin lookup 0 subtable" s.sc
EndChar

StartChar: s.sc
Encoding: 65579 -1 207
Width: 687
Flags: MW
HStem: 0 153<154.5 484 202 484 202 492> 0 173<154.5 194 194 202 49 492> 213 154<154.5 492 202 484> 407 173<484 492 492 532 194 638 484 484> 427 153<202 484 202 202>
VStem: 49 153<153 173 153 173 153 173 367 427> 484 154<153 213 213 213 407 427 427 427>
LayerCount: 2
Fore
SplineSet
638 435 m 2,0,-1
 638 407 l 1,1,-1
 484 407 l 1,2,-1
 484 427 l 1,3,-1
 202 427 l 1,4,-1
 202 367 l 1,5,-1
 492 367 l 2,6,7
 552 367 552 367 595 324 c 128,-1,8
 638 281 638 281 638 222 c 2,9,-1
 638 145 l 2,10,11
 638 86 638 86 595 43 c 128,-1,12
 552 0 552 0 492 0 c 2,13,-1
 194 0 l 2,14,15
 135 0 135 0 92 43 c 128,-1,16
 49 86 49 86 49 145 c 2,17,-1
 49 173 l 1,18,-1
 202 173 l 1,19,-1
 202 153 l 1,20,-1
 484 153 l 1,21,-1
 484 213 l 1,22,-1
 194 213 l 2,23,24
 135 213 135 213 92 256 c 128,-1,25
 49 299 49 299 49 358 c 2,26,-1
 49 435 l 2,27,28
 49 494 49 494 92 537 c 128,-1,29
 135 580 135 580 194 580 c 2,30,-1
 492 580 l 2,31,32
 552 580 552 580 595 537 c 128,-1,33
 638 494 638 494 638 435 c 2,0,-1
EndSplineSet
EndChar

StartChar: scaron
Encoding: 353 353 208
Width: 687
Flags: MW
HStem: 0 153<153.5 483 201 483 201 491> 0 174<153.5 193 193 201 48 491> 213 154<153.5 491 201 483> 406 174<483 491 491 531.5 193 637 483 483> 427 153<201 483 201 201> 638 184<301 322 376 401 301 301>
VStem: 48 153<153 174 153 174 153 174 367 427> 483 154<153 213 213 213 406 427 427 427>
LayerCount: 2
Fore
SplineSet
637 435 m 2,0,-1
 637 406 l 1,1,-1
 483 406 l 1,2,-1
 483 427 l 1,3,-1
 201 427 l 1,4,-1
 201 367 l 1,5,-1
 491 367 l 2,6,7
 552 367 552 367 594.5 324.5 c 128,-1,8
 637 282 637 282 637 222 c 2,9,-1
 637 145 l 2,10,11
 637 86 637 86 594.5 43 c 128,-1,12
 552 0 552 0 491 0 c 2,13,-1
 193 0 l 2,14,15
 134 0 134 0 91 43 c 128,-1,16
 48 86 48 86 48 145 c 2,17,-1
 48 174 l 1,18,-1
 201 174 l 1,19,-1
 201 153 l 1,20,-1
 483 153 l 1,21,-1
 483 213 l 1,22,-1
 193 213 l 2,23,24
 134 213 134 213 91 256 c 128,-1,25
 48 299 48 299 48 358 c 2,26,-1
 48 435 l 2,27,28
 48 494 48 494 91 537 c 128,-1,29
 134 580 134 580 193 580 c 2,30,-1
 491 580 l 2,31,32
 552 580 552 580 594.5 537 c 128,-1,33
 637 494 637 494 637 435 c 2,0,-1
191 822 m 1,34,-1
 322 822 l 1,35,-1
 349 778 l 1,36,-1
 376 822 l 1,37,-1
 511 822 l 1,38,-1
 401 638 l 1,39,-1
 301 638 l 1,40,-1
 191 822 l 1,34,-1
EndSplineSet
EndChar

StartChar: semicolon
Encoding: 59 59 209
Width: 266
Flags: MW
HStem: -133 21G<52 52> 426 154<51 205 51 205>
VStem: 52 153<-20.5 16 16 142 -20.5 142>
LayerCount: 2
Fore
SplineSet
205 580 m 1,0,-1
 205 426 l 1,1,-1
 51 426 l 1,2,-1
 51 580 l 1,3,-1
 205 580 l 1,0,-1
52 142 m 1,4,-1
 205 142 l 1,5,-1
 205 16 l 2,6,7
 205 -38 205 -38 161.5 -80 c 128,-1,8
 118 -122 118 -122 52 -133 c 1,9,-1
 52 142 l 1,4,-1
EndSplineSet
EndChar

StartChar: seven
Encoding: 55 55 210
Width: 660
Flags: MW
HStem: 0 21G<448 601 448 448> 568 153<3 448 3 456>
VStem: 448 153<0 568 568 568>
LayerCount: 2
Fore
SplineSet
3 721 m 1,0,-1
 456 721 l 2,1,2
 516 721 516 721 558.5 678.5 c 128,-1,3
 601 636 601 636 601 576 c 2,4,-1
 601 0 l 1,5,-1
 448 0 l 1,6,-1
 448 568 l 1,7,-1
 3 568 l 1,8,-1
 3 721 l 1,0,-1
EndSplineSet
Substitution2: "'ss03' Style Set 3 in Latin lookup 6 subtable" seven.alt
Substitution2: "'aalt' Access All Alternates in Latin lookup 0 subtable" seven.alt
EndChar

StartChar: seven.alt
Encoding: 57346 57346 211
Width: 771
Flags: MW
HStem: 0 21G<46 202 46 46> 567 153<46 468 46 753>
LayerCount: 2
Fore
SplineSet
46 720 m 1,0,-1
 753 720 l 1,1,-1
 753 670 l 1,2,-1
 202 0 l 1,3,-1
 46 0 l 1,4,-1
 46 51 l 1,5,-1
 468 567 l 1,6,-1
 46 567 l 1,7,-1
 46 720 l 1,0,-1
EndSplineSet
EndChar

StartChar: six
Encoding: 54 54 212
Width: 820
Flags: MW
HStem: 0 153<163 611 210 611 210 618> 288 154<210 618 210 611> 567 153<210 655 210 210>
VStem: 57 153<153 288 442 567> 611 153<153 288 288 288>
LayerCount: 2
Fore
SplineSet
655 567 m 1,0,-1
 210 567 l 1,1,-1
 210 442 l 1,2,-1
 618 442 l 2,3,4
 678 442 678 442 721 399.5 c 128,-1,5
 764 357 764 357 764 297 c 2,6,-1
 764 145 l 2,7,8
 764 86 764 86 721 43 c 128,-1,9
 678 0 678 0 618 0 c 2,10,-1
 203 0 l 2,11,12
 143 0 143 0 100 43 c 128,-1,13
 57 86 57 86 57 145 c 2,14,-1
 57 575 l 2,15,16
 57 635 57 635 100 677.5 c 128,-1,17
 143 720 143 720 203 720 c 2,18,-1
 655 720 l 1,19,-1
 655 567 l 1,0,-1
210 288 m 1,20,-1
 210 153 l 1,21,-1
 611 153 l 1,22,-1
 611 288 l 1,23,-1
 210 288 l 1,20,-1
EndSplineSet
EndChar

StartChar: slash
Encoding: 47 47 213
Width: 521
Flags: MW
HStem: 0 21G<6 61 6 6> 700 20G<467 522 522 522>
LayerCount: 2
Fore
SplineSet
6 155 m 1,0,-1
 467 720 l 1,1,-1
 522 720 l 1,2,-1
 522 566 l 1,3,-1
 61 0 l 1,4,-1
 6 0 l 1,5,-1
 6 155 l 1,0,-1
EndSplineSet
EndChar

StartChar: A.alt2
Encoding: 57356 57356 214
Width: 774
Flags: MW
HStem: 0 21G<54 207 54 54 604 761 604 604> 174 153<207 329 207 457 207 329> 700 20G<54 211 211 211>
VStem: 54 153<0 174 327 471>
LayerCount: 2
Fore
SplineSet
54 720 m 1,0,-1
 211 720 l 1,1,-1
 761 50 l 1,2,-1
 761 0 l 1,3,-1
 604 0 l 1,4,-1
 457 174 l 1,5,-1
 207 174 l 1,6,-1
 207 0 l 1,7,-1
 54 0 l 1,8,-1
 54 720 l 1,0,-1
207 471 m 1,9,-1
 207 327 l 1,10,-1
 329 327 l 1,11,-1
 207 471 l 1,9,-1
EndSplineSet
EndChar

StartChar: sterling
Encoding: 163 163 215
Width: 734
Flags: MW
HStem: 0 153<39 129 282 680 39 129> 277 153<39 129 39 129 282 584> 519 201<526 535 535 575 274 680 526 526> 567 153<282 526 282 282>
VStem: 129 153<153 277 153 277 430 567>
LayerCount: 2
Fore
SplineSet
680 519 m 1,0,-1
 526 519 l 1,1,-1
 526 567 l 1,2,-1
 282 567 l 1,3,-1
 282 430 l 1,4,-1
 584 430 l 1,5,-1
 584 277 l 1,6,-1
 282 277 l 1,7,-1
 282 153 l 1,8,-1
 680 153 l 1,9,-1
 680 0 l 1,10,-1
 39 0 l 1,11,-1
 39 153 l 1,12,-1
 129 153 l 1,13,-1
 129 277 l 1,14,-1
 39 277 l 1,15,-1
 39 430 l 1,16,-1
 129 430 l 1,17,-1
 129 575 l 2,18,19
 129 635 129 635 172 677.5 c 128,-1,20
 215 720 215 720 274 720 c 2,21,-1
 535 720 l 2,22,23
 595 720 595 720 637.5 677.5 c 128,-1,24
 680 635 680 635 680 575 c 2,25,-1
 680 519 l 1,0,-1
EndSplineSet
EndChar

StartChar: t
Encoding: 116 116 216
Width: 451
Flags: MW
HStem: 0 153<158.5 421 206 421 206 421> 427 153<206 421 206 421> 732 20G<53 206 206 206>
VStem: 53 153<153 427 580 752>
LayerCount: 2
Fore
SplineSet
421 427 m 1,0,-1
 206 427 l 1,1,-1
 206 153 l 1,2,-1
 421 153 l 1,3,-1
 421 0 l 1,4,-1
 199 0 l 2,5,6
 138 0 138 0 95.5 43 c 128,-1,7
 53 86 53 86 53 145 c 2,8,-1
 53 752 l 1,9,-1
 206 752 l 1,10,-1
 206 580 l 1,11,-1
 421 580 l 1,12,-1
 421 427 l 1,0,-1
EndSplineSet
Substitution2: "'smcp' Lowercase to Small Capitals in Latin lookup 3 subtable" t.sc
Substitution2: "'aalt' Access All Alternates in Latin lookup 0 subtable" t.sc
EndChar

StartChar: t.sc
Encoding: 65580 -1 217
Width: 644
Flags: MW
HStem: 0 21G<243 397 243 243> 427 153<22 243 22 620 397 620 397 397>
VStem: 243 154<0 427 0 427>
LayerCount: 2
Fore
SplineSet
22 580 m 1,0,-1
 620 580 l 1,1,-1
 620 427 l 1,2,-1
 397 427 l 1,3,-1
 397 0 l 1,4,-1
 243 0 l 1,5,-1
 243 427 l 1,6,-1
 22 427 l 1,7,-1
 22 580 l 1,0,-1
EndSplineSet
EndChar

StartChar: three
Encoding: 51 51 218
Width: 826
Flags: MW
HStem: 0 153<159 607 206 607 206 615> 0 201<159 199 199 206 53 615> 286 153<171 580 171 607 171 580> 511 209<199 206 53 588> 567 153<206 580 206 206>
VStem: 53 153<153 201 153 201 153 201 511 567> 580 153<439 567 567 567> 607 153<153 286 286 286>
LayerCount: 2
Fore
SplineSet
733 575 m 2,0,-1
 733 431 l 2,1,2
 733 406 733 406 727 385 c 1,3,4
 760 345 760 345 760 294 c 2,5,-1
 760 145 l 2,6,7
 760 86 760 86 717.5 43 c 128,-1,8
 675 0 675 0 615 0 c 2,9,-1
 199 0 l 2,10,11
 139 0 139 0 96 43 c 128,-1,12
 53 86 53 86 53 145 c 2,13,-1
 53 201 l 1,14,-1
 206 201 l 1,15,-1
 206 153 l 1,16,-1
 607 153 l 1,17,-1
 607 286 l 1,18,-1
 171 286 l 1,19,-1
 171 439 l 1,20,-1
 580 439 l 1,21,-1
 580 567 l 1,22,-1
 206 567 l 1,23,-1
 206 511 l 1,24,-1
 53 511 l 1,25,-1
 53 575 l 2,26,27
 53 635 53 635 96 677.5 c 128,-1,28
 139 720 139 720 199 720 c 2,29,-1
 588 720 l 2,30,31
 648 720 648 720 690.5 677.5 c 128,-1,32
 733 635 733 635 733 575 c 2,0,-1
EndSplineSet
EndChar

StartChar: tilde
Encoding: 732 732 219
Width: 403
Flags: MW
HStem: 751 177<103 316> 813 115<103 107 107 118>
LayerCount: 2
Fore
SplineSet
302 866 m 1,0,1
 341 866 341 866 398 903 c 1,2,-1
 398 777 l 1,3,4
 336 751 336 751 299 751 c 128,-1,5
 262 751 262 751 204.5 782 c 128,-1,6
 147 813 147 813 118 813 c 2,7,-1
 107 813 l 2,8,9
 65 813 65 813 23 777 c 1,10,-1
 23 901 l 1,11,12
 90 928 90 928 118 928 c 0,13,14
 156 928 156 928 213.5 899 c 128,-1,15
 271 870 271 870 302 866 c 1,0,1
EndSplineSet
EndChar

StartChar: two
Encoding: 50 50 220
Width: 830
Flags: MW
HStem: 0 153<210 764 210 764> 270 154<210 611 203 618 210 210> 509 211<203 210 57 618>
VStem: 57 153<153 270 153 279 153 319 509 567> 611 153<424 567 567 567>
LayerCount: 2
Fore
SplineSet
203 720 m 2,0,-1
 618 720 l 2,1,2
 678 720 678 720 721 677.5 c 128,-1,3
 764 635 764 635 764 575 c 2,4,-1
 764 416 l 2,5,6
 764 356 764 356 721 313 c 128,-1,7
 678 270 678 270 618 270 c 2,8,-1
 210 270 l 1,9,-1
 210 153 l 1,10,-1
 764 153 l 1,11,-1
 764 0 l 1,12,-1
 57 0 l 1,13,-1
 57 279 l 2,14,15
 57 339 57 339 100 381.5 c 128,-1,16
 143 424 143 424 203 424 c 2,17,-1
 611 424 l 1,18,-1
 611 567 l 1,19,-1
 210 567 l 1,20,-1
 210 509 l 1,21,-1
 57 509 l 1,22,-1
 57 575 l 2,23,24
 57 635 57 635 100 677.5 c 128,-1,25
 143 720 143 720 203 720 c 2,0,-1
EndSplineSet
Substitution2: "'ss03' Style Set 3 in Latin lookup 6 subtable" two.alt
Substitution2: "'aalt' Access All Alternates in Latin lookup 0 subtable" two.alt
EndChar

StartChar: two.alt
Encoding: 57349 57349 221
Width: 815
Flags: MW
HStem: 0 153<158.5 755 203 755 203 755> 497 222<195 203 49 611> 566 153<203 601 203 203>
VStem: 49 154<153 247 497 566>
LayerCount: 2
Fore
SplineSet
755 453 m 1,0,-1
 642 395 l 1,1,-1
 203 153 l 1,2,-1
 755 153 l 1,3,-1
 755 0 l 1,4,-1
 193 0 l 2,5,6
 142 0 142 0 102 32 c 128,-1,7
 62 64 62 64 50 113 c 1,8,-1
 49 247 l 1,9,-1
 601 546 l 1,10,-1
 601 566 l 1,11,-1
 203 566 l 1,12,-1
 203 497 l 1,13,-1
 49 497 l 1,14,-1
 49 574 l 2,15,16
 49 634 49 634 92 676.5 c 128,-1,17
 135 719 135 719 195 719 c 2,18,-1
 611 719 l 2,19,20
 665 719 665 719 705.5 685 c 128,-1,21
 746 651 746 651 755 600 c 1,22,-1
 755 453 l 1,0,-1
EndSplineSet
EndChar

StartChar: u
Encoding: 117 117 222
Width: 695
Flags: MW
HStem: 0 153<158 488 206 488 206 496> 560 20G<53 206 206 206 488 641 641 641>
VStem: 53 153<153 580 153 580 153 580> 488 153<153 580>
LayerCount: 2
Fore
SplineSet
488 580 m 1,0,-1
 641 580 l 1,1,-1
 641 145 l 2,2,3
 641 86 641 86 598.5 43 c 128,-1,4
 556 0 556 0 496 0 c 2,5,-1
 198 0 l 2,6,7
 138 0 138 0 95.5 43 c 128,-1,8
 53 86 53 86 53 145 c 2,9,-1
 53 580 l 1,10,-1
 206 580 l 1,11,-1
 206 153 l 1,12,-1
 488 153 l 1,13,-1
 488 580 l 1,0,-1
EndSplineSet
Substitution2: "'smcp' Lowercase to Small Capitals in Latin lookup 3 subtable" u.sc
Substitution2: "'aalt' Access All Alternates in Latin lookup 0 subtable" u.sc
EndChar

StartChar: u.sc
Encoding: 65581 -1 223
Width: 695
Flags: MW
HStem: 0 153<158 488 206 488 206 496> 560 20G<53 206 206 206 488 641 641 641>
VStem: 53 153<153 580 153 580 153 580> 488 153<153 580>
LayerCount: 2
Fore
SplineSet
206 580 m 1,0,-1
 206 153 l 1,1,-1
 488 153 l 1,2,-1
 488 580 l 1,3,-1
 641 580 l 1,4,-1
 641 145 l 2,5,6
 641 86 641 86 598.5 43 c 128,-1,7
 556 0 556 0 496 0 c 2,8,-1
 198 0 l 2,9,10
 138 0 138 0 95.5 43 c 128,-1,11
 53 86 53 86 53 145 c 2,12,-1
 53 580 l 1,13,-1
 206 580 l 1,0,-1
EndSplineSet
EndChar

StartChar: uacute
Encoding: 250 250 224
Width: 695
Flags: MW
HStem: 0 153<158 488 206 488 206 496> 560 20G<53 206 206 206 488 641 641 641> 639 203<273 481 324 430>
VStem: 53 153<153 580 153 580 153 580> 488 153<153 580>
LayerCount: 2
Fore
SplineSet
488 580 m 1,0,-1
 641 580 l 1,1,-1
 641 145 l 2,2,3
 641 86 641 86 598.5 43 c 128,-1,4
 556 0 556 0 496 0 c 2,5,-1
 198 0 l 2,6,7
 138 0 138 0 95.5 43 c 128,-1,8
 53 86 53 86 53 145 c 2,9,-1
 53 580 l 1,10,-1
 206 580 l 1,11,-1
 206 153 l 1,12,-1
 488 153 l 1,13,-1
 488 580 l 1,0,-1
273 639 m 1,14,-1
 324 842 l 1,15,-1
 481 842 l 1,16,-1
 430 639 l 1,17,-1
 273 639 l 1,14,-1
EndSplineSet
EndChar

StartChar: ucircumflex
Encoding: 251 251 225
Width: 695
Flags: MW
HStem: 0 153<158 488 206 488 206 496> 560 20G<53 206 206 206 488 641 641 641> 639 184<295 318 185 395 371 371 371 395 295 505>
VStem: 53 153<153 580 153 580 153 580> 488 153<153 580>
LayerCount: 2
Fore
SplineSet
488 580 m 1,0,-1
 641 580 l 1,1,-1
 641 145 l 2,2,3
 641 86 641 86 598.5 43 c 128,-1,4
 556 0 556 0 496 0 c 2,5,-1
 198 0 l 2,6,7
 138 0 138 0 95.5 43 c 128,-1,8
 53 86 53 86 53 145 c 2,9,-1
 53 580 l 1,10,-1
 206 580 l 1,11,-1
 206 153 l 1,12,-1
 488 153 l 1,13,-1
 488 580 l 1,0,-1
318 639 m 1,14,-1
 185 639 l 1,15,-1
 295 823 l 1,16,-1
 395 823 l 1,17,-1
 505 639 l 1,18,-1
 371 639 l 1,19,-1
 343 683 l 1,20,-1
 318 639 l 1,14,-1
EndSplineSet
EndChar

StartChar: udieresis
Encoding: 252 252 226
Width: 695
Flags: MW
HStem: 0 153<158 488 206 488 206 496> 560 20G<53 206 206 206 488 641 641 641> 638 154<178 331 178 331 391 545 178 391>
VStem: 53 153<153 580 153 580 153 580> 178 153<638 792 638 792> 391 154<638 792 638 792> 488 153<153 580>
LayerCount: 2
Fore
SplineSet
488 580 m 1,0,-1
 641 580 l 1,1,-1
 641 145 l 2,2,3
 641 86 641 86 598.5 43 c 128,-1,4
 556 0 556 0 496 0 c 2,5,-1
 198 0 l 2,6,7
 138 0 138 0 95.5 43 c 128,-1,8
 53 86 53 86 53 145 c 2,9,-1
 53 580 l 1,10,-1
 206 580 l 1,11,-1
 206 153 l 1,12,-1
 488 153 l 1,13,-1
 488 580 l 1,0,-1
545 792 m 1,14,-1
 545 638 l 1,15,-1
 391 638 l 1,16,-1
 391 792 l 1,17,-1
 545 792 l 1,14,-1
331 792 m 1,18,-1
 331 638 l 1,19,-1
 178 638 l 1,20,-1
 178 792 l 1,21,-1
 331 792 l 1,18,-1
EndSplineSet
EndChar

StartChar: ugrave
Encoding: 249 249 227
Width: 695
Flags: MW
HStem: 0 153<158 488 206 488 206 496> 560 20G<53 206 206 206 488 641 641 641> 639 203<284 390 233 441 284 284>
VStem: 53 153<153 580 153 580 153 580> 488 153<153 580>
LayerCount: 2
Fore
SplineSet
488 580 m 1,0,-1
 641 580 l 1,1,-1
 641 145 l 2,2,3
 641 86 641 86 598.5 43 c 128,-1,4
 556 0 556 0 496 0 c 2,5,-1
 198 0 l 2,6,7
 138 0 138 0 95.5 43 c 128,-1,8
 53 86 53 86 53 145 c 2,9,-1
 53 580 l 1,10,-1
 206 580 l 1,11,-1
 206 153 l 1,12,-1
 488 153 l 1,13,-1
 488 580 l 1,0,-1
390 842 m 1,14,-1
 441 639 l 1,15,-1
 284 639 l 1,16,-1
 233 842 l 1,17,-1
 390 842 l 1,14,-1
EndSplineSet
EndChar

StartChar: underscore
Encoding: 95 95 228
Width: 828
Flags: MW
HStem: -155 153<54 761 54 761>
LayerCount: 2
Fore
SplineSet
761 -2 m 1,0,-1
 761 -155 l 1,1,-1
 54 -155 l 1,2,-1
 54 -2 l 1,3,-1
 761 -2 l 1,0,-1
EndSplineSet
EndChar

StartChar: v
Encoding: 118 118 230
Width: 790
Flags: MW
HStem: 0 21G<340 471 340 340> 560 20G<21 197 197 197 615 791 791 791>
LayerCount: 2
Fore
SplineSet
615 580 m 1,0,-1
 791 580 l 1,1,-1
 471 0 l 1,2,-1
 340 0 l 1,3,-1
 21 580 l 1,4,-1
 197 580 l 1,5,-1
 406 195 l 1,6,-1
 615 580 l 1,0,-1
EndSplineSet
Substitution2: "'smcp' Lowercase to Small Capitals in Latin lookup 3 subtable" v.sc
Substitution2: "'salt' Stylistic Alternatives in Latin lookup 2 subtable" v.alt
AlternateSubs2: "'aalt' Access All Alternates in Latin lookup 1 subtable" v.sc v.alt
EndChar

StartChar: v.alt
Encoding: 65582 -1 231
Width: 697
Flags: MW
HStem: 0 153<158 488 206 488 206 641> 560 20G<53 206 206 206 488 641 641 641>
VStem: 53 153<153 580 153 580 153 580> 488 153<153 580 0 580>
LayerCount: 2
Fore
SplineSet
488 580 m 1,0,-1
 641 580 l 1,1,-1
 641 0 l 1,2,-1
 198 0 l 2,3,4
 138 0 138 0 95.5 43 c 128,-1,5
 53 86 53 86 53 145 c 2,6,-1
 53 580 l 1,7,-1
 206 580 l 1,8,-1
 206 153 l 1,9,-1
 488 153 l 1,10,-1
 488 580 l 1,0,-1
EndSplineSet
EndChar

StartChar: v.sc
Encoding: 65583 -1 232
Width: 801
Flags: MW
HStem: 0 21G<345 476 345 345> 560 20G<21 196 196 196 624 799 799 799>
LayerCount: 2
Fore
SplineSet
410 194 m 1,0,-1
 624 580 l 1,1,-1
 799 580 l 1,2,-1
 476 0 l 1,3,-1
 345 0 l 1,4,-1
 21 580 l 1,5,-1
 196 580 l 1,6,-1
 410 194 l 1,0,-1
EndSplineSet
EndChar

StartChar: w
Encoding: 119 119 233
Width: 1053
Flags: MW
HStem: 0 21G<263 378 263 263 685 801 685 685> 560 20G<35 197 197 197 453 601 601 601 857 1019 1019 1019>
LayerCount: 2
Fore
SplineSet
857 580 m 1,0,-1
 1019 580 l 1,1,-1
 801 0 l 1,2,-1
 685 0 l 1,3,-1
 528 346 l 1,4,-1
 378 0 l 1,5,-1
 263 0 l 1,6,-1
 35 580 l 1,7,-1
 197 580 l 1,8,-1
 322 279 l 1,9,-1
 365 379 l 2,10,11
 375 402 375 402 406.5 473 c 128,-1,12
 438 544 438 544 453 580 c 1,13,-1
 601 580 l 1,14,-1
 741 275 l 1,15,-1
 857 580 l 1,0,-1
EndSplineSet
Substitution2: "'smcp' Lowercase to Small Capitals in Latin lookup 3 subtable" w.sc
Substitution2: "'salt' Stylistic Alternatives in Latin lookup 2 subtable" w.alt
AlternateSubs2: "'aalt' Access All Alternates in Latin lookup 1 subtable" w.sc w.alt
EndChar

StartChar: w.alt
Encoding: 65584 -1 234
Width: 978
Flags: MW
HStem: 0 153<159 397 205 397 551 743> 560 20G<53 205 205 205 397 551 551 551 743 896 896 896>
VStem: 53 152<153 580 153 580 153 580> 397 154<153 580 153 580> 743 153<153 580 0 580>
LayerCount: 2
Fore
SplineSet
199 0 m 2,0,1
 139 0 139 0 96 43 c 128,-1,2
 53 86 53 86 53 145 c 2,3,-1
 53 580 l 1,4,-1
 205 580 l 1,5,-1
 205 153 l 1,6,-1
 397 153 l 1,7,-1
 397 580 l 1,8,-1
 551 580 l 1,9,-1
 551 153 l 1,10,-1
 743 153 l 1,11,-1
 743 580 l 1,12,-1
 896 580 l 1,13,-1
 896 0 l 1,14,-1
 199 0 l 2,0,1
EndSplineSet
EndChar

StartChar: w.sc
Encoding: 65585 -1 235
Width: 1078
Flags: MW
HStem: 0 21G<266 381 266 266 688 804 688 688> 560 20G<34 196 196 196 460 600 600 600 864 1027 1027 1027>
LayerCount: 2
Fore
SplineSet
864 580 m 1,0,-1
 1027 580 l 1,1,-1
 804 0 l 1,2,-1
 688 0 l 1,3,-1
 531 339 l 1,4,-1
 464 188 l 1,5,-1
 381 0 l 1,6,-1
 266 0 l 1,7,-1
 34 580 l 1,8,-1
 196 580 l 1,9,-1
 325 276 l 1,10,-1
 460 580 l 1,11,-1
 600 580 l 1,12,-1
 744 275 l 1,13,-1
 864 580 l 1,0,-1
EndSplineSet
EndChar

StartChar: x
Encoding: 120 120 236
Width: 692
Flags: MW
HStem: 0 21G<46 203 46 46 487 644 487 487> 560 20G<46 203 203 203 486 644 644 644>
LayerCount: 2
Fore
SplineSet
486 580 m 1,0,-1
 644 580 l 1,1,-1
 644 530 l 1,2,-1
 444 295 l 1,3,-1
 554 161 l 1,4,-1
 644 50 l 1,5,-1
 644 0 l 1,6,-1
 487 0 l 1,7,-1
 345 174 l 1,8,-1
 203 0 l 1,9,-1
 46 0 l 1,10,-1
 46 50 l 1,11,-1
 246 295 l 1,12,-1
 46 530 l 1,13,-1
 46 580 l 1,14,-1
 203 580 l 1,15,-1
 345 412 l 1,16,-1
 486 580 l 1,0,-1
EndSplineSet
Substitution2: "'smcp' Lowercase to Small Capitals in Latin lookup 3 subtable" x.sc
Substitution2: "'salt' Stylistic Alternatives in Latin lookup 2 subtable" x.alt
AlternateSubs2: "'aalt' Access All Alternates in Latin lookup 1 subtable" x.sc x.alt
EndChar

StartChar: x.alt
Encoding: 65586 -1 237
Width: 698
Flags: MW
HStem: 0 21G<54 207 54 54 489 642 489 489> 213 154<207 489 207 489> 560 20G<54 207 207 207 489 642 642 642>
VStem: 54 153<0 213 0 222 0 233 367 580> 489 153<0 213 213 213 367 580>
LayerCount: 2
Fore
SplineSet
642 580 m 1,0,-1
 642 358 l 2,1,2
 642 350 642 350 639 339.5 c 128,-1,3
 636 329 636 329 633.5 324 c 128,-1,4
 631 319 631 319 623.5 305.5 c 128,-1,5
 616 292 616 292 615 290 c 1,6,7
 642 238 642 238 642 222 c 2,8,-1
 642 0 l 1,9,-1
 489 0 l 1,10,-1
 489 213 l 1,11,-1
 207 213 l 1,12,-1
 207 0 l 1,13,-1
 54 0 l 1,14,-1
 54 222 l 2,15,16
 54 238 54 238 81 290 c 1,17,18
 80 292 80 292 72.5 305.5 c 128,-1,19
 65 319 65 319 62.5 324 c 128,-1,20
 60 329 60 329 57 339.5 c 128,-1,21
 54 350 54 350 54 358 c 2,22,-1
 54 580 l 1,23,-1
 207 580 l 1,24,-1
 207 367 l 1,25,-1
 489 367 l 1,26,-1
 489 580 l 1,27,-1
 642 580 l 1,0,-1
EndSplineSet
EndChar

StartChar: x.sc
Encoding: 65587 -1 238
Width: 692
Flags: MW
HStem: 0 21G<46 203 46 46 487 644 487 487> 560 20G<46 203 203 203 487 644 644 644>
LayerCount: 2
Fore
SplineSet
487 580 m 1,0,-1
 644 580 l 1,1,-1
 644 530 l 1,2,-1
 444 296 l 1,3,-1
 644 50 l 1,4,-1
 644 0 l 1,5,-1
 487 0 l 1,6,-1
 345 175 l 1,7,-1
 203 0 l 1,8,-1
 46 0 l 1,9,-1
 46 50 l 1,10,-1
 244 296 l 1,11,-1
 102 462 l 1,12,-1
 46 530 l 1,13,-1
 46 580 l 1,14,-1
 203 580 l 1,15,-1
 345 412 l 1,16,-1
 487 580 l 1,0,-1
EndSplineSet
EndChar

StartChar: y
Encoding: 121 121 239
Width: 685
Flags: MW
HStem: -208 154<134 478 134 486 134 478> 0 153<148 478 195 478 195 478> 558 20G<42 195 195 195 478 631 631 631>
VStem: 42 153<153 578 153 578 153 578> 478 153<-54 0 0 0 153 578>
LayerCount: 2
Fore
SplineSet
631 -63 m 2,0,1
 631 -123 631 -123 588.5 -165.5 c 128,-1,2
 546 -208 546 -208 486 -208 c 2,3,-1
 134 -208 l 1,4,-1
 134 -54 l 1,5,-1
 478 -54 l 1,6,-1
 478 0 l 1,7,-1
 188 0 l 2,8,9
 128 0 128 0 85 43 c 128,-1,10
 42 86 42 86 42 145 c 2,11,-1
 42 578 l 1,12,-1
 195 578 l 1,13,-1
 195 153 l 1,14,-1
 478 153 l 1,15,-1
 478 578 l 1,16,-1
 631 578 l 1,17,-1
 631 -63 l 2,0,1
EndSplineSet
Substitution2: "'smcp' Lowercase to Small Capitals in Latin lookup 3 subtable" y.sc
Substitution2: "'aalt' Access All Alternates in Latin lookup 0 subtable" y.sc
EndChar

StartChar: y.sc
Encoding: 65588 -1 240
Width: 688
Flags: MW
HStem: 0 21G<290 443 290 290> 560 20G<18 199 199 199 532 715 715 715>
VStem: 290 153<0 200 0 200>
LayerCount: 2
Fore
SplineSet
532 580 m 1,0,-1
 715 580 l 1,1,-1
 443 200 l 1,2,-1
 443 0 l 1,3,-1
 290 0 l 1,4,-1
 290 200 l 1,5,-1
 18 580 l 1,6,-1
 199 580 l 1,7,-1
 367 364 l 1,8,-1
 532 580 l 1,0,-1
EndSplineSet
EndChar

StartChar: yacute
Encoding: 253 253 241
Width: 688
Flags: MW
HStem: -208 154<134 478 134 486 134 478> 0 153<148 478 195 478 195 478> 558 20G<42 195 195 195 478 631 631 631> 639 203<270 478 321 427>
VStem: 42 153<153 578 153 578 153 578> 478 153<-54 0 0 0 153 578>
LayerCount: 2
Fore
SplineSet
631 -63 m 2,0,1
 631 -123 631 -123 588.5 -165.5 c 128,-1,2
 546 -208 546 -208 486 -208 c 2,3,-1
 134 -208 l 1,4,-1
 134 -54 l 1,5,-1
 478 -54 l 1,6,-1
 478 0 l 1,7,-1
 188 0 l 2,8,9
 128 0 128 0 85 43 c 128,-1,10
 42 86 42 86 42 145 c 2,11,-1
 42 578 l 1,12,-1
 195 578 l 1,13,-1
 195 153 l 1,14,-1
 478 153 l 1,15,-1
 478 578 l 1,16,-1
 631 578 l 1,17,-1
 631 -63 l 2,0,1
270 639 m 1,18,-1
 321 842 l 1,19,-1
 478 842 l 1,20,-1
 427 639 l 1,21,-1
 270 639 l 1,18,-1
EndSplineSet
EndChar

StartChar: ydieresis
Encoding: 255 255 242
Width: 688
Flags: MW
HStem: -208 154<134 478 134 486 134 478> 0 153<148 478 195 478 195 478> 558 20G<42 195 195 195 478 631 631 631> 640 154<175 328 175 328 388 542 175 388>
VStem: 42 153<153 578 153 578 153 578> 175 153<640 794 640 794> 388 154<640 794 640 794> 478 153<-54 0 0 0 153 578>
LayerCount: 2
Fore
SplineSet
631 -63 m 2,0,1
 631 -123 631 -123 588.5 -165.5 c 128,-1,2
 546 -208 546 -208 486 -208 c 2,3,-1
 134 -208 l 1,4,-1
 134 -54 l 1,5,-1
 478 -54 l 1,6,-1
 478 0 l 1,7,-1
 188 0 l 2,8,9
 128 0 128 0 85 43 c 128,-1,10
 42 86 42 86 42 145 c 2,11,-1
 42 578 l 1,12,-1
 195 578 l 1,13,-1
 195 153 l 1,14,-1
 478 153 l 1,15,-1
 478 578 l 1,16,-1
 631 578 l 1,17,-1
 631 -63 l 2,0,1
542 794 m 1,18,-1
 542 640 l 1,19,-1
 388 640 l 1,20,-1
 388 794 l 1,21,-1
 542 794 l 1,18,-1
328 794 m 1,22,-1
 328 640 l 1,23,-1
 175 640 l 1,24,-1
 175 794 l 1,25,-1
 328 794 l 1,22,-1
EndSplineSet
EndChar

StartChar: z
Encoding: 122 122 243
Width: 698
Flags: MW
HStem: 0 153<293 642 293 642> 427 153<54 642 54 403>
LayerCount: 2
Fore
SplineSet
54 427 m 1,0,-1
 54 580 l 1,1,-1
 642 580 l 1,2,-1
 642 423 l 1,3,-1
 293 153 l 1,4,-1
 642 153 l 1,5,-1
 642 0 l 1,6,-1
 54 0 l 1,7,-1
 54 157 l 1,8,-1
 403 427 l 1,9,-1
 54 427 l 1,0,-1
EndSplineSet
Substitution2: "'smcp' Lowercase to Small Capitals in Latin lookup 3 subtable" z.sc
Substitution2: "'salt' Stylistic Alternatives in Latin lookup 2 subtable" z.alt
AlternateSubs2: "'aalt' Access All Alternates in Latin lookup 1 subtable" z.sc z.alt
EndChar

StartChar: z.alt
Encoding: 65589 -1 244
Width: 692
Flags: MW
HStem: 0 153<156.5 639 204 639 204 639> 213 154<204 486 196 494 204 204> 427 153<51 486 51 494>
VStem: 51 153<153 213 153 222 153 261.5> 486 153<367 427 427 427>
CounterMasks: 1 e0
LayerCount: 2
Fore
SplineSet
494 213 m 2,0,-1
 204 213 l 1,1,-1
 204 153 l 1,2,-1
 639 153 l 1,3,-1
 639 0 l 1,4,-1
 196 0 l 2,5,6
 137 0 137 0 94 43 c 128,-1,7
 51 86 51 86 51 145 c 2,8,-1
 51 222 l 2,9,10
 51 281 51 281 94 324 c 128,-1,11
 137 367 137 367 196 367 c 2,12,-1
 486 367 l 1,13,-1
 486 427 l 1,14,-1
 51 427 l 1,15,-1
 51 580 l 1,16,-1
 494 580 l 2,17,18
 554 580 554 580 596.5 537 c 128,-1,19
 639 494 639 494 639 435 c 2,20,-1
 639 358 l 2,21,22
 639 299 639 299 596.5 256 c 128,-1,23
 554 213 554 213 494 213 c 2,0,-1
EndSplineSet
EndChar

StartChar: z.sc
Encoding: 65590 -1 245
Width: 698
Flags: MW
HStem: 0 153<293 642 293 642> 427 153<54 642 54 403>
LayerCount: 2
Fore
SplineSet
54 427 m 1,0,-1
 54 580 l 1,1,-1
 642 580 l 1,2,-1
 642 423 l 1,3,-1
 293 153 l 1,4,-1
 642 153 l 1,5,-1
 642 0 l 1,6,-1
 54 0 l 1,7,-1
 54 157 l 1,8,-1
 403 427 l 1,9,-1
 54 427 l 1,0,-1
EndSplineSet
EndChar

StartChar: zcaron
Encoding: 382 382 246
Width: 698
Flags: MW
HStem: 0 153<293 642 293 642> 427 153<54 642 54 403> 651 184<307 328 382 407 307 307>
LayerCount: 2
Fore
SplineSet
54 427 m 1,0,-1
 54 580 l 1,1,-1
 642 580 l 1,2,-1
 642 423 l 1,3,-1
 293 153 l 1,4,-1
 642 153 l 1,5,-1
 642 0 l 1,6,-1
 54 0 l 1,7,-1
 54 157 l 1,8,-1
 403 427 l 1,9,-1
 54 427 l 1,0,-1
197 835 m 1,10,-1
 328 835 l 1,11,-1
 355 791 l 1,12,-1
 382 835 l 1,13,-1
 517 835 l 1,14,-1
 407 651 l 1,15,-1
 307 651 l 1,16,-1
 197 835 l 1,10,-1
EndSplineSet
EndChar

StartChar: zero
Encoding: 48 48 247
Width: 834
Flags: MW
HStem: 0 163<163 611 292 611 292 618> 563 157<210 529 210 210>
VStem: 57 153<295 563 295 571 295 611> 611 153<163 431 431 431>
LayerCount: 2
Fore
SplineSet
203 720 m 2,0,-1
 618 720 l 2,1,2
 678 720 678 720 721 675.5 c 128,-1,3
 764 631 764 631 764 571 c 2,4,-1
 764 155 l 2,5,6
 764 95 764 95 720.5 47.5 c 128,-1,7
 677 0 677 0 618 0 c 2,8,-1
 203 0 l 2,9,10
 144 0 144 0 100.5 47.5 c 128,-1,11
 57 95 57 95 57 155 c 2,12,-1
 57 571 l 2,13,14
 57 631 57 631 100 675.5 c 128,-1,15
 143 720 143 720 203 720 c 2,0,-1
292 163 m 1,16,-1
 611 163 l 1,17,-1
 611 431 l 1,18,-1
 292 163 l 1,16,-1
529 563 m 1,19,-1
 210 563 l 1,20,-1
 210 295 l 1,21,-1
 529 563 l 1,19,-1
EndSplineSet
EndChar

StartChar: A
Encoding: 65 65 248
Width: 836
Flags: MW
HStem: 0 21G<58 213 58 58 621 778 621 621> 232 156<213 621 213 621> 564 156<213 621 213 213>
VStem: 58 155<0 232 388 564> 621 157<0 232 232 232 388 564 564 564>
LayerCount: 2
Fore
SplineSet
206 720 m 2,0,-1
 629 720 l 2,1,2
 691 720 691 720 734.5 676.5 c 128,-1,3
 778 633 778 633 778 572 c 2,4,-1
 778 0 l 1,5,-1
 621 0 l 1,6,-1
 621 232 l 1,7,-1
 213 232 l 1,8,-1
 213 0 l 1,9,-1
 58 0 l 1,10,-1
 58 572 l 2,11,12
 58 634 58 634 101 677 c 128,-1,13
 144 720 144 720 206 720 c 2,0,-1
213 388 m 1,14,-1
 621 388 l 1,15,-1
 621 564 l 1,16,-1
 213 564 l 1,17,-1
 213 388 l 1,14,-1
EndSplineSet
Substitution2: "'ss02' Style Set 2 in Latin lookup 5 subtable" A.alt2
Substitution2: "'ss01' Style Set 1 in Latin lookup 4 subtable" A.alt
AlternateSubs2: "'aalt' Access All Alternates in Latin lookup 1 subtable" A.alt A.alt2
EndChar
